<?xml version="1.0" standalone="no"?>
<!DOCTYPE svg PUBLIC "-//W3C//DTD SVG 1.1//EN" "http://www.w3.org/Graphics/SVG/1.1/DTD/svg11.dtd" >
<svg xmlns="http://www.w3.org/2000/svg" xmlns:xlink="http://www.w3.org/1999/xlink" version="1.1">
<metadata>
Created by FontForge 20150824 at Sun Mar 20 19:26:08 2016
 By Everything Fonts
Copyright (c) 2014 by Kimberly Geswein. All rights reserved.
</metadata>
<defs>
<font id="KGCorneroftheSky" horiz-adv-x="683" >
  <font-face 
    font-family="KGCorneroftheSky"
    font-weight="400"
    font-stretch="normal"
    units-per-em="1024"
    panose-1="2 0 5 3 0 0 0 2 0 4"
    ascent="819"
    descent="-205"
    x-height="711"
    cap-height="916"
    bbox="-196 -336 1127 1200.19"
    underline-thickness="50"
    underline-position="-150"
    unicode-range="U+0020-2212"
  />
<missing-glyph horiz-adv-x="300" 
 />
    <glyph glyph-name=".notdef" horiz-adv-x="300" 
 />
    <glyph glyph-name=".null" horiz-adv-x="0" 
 />
    <glyph glyph-name="nonmarkingreturn" horiz-adv-x="300" 
 />
    <glyph glyph-name="space" unicode=" " horiz-adv-x="348" 
 />
    <glyph glyph-name="space" unicode="&#xa0;" horiz-adv-x="348" 
 />
    <glyph glyph-name="exclam" unicode="!" horiz-adv-x="249" 
d="M199 274q0 -36 -23 -53.5t-51 -17.5q-27 0 -50 17.5t-25 52.5v583q0 36 23 52t50 16q31 0 55.5 -19t19.5 -55l1 6v-582zM205 80q0 -16 -6.5 -30.5t-17 -25.5t-25.5 -17.5t-31 -6.5q-33 0 -56 24t-23 56q0 34 23 57t56 23t56.5 -23t23.5 -57z" />
    <glyph glyph-name="quotedbl" unicode="&#x22;" horiz-adv-x="483" 
d="M197 557q-11 -15 -26 -20.5t-29 -5.5q-21 0 -40.5 10.5t-30 27t-8.5 37.5t23 42q16 16 16 22q0 2 -4.5 10t-10.5 19q-12 22 -11 42t11 35t26.5 23.5t34.5 8.5t35.5 -9.5t29.5 -29.5q29 -50 29 -98q0 -60 -45 -115v1zM387 562q-11 -15 -26 -20.5t-30 -5.5
q-21 0 -40.5 10.5t-30 27t-8.5 37.5t23 42q16 15 16 22q0 2 -4 10t-10 19q-12 22 -11 42t11 35t26.5 23.5t34.5 8.5t35.5 -9.5t29.5 -29.5q29 -50 29 -98q0 -60 -45 -115v1z" />
    <glyph glyph-name="numbersign" unicode="#" horiz-adv-x="698" 
d="M519 433v-26h50q36 0 52 -23t16 -51q0 -15 -5 -29.5t-14 -25t-23 -16.5t-32 -3l6 -1h-50v-48q0 -37 -23 -54t-51 -17q-27 0 -50 17.5t-25 52.5v49h-31v-48q0 -37 -23 -54t-51 -17q-27 0 -50 17.5t-25 52.5v49h-43q-37 0 -54.5 22.5t-17.5 50.5q0 27 18 50.5t53 25.5h44
v26h-43q-37 0 -54.5 23t-17.5 51q0 27 18 50t53 25h44v46q0 36 23 52t51 16q15 0 29.5 -5t25 -14t16.5 -23t3 -32l1 6v-46h31v46q0 36 23 52t51 16q15 0 29.5 -5t25 -14t16.5 -23t3 -32l1 6v-46h50q36 0 52 -23t16 -50q0 -15 -5 -29.5t-14 -25.5t-23 -16.5t-32 -3.5l6 -1
h-50zM339 407h31v26h-31v-26z" />
    <glyph glyph-name="dollar" unicode="$" horiz-adv-x="707" 
d="M360 -40q-23 0 -43.5 11t-28.5 32q-41 7 -78.5 25.5t-69 49.5t-55 74.5t-35.5 100.5q0 42 23 62.5t52 20.5q25 0 47 -17.5t27 -49.5q13 -41 36 -70t50 -43q0 30 0.5 68.5t1 79l1 81t0.5 74.5q-29 2 -56 7t-51.5 15t-46 27.5t-38.5 44.5q-31 52 -31 111q0 41 14.5 81.5
t43.5 75.5t72 61t100 38q7 24 27 36t43 12q22 0 42 -12t28 -35q40 -9 77.5 -29.5t67.5 -50.5t50 -68.5t25 -82.5q0 -43 -23 -65t-52 -22q-25 0 -46 15.5t-28 48.5v1q-7 34 -24 58.5t-43 39.5q0 -41 -0.5 -82.5t-1.5 -90.5q54 -8 98 -37.5t74.5 -75t46 -103.5t11.5 -122
q-3 -44 -21 -83.5t-48.5 -72.5t-73 -57t-94.5 -35q-7 -25 -27 -36t-43 -11zM516 259q3 24 1.5 51t-10 52t-25.5 46.5t-45 35.5q0 -29 -0.5 -64.5t-1 -73.5t-1 -76.5t-0.5 -72.5q35 16 56.5 43.5t25.5 59.5v-1zM221 637q7 -15 25 -22.5t43 -10.5v40v36.5t0.5 39t0.5 47.5
q-37 -17 -56 -44.5t-19 -56.5q0 -17 6 -29z" />
    <glyph glyph-name="percent" unicode="%" horiz-adv-x="617" 
d="M187 36q-8 -21 -24 -30.5t-36 -9.5q-18 0 -35.5 8.5t-30 22.5t-16.5 33t7 40l369 782q11 20 28 28.5t35 8.5t35 -8.5t28.5 -23t14 -34t-7.5 -40.5zM156 793q0 -6 4.5 -11t10.5 -5q7 0 11.5 5t4.5 11t-4.5 10.5t-11.5 4.5q-6 0 -10.5 -4.5t-4.5 -10.5zM289 791
q0 -24 -9.5 -45.5t-25.5 -37.5t-38 -25.5t-46 -9.5t-45.5 9.5t-37.5 25.5t-25 37.5t-9 45.5q0 25 9 46t25 37t37.5 25t45.5 9t46 -9t38 -25t25.5 -37t9.5 -46zM416 131q0 -6 4.5 -11t10.5 -5q7 0 11.5 5t4.5 11q0 15 -16 15q-6 0 -10.5 -4t-4.5 -11zM549 130q0 -24 -9.5 -46
t-25.5 -38t-37.5 -25.5t-45.5 -9.5q-25 0 -46.5 9.5t-37.5 25.5t-25 38t-9 46t9 45.5t25 37.5t37.5 25t46.5 9q24 0 45.5 -9t37.5 -25t25.5 -37.5t9.5 -45.5z" />
    <glyph glyph-name="ampersand" unicode="&#x26;" horiz-adv-x="697" 
d="M662 93q8 -14 0.5 -36.5t-25.5 -39.5t-44 -20.5t-56 21.5l-26 41q-48 -34 -110 -56t-120 -22q-38 0 -74.5 8.5t-70.5 25.5q-48 26 -69.5 71t-21.5 102q0 42 11 95t32 108t50.5 106.5t67.5 89.5q-19 45 -31 90.5t-10 84.5q1 39 17 68t40.5 48.5t55 29.5t60.5 10t57.5 -9
t47.5 -27.5t30 -46.5t6 -65q-5 -50 -31.5 -102.5t-62.5 -99.5l122 -232q5 30 26.5 44t46.5 14t47.5 -15.5t28.5 -44.5q-2 -36 -14 -78.5t-31 -78.5q12 -20 26 -42t25 -42zM537 18q2 -2 2.5 -3.5t-2.5 3.5zM221 134q22 -14 58 -14q42 0 85.5 16.5t68.5 43.5l-148 280
q-20 -23 -37 -57t-29.5 -71t-20 -72t-7.5 -60q0 -21 7 -38.5t23 -27.5zM338 787q-12 7 -18 0t-7.5 -20.5t-1 -29t2.5 -24.5q13 18 19 32t7.5 23t0 14t-2.5 5z" />
    <glyph glyph-name="quotesingle" unicode="'" horiz-adv-x="271" 
d="M178 557q-11 -15 -26 -20.5t-29 -5.5q-21 0 -40.5 10.5t-30 27t-8.5 37.5t23 42q16 16 16 22q0 2 -4.5 10t-10.5 19q-12 22 -11 42t11 35t26.5 23.5t34.5 8.5t35.5 -9.5t29.5 -29.5q29 -50 29 -98q0 -60 -45 -115v1z" />
    <glyph glyph-name="parenleft" unicode="(" horiz-adv-x="462" 
d="M338 939q18 5 34 -0.5t27.5 -16.5t18 -26.5t6.5 -30.5q0 -20 -9 -36.5t-32 -25.5q-53 -20 -92.5 -64.5t-66 -101t-39 -120t-10.5 -120.5q1 -56 14.5 -112t38.5 -101.5t60 -77t79 -37.5q29 -5 42.5 -26.5t13.5 -44.5q0 -15 -5.5 -29.5t-16 -25t-26 -15.5t-34.5 -2
q-76 18 -133.5 64.5t-96.5 110.5t-59.5 139.5t-22.5 151.5q-2 81 17 165.5t57.5 159.5t96.5 133.5t135 87.5z" />
    <glyph glyph-name="parenright" unicode=")" horiz-adv-x="440" 
d="M80 938q77 -29 135 -87.5t96.5 -133.5t57 -159.5t17.5 -165.5q-2 -76 -22.5 -151.5t-59.5 -139.5t-96.5 -110.5t-133.5 -64.5q-19 -3 -34.5 2t-26 15.5t-16 25t-5.5 29.5q0 23 13.5 44.5t42.5 26.5q44 6 79 37.5t60 77t38.5 101.5t14.5 112q1 57 -11 120.5t-38.5 120
t-66 101t-92.5 64.5q-23 9 -32 25.5t-9 36.5q0 15 6.5 30.5t18 26.5t27.5 16.5t34 0.5z" />
    <glyph glyph-name="asterisk" unicode="*" horiz-adv-x="557" 
d="M227 433l-149 -13q-18 0 -26.5 12.5t-8.5 26.5t9 26.5t26 12.5l142 -18l-114 92q-12 12 -8 26.5t15 25t25 13t23 -8.5l95 -118l-17 152q0 17 13 24.5t28 6.5t27 -9t10 -22l-15 -155l96 118q13 13 28 10.5t25 -12.5t12 -25t-10 -28l-112 -90l145 18q17 0 24.5 -13t6.5 -28
t-9 -27t-22 -10l-153 13l116 -94q13 -13 10.5 -28t-12.5 -25t-25 -12t-28 10l-92 114l15 -144q0 -18 -12.5 -26.5t-26.5 -8.5t-26.5 9t-12.5 26l17 141l-91 -113q-12 -12 -26.5 -8t-25 15t-13 25t8.5 23z" />
    <glyph glyph-name="plus" unicode="+" horiz-adv-x="555" 
d="M350 500h100q36 0 52 -23t16 -50q0 -15 -5 -29.5t-14 -25.5t-23 -16.5t-32 -3.5l6 -1h-100v-97q0 -36 -23 -53.5t-50 -17.5t-50.5 17.5t-25.5 52.5v98h-92q-37 0 -54.5 23t-17.5 51q0 27 18 50t53 25h93v96q0 35 23 51t51 16q15 0 29.5 -5t25 -14t16.5 -22.5t3 -31.5l1 6
v-96z" />
    <glyph glyph-name="comma" unicode="," horiz-adv-x="250" 
d="M171 -69q-11 -15 -26 -20.5t-29 -5.5q-21 0 -40.5 10.5t-30 27t-8.5 37.5t23 42q16 15 16 22q0 3 -4.5 10.5t-9.5 18.5q-13 22 -12 42t11 35t27 23.5t35 8.5q17 0 34.5 -9.5t29.5 -29.5q29 -50 29 -98q0 -60 -45 -114z" />
    <glyph glyph-name="hyphen" unicode="-" horiz-adv-x="572" 
d="M113 351q-37 0 -54.5 23t-17.5 51q0 27 18 50t53 25h342q36 0 52 -23t16 -50q0 -15 -5 -29.5t-14 -25.5t-23 -16.5t-32 -3.5l6 -1h-341z" />
    <glyph glyph-name="period" unicode="." horiz-adv-x="233" 
d="M200 82q0 -33 -23.5 -56.5t-56.5 -23.5t-56 23.5t-23 56.5t23 56t56 23t56.5 -23t23.5 -56z" />
    <glyph glyph-name="slash" unicode="/" horiz-adv-x="631" 
d="M175 36q-8 -21 -24 -30.5t-36 -9.5q-18 0 -35.5 8.5t-30 22.5t-16.5 33t7 40l406 783q11 20 28 28.5t35 8.5t35 -8.5t28.5 -23t14 -34t-7.5 -40.5z" />
    <glyph glyph-name="zero" unicode="0" horiz-adv-x="758" 
d="M383 0q-81 0 -144 36.5t-106.5 95.5t-67 133.5t-25.5 151.5q-1 52 8 109.5t27.5 112.5t47.5 105t67.5 88t86.5 60t105 22t105 -22t86 -60t66 -88t46.5 -105.5t27 -114t7.5 -112.5q-2 -78 -24 -152.5t-64 -132t-104.5 -92.5t-144.5 -35zM384 147q47 0 82.5 22.5t58.5 59.5
t35 85t13 98q0 36 -5 76t-15.5 79t-26.5 75t-37.5 63t-48.5 43t-59 16q-33 0 -60 -16t-48.5 -42.5t-37.5 -61.5t-26 -73.5t-15 -78.5t-4 -75q1 -51 14 -99.5t37 -86.5t60 -61t83 -23z" />
    <glyph glyph-name="one" unicode="1" horiz-adv-x="219" 
d="M36 849q0 36 23 53.5t51 17.5q27 0 50 -17.5t25 -52.5v-781q0 -36 -23 -52t-50 -16q-15 0 -30 5t-25.5 14t-16.5 22.5t-3 31.5l-1 -5v780z" />
    <glyph glyph-name="two" unicode="2" horiz-adv-x="676" 
d="M127 0q-17 -3 -31.5 3.5t-25.5 19t-17 30t-6 37.5q0 23 9 45.5t29 38.5q26 21 66 55t84.5 77.5t88.5 93.5t78 102.5t54 105t17 100.5q-2 31 -23.5 48.5t-72.5 12.5t-101.5 -39t-83.5 -98q-10 -18 -26 -26.5t-35 -8.5q-18 0 -35 8t-28.5 21.5t-14.5 32t8 39.5
q51 98 134 154.5t176 63.5q70 8 119.5 -7t80.5 -46.5t45 -75t14 -92.5q0 -76 -32.5 -152.5t-83 -147.5t-110.5 -134.5t-115 -113.5h278q37 0 54 -22t17 -51q0 -27 -17.5 -49.5t-52.5 -24.5h-441z" />
    <glyph glyph-name="three" unicode="3" horiz-adv-x="684" 
d="M489 259q1 25 -3.5 56t-21.5 59t-51 46.5t-91 17.5q-16 -2 -28.5 3t-21 15t-13 24t-4.5 29q0 23 14.5 47t46.5 35q32 -3 56.5 6t40 25t22 36.5t3.5 40.5q-5 28 -28 49t-68 22q-21 0 -40 -8.5t-35 -22.5t-29.5 -32.5t-23.5 -38.5q-11 -23 -27 -32.5t-36 -9.5
q-17 0 -33.5 9.5t-27.5 23.5t-15.5 30.5t1.5 30.5q13 36 38.5 71.5t61 64t78 45.5t90.5 17q60 0 104 -16.5t74 -44t46.5 -64t21.5 -75.5q1 -7 1.5 -13.5t0.5 -15.5q0 -48 -13 -88t-44 -72q37 -33 58.5 -68t33 -69.5t14 -68t2.5 -64.5q-2 -52 -24 -100t-63 -84.5t-99.5 -57
t-133.5 -17.5q-47 1 -92.5 16.5t-83 47.5t-65 80.5t-39.5 114.5q-3 24 6 41.5t24 27t34 12t37 -4t31.5 -21.5t18.5 -40q16 -66 53.5 -96t79.5 -31q40 -1 70 8.5t50 25t30.5 36t11.5 42.5z" />
    <glyph glyph-name="four" unicode="4" horiz-adv-x="710" 
d="M476 447h-318q-26 0 -46 1.5t-33.5 11.5t-20 31.5t-6.5 62.5v292q0 36 22.5 53.5t50.5 17.5t50.5 -17.5t24.5 -52.5v-251h276v250q0 36 23 53.5t50 17.5q28 0 50.5 -17.5t24.5 -52.5v-257q20 -9 29 -28t9 -40q0 -22 -9.5 -41.5t-28.5 -27.5v-384q-1 -23 -12.5 -38.5
t-28.5 -22.5t-36.5 -6.5t-35.5 8.5t-26.5 22.5t-8.5 36.5v378z" />
    <glyph glyph-name="five" unicode="5" horiz-adv-x="656" 
d="M53 813q0 26 1.5 46t11.5 33.5t31.5 20t62.5 6.5h374q36 0 53.5 -22t17.5 -51q0 -28 -18 -50.5t-53 -24.5h-332v-149q83 16 146.5 7t109.5 -35.5t76.5 -66.5t49 -85t26 -90.5t7.5 -83.5q0 -48 -19 -95t-55 -85t-89 -62.5t-122 -27.5q-103 0 -178 56.5t-106 162.5
q-6 21 -1 38.5t16 29.5t27 18.5t32 6.5q21 0 38.5 -11t25.5 -34v1q18 -55 55 -88t94 -31q34 1 59 12t41.5 28t24.5 37.5t8 41.5q0 53 -15.5 100.5t-50.5 78t-91 37.5t-137 -21q-50 -20 -84.5 3t-36.5 80v269z" />
    <glyph glyph-name="six" unicode="6" horiz-adv-x="730" 
d="M408 775q-38 -2 -72 -31t-60 -72.5t-42 -96t-18 -102.5q45 33 97 49t103 16.5t98 -15t83 -46t57.5 -76.5t21.5 -107q0 -51 -19 -102t-56.5 -93t-92.5 -69t-125 -30q-89 -3 -150.5 25t-100 78.5t-56.5 119.5t-19 147q-2 105 19.5 202.5t66 173.5t111 123t156.5 51
q45 0 83.5 -16t68.5 -41.5t50.5 -59t31.5 -69.5q6 -19 -2 -35t-23 -26.5t-35 -15.5t-38.5 -2t-33 15t-18.5 34q-12 36 -34.5 54.5t-51.5 16.5zM213 297q-3 -8 -3.5 -7t0.5 4.5t2 6t1 -3.5zM213 297q8 -70 52 -111.5t109 -41.5q30 3 57 16t48 33t33.5 43.5t13.5 47.5
q-3 43 -23 69t-49 36.5t-64 8t-69 -15.5t-63 -35t-45 -50z" />
    <glyph glyph-name="seven" unicode="7" horiz-adv-x="701" 
d="M446 771h-333q-37 0 -54 22.5t-17 50.5q0 27 17.5 50t52.5 25h467q18 0 33.5 -11t25 -27.5t11.5 -36.5t-7 -37q-50 -81 -106.5 -182.5t-114.5 -206.5t-114.5 -206.5t-106.5 -182.5q-11 -17 -26 -24.5t-30 -7.5q-20 0 -38.5 11.5t-30 29t-13.5 36.5t12 34z" />
    <glyph glyph-name="eight" unicode="8" horiz-adv-x="662" 
d="M324 916q67 0 115.5 -18.5t80 -47.5t47 -66.5t17.5 -76.5q5 -99 -68 -164q54 -42 84.5 -116t23.5 -171q-3 -49 -23 -95.5t-57 -82.5t-90 -57.5t-122 -21.5q-68 0 -120.5 22t-89 57.5t-56.5 81t-23 93.5q-5 56 2 100.5t22 79.5t35 61.5t43 47.5q-30 29 -47.5 69t-17.5 86
q0 40 12.5 79.5t42 70.5t76 50t113.5 19zM333 147q34 0 60 9.5t44.5 25t29 36t12.5 42.5q4 46 -5.5 82t-29.5 61.5t-49 39t-63 13.5q-35 0 -63.5 -14.5t-48 -41t-27.5 -62.5t-1 -79q3 -21 13 -41.5t27.5 -36t42.5 -25t58 -9.5zM332 616q50 0 75.5 25t25.5 56q0 25 -15 42
t-38 25.5t-49.5 9t-49.5 -7t-38 -23t-15 -38.5q0 -17 7 -32.5t20.5 -28t33 -20.5t43.5 -8z" />
    <glyph glyph-name="nine" unicode="9" horiz-adv-x="727" 
d="M365 917q38 0 79.5 -13.5t79.5 -40.5q2 29 23.5 44t48.5 15q14 0 27.5 -4t24.5 -12t18 -20t7 -28v-791q-1 -22 -12.5 -37t-27.5 -23t-34.5 -8t-34.5 7.5t-27.5 22.5t-12.5 39v231q-34 -20 -71 -29t-73 -10q-80 -2 -140.5 25t-101.5 72.5t-62.5 105t-22.5 121.5
q-2 62 16.5 122t57.5 107t98.5 75.5t139.5 28.5zM365 770q-41 0 -71 -15t-49.5 -39.5t-29 -56.5t-9.5 -65q1 -36 12.5 -70t33 -60t53.5 -41t74 -13q41 2 80 26.5t65 78.5v127q-12 29 -31 52.5t-41 40t-45 26t-42 9.5z" />
    <glyph glyph-name="colon" unicode=":" horiz-adv-x="275" 
d="M226 300q0 -16 -6.5 -30.5t-17.5 -25.5t-26 -17.5t-31 -6.5q-33 0 -56 24t-23 56q0 34 23 57t56 23t57 -23t24 -57zM226 535q0 -33 -24 -57t-57 -24t-56 24t-23 57t23 56t56 23t57 -23t24 -56z" />
    <glyph glyph-name="semicolon" unicode=";" horiz-adv-x="242" 
d="M178 -69q-11 -15 -26 -20.5t-29 -5.5q-21 0 -40.5 10.5t-30 27t-8.5 37.5t23 42q16 16 16 22q0 3 -4.5 10.5t-10.5 18.5q-12 22 -11 42t11 35t26.5 23.5t34.5 8.5t35.5 -9.5t29.5 -29.5q29 -50 29 -98q0 -60 -45 -114zM203 308q0 -16 -6.5 -30.5t-17.5 -25.5t-25.5 -17.5
t-30.5 -6.5q-17 0 -31.5 6.5t-25 17.5t-17 25.5t-6.5 30.5q0 34 23.5 57t56.5 23q16 0 30.5 -6t25.5 -17t17.5 -25.5t6.5 -31.5z" />
    <glyph glyph-name="less" unicode="&#x3c;" horiz-adv-x="455" 
d="M253 409q29 -17 58.5 -33t58.5 -35q13 -9 16 -24t-1.5 -32t-15 -33t-24 -27t-28.5 -14t-28 6h1q-45 26 -90.5 53.5t-90.5 53.5q-24 14 -37 35.5t-13 45.5q0 22 11.5 43.5t35.5 38.5v-1q45 31 91 62.5t91 62.5h-1q17 11 34 8t31 -13.5t24 -27t13 -33.5t-1 -32.5t-18 -23.5
z" />
    <glyph glyph-name="equal" unicode="=" horiz-adv-x="667" 
d="M164 265q-37 0 -54.5 23t-17.5 51q0 27 18 50t53 25h342q36 0 52 -23t16 -51q0 -15 -5 -29.5t-14 -25t-23 -16.5t-32 -3l6 -1h-341zM164 451q-37 0 -54.5 23t-17.5 50t18 50.5t53 25.5h342q36 0 52 -23t16 -51q0 -15 -5 -29.5t-14 -25t-23 -16.5t-32 -3l6 -1h-341z" />
    <glyph glyph-name="greater" unicode="&#x3e;" horiz-adv-x="486" 
d="M115 489q-21 13 -20.5 39.5t14.5 50t38.5 36t50.5 -3.5h-1q45 -31 91 -62.5t91 -62.5v1q24 -17 35.5 -38.5t11.5 -43.5q0 -24 -13 -45.5t-37 -35.5q-45 -26 -90.5 -53.5t-90.5 -53.5h1q-13 -9 -28 -6t-28.5 14t-24 27t-15 33t-1.5 32t16 24q29 19 58.5 35t58.5 33z" />
    <glyph glyph-name="question" unicode="?" horiz-adv-x="659" 
d="M214 407q0 30 8 47t20.5 25t29.5 10t35 3q3 0 6.5 0.5t6.5 0.5q19 4 44.5 14.5t48.5 29.5t39 46.5t16 65.5q0 21 -8 42t-24.5 37.5t-41.5 27.5t-59 13q-57 2 -94 -31t-55 -88v1q-8 -23 -25.5 -34t-38.5 -11q-16 0 -32 6.5t-27 18.5t-16 29t1 38q31 107 106 163.5
t178 56.5q70 -3 123 -27t88.5 -61.5t54 -85t19.5 -96.5q1 -33 -10.5 -78t-41 -89t-79 -80.5t-124.5 -53.5v-56q0 -32 -24 -50t-52 -18q-29 0 -50.5 16.5t-21.5 51.5v116zM368 79q0 -16 -6.5 -30.5t-17.5 -25.5t-25.5 -17.5t-30.5 -6.5q-17 0 -31.5 6.5t-25.5 17.5t-17 25.5
t-6 30.5q0 34 23 57t57 23q16 0 30.5 -6t25.5 -17t17.5 -25.5t6.5 -31.5z" />
    <glyph glyph-name="at" unicode="@" horiz-adv-x="1034" 
d="M629 137q38 11 59 -11t21 -56q0 -23 -12.5 -44.5t-38.5 -32.5l3 1q-79 -39 -191 -41q-89 -1 -158 35.5t-117.5 95t-77 132t-37.5 146.5q-3 27 -3 62q0 86 27 173t80 157.5t130.5 115t179.5 45.5q102 -5 183 -38.5t138 -92t88 -140t31 -180.5q1 -90 -17.5 -149.5
t-48.5 -94t-68.5 -48.5t-78.5 -14q-20 0 -45 10t-49 38q-32 -21 -69.5 -33.5t-69.5 -12.5q-44 0 -83.5 16.5t-69.5 48.5t-47.5 79t-16.5 109q1 66 16 118t41.5 88t62.5 54.5t79 18.5q62 0 128 -41q11 17 27.5 24.5t35.5 7.5q27 0 50 -18.5t25 -53.5q-3 -40 -4.5 -71.5
t-2.5 -57t-1.5 -46t-0.5 -38.5q0 -55 10.5 -76.5t22.5 -13.5t22 43t9 93q0 76 -17 137.5t-53 104.5t-92 66.5t-135 23.5q-67 0 -117.5 -33.5t-84.5 -85.5t-51 -116t-17 -124v-19t2 -20q5 -51 23.5 -102t49.5 -92t74.5 -66t99.5 -24q18 0 38.5 3.5t40.5 9t37.5 12.5t30.5 14z
M422 408q0 -49 23 -73.5t53 -24.5q26 0 51 19t38 54v67q-23 46 -50.5 68.5t-53.5 22.5t-44 -32t-17 -101z" />
    <glyph glyph-name="A" unicode="A" horiz-adv-x="851" 
d="M321 848q11 35 36 52t54 17q28 0 52.5 -16.5t38.5 -46.5l312 -751q9 -22 5 -41.5t-15.5 -34t-28.5 -23t-35 -8.5q-21 0 -39.5 11t-29.5 33q-23 56 -43.5 104t-44.5 105h-321q-21 -53 -42 -105.5t-41 -104.5q-10 -23 -28.5 -34t-39.5 -11q-18 0 -35.5 8t-29.5 22t-16 33
t5 41zM321 405h196q-14 33 -25 62.5t-22.5 60.5t-24 65t-30.5 76z" />
    <glyph glyph-name="B" unicode="B" horiz-adv-x="733" 
d="M113 915q22 0 41 -10t27 -30q43 22 86.5 32.5t93.5 8.5q60 -2 111 -21t88.5 -49.5t59 -71t21.5 -86.5q0 -61 -29 -111t-70 -84q38 -16 68.5 -42t51.5 -58.5t32.5 -68.5t11.5 -72q1 -65 -25 -110.5t-69 -75t-99.5 -44t-116.5 -18t-119.5 2t-109.5 16.5q-11 -12 -26 -18
t-31 -6q-27 0 -51 19t-26 55v775q0 16 7 29t18.5 21t25.5 12.5t29 4.5zM186 174q18 -7 51.5 -14t73.5 -11t82.5 -3t77.5 10t58 28t25 52q4 59 -28 95.5t-85 53t-120.5 15t-134.5 -17.5v-208zM186 539q19 1 48.5 4t62 9.5t66 17t60 25.5t44 36t18.5 49q0 17 -10 32.5
t-27.5 27.5t-41.5 19t-51 7q-48 -1 -89.5 -19t-79.5 -47v-161z" />
    <glyph glyph-name="C" unicode="C" horiz-adv-x="759" 
d="M713 679q3 -17 -3.5 -33t-19 -28.5t-28.5 -20t-32 -7.5q-22 0 -40.5 11.5t-27.5 38.5q-12 36 -31.5 60t-41.5 38t-43 20t-36 6q-55 -2 -96.5 -34.5t-69 -82t-41.5 -109t-14 -116.5q0 -40 9.5 -87t31.5 -88t57.5 -69t88.5 -29q29 -1 58 8t54 28t45.5 47.5t32.5 66.5
q7 33 29 50t48 17q15 0 30.5 -6.5t27.5 -18.5t18 -28.5t2 -36.5q-28 -92 -69.5 -146.5t-89 -84t-97 -38t-93.5 -8.5q-84 1 -147 35t-105 90.5t-63.5 130.5t-21.5 157q0 59 11.5 119t33.5 116t54 105t73.5 85.5t91.5 57t109 20.5q46 -3 93 -18t88 -43.5t73 -70.5t50 -98z" />
    <glyph glyph-name="D" unicode="D" horiz-adv-x="704" 
d="M36 841q0 37 24 55.5t53 18.5q17 0 33 -6.5t28 -19.5q72 28 138 27q82 -2 149.5 -46t115.5 -115t74.5 -161t26.5 -182q0 -80 -23 -151t-68.5 -126.5t-112 -92t-153.5 -46.5q-31 0 -69.5 5.5t-76.5 15.5q-11 -12 -27 -17.5t-33 -5.5q-16 0 -31 5t-26.5 14.5t-17.5 24
t-3 33.5zM317 147q52 3 91 28t65 63t39.5 85.5t13.5 96.5q0 61 -15.5 121.5t-44 109.5t-69 80t-89.5 33q-54 3 -116 -31v-562q32 -14 64 -20t61 -4z" />
    <glyph glyph-name="E" unicode="E" 
d="M131 -1q-45 0 -70.5 17.5t-25.5 69.5v734q0 51 20 74t63 23h454q37 -1 54.5 -26t16.5 -54.5t-19 -53t-52 -22.5h-380v-201h308q37 -1 54.5 -26t16.5 -54.5t-19 -53t-52 -22.5h-308v-249h378q37 -1 54.5 -26t16.5 -54.5t-19 -53t-52 -22.5h-439z" />
    <glyph glyph-name="F" unicode="F" 
d="M195 65q-2 -35 -26.5 -52t-52.5 -17q-29 0 -53 17.5t-24 50.5v755q0 51 20 74t63 23h453q37 -1 54.5 -26t16.5 -54.5t-19 -53t-52 -22.5h-380v-201h301q37 -1 54.5 -26t16.5 -54.5t-19 -53t-52 -22.5h-301v-338v0z" />
    <glyph glyph-name="G" unicode="G" horiz-adv-x="738" 
d="M615 473q30 0 48 -10t28 -26t13.5 -36.5t3.5 -40.5q-5 -112 -41 -182.5t-87.5 -110.5t-109.5 -54.5t-106 -13.5q-83 2 -145.5 36t-104.5 90.5t-63.5 130.5t-21.5 156q0 59 11.5 119.5t33.5 116.5t54 105.5t73.5 86t91.5 57t109 20.5q46 -3 93 -18t88 -43.5t73 -70.5
t50 -97q5 -31 -14.5 -52t-47 -28.5t-53.5 0.5t-35 34q-13 39 -32.5 63.5t-41 38t-42.5 18t-36 4.5q-55 -2 -96.5 -34.5t-69 -82.5t-41.5 -110t-14 -117q0 -50 10.5 -98t33.5 -86t58.5 -62.5t85.5 -26.5q30 -1 59.5 7t54 27.5t41.5 52t23 81.5h-203q-31 1 -49 25t-19.5 52.5
t14.5 52.5t54 26h269z" />
    <glyph glyph-name="H" unicode="H" horiz-adv-x="776" 
d="M547 400h-323v-328q0 -38 -23.5 -54.5t-52.5 -16.5q-15 0 -30.5 5t-26.5 14.5t-17 24t-3 33.5l-1 -6v336q-20 10 -29.5 29t-9.5 40t9.5 39.5t29.5 29.5v298q0 38 23 56t53 18q29 0 52.5 -18.5t25.5 -54.5v-290h323v289q0 38 24 56t53 18t52.5 -18.5t25.5 -54.5v-296
q21 -9 31 -29t10 -42q0 -23 -10.5 -43t-30.5 -30v-333q0 -38 -24 -54.5t-53 -16.5q-16 0 -31 5t-26 14.5t-17 24t-3 33.5l-1 -6v328z" />
    <glyph glyph-name="I" unicode="I" horiz-adv-x="702" 
d="M268 154v608h-162q-38 0 -56.5 23.5t-18.5 52.5t19 52.5t55 25.5h489q38 0 54.5 -23t16.5 -53q0 -15 -5 -29.5t-14.5 -25.5t-23.5 -18t-32 -5h4h-169v-608h164q38 0 56.5 -23.5t18.5 -52.5t-19 -52.5t-55 -25.5h-482q-38 0 -54.5 23t-16.5 53q0 15 5 29.5t14 25.5
t22 17.5t30 5.5h160z" />
    <glyph glyph-name="J" unicode="J" horiz-adv-x="639" 
d="M438 840q0 20 6.5 34.5t17.5 24t25 14t28 4.5q29 0 53 -18.5t26 -55.5q3 -102 5.5 -197.5t2.5 -190.5q0 -53 -4.5 -106.5t-16.5 -103t-33.5 -93t-55 -76.5t-81.5 -53t-112 -23q-50 -2 -89.5 10.5t-71 38t-55 62.5t-41.5 83q-9 26 -4.5 45.5t16.5 32.5t29.5 19t35 5
t32 -9.5t21.5 -24.5q8 -25 21.5 -45t29.5 -34t33.5 -21t35.5 -7q33 0 57.5 15.5t41 39.5t26.5 55.5t15.5 65t8 67t3.5 60.5q4 97 1.5 192t-7.5 190z" />
    <glyph glyph-name="K" unicode="K" horiz-adv-x="724" 
d="M44 847q0 19 6.5 33t17.5 23t25 13.5t29 4.5q14 0 27.5 -4.5t24.5 -14t18.5 -23t8.5 -31.5v-267q44 36 89.5 77t91.5 83t91 83t89 77q30 22 59 16t46.5 -27.5t18 -52.5t-24.5 -58l-332 -297q88 -88 175.5 -174t168.5 -171q16 -16 18.5 -35.5t-3.5 -37.5t-19.5 -32.5
t-31 -21.5t-36 -4.5t-35.5 19.5q-90 90 -152 151.5t-102.5 101t-62.5 60.5t-32.5 30.5t-13 11l-2.5 1.5v-311q0 -38 -24.5 -54.5t-53.5 -16.5q-16 0 -31 5t-26.5 14.5t-17.5 22.5t-4 29v777z" />
    <glyph glyph-name="L" unicode="L" 
d="M134 -1q-45 0 -70.5 17.5t-25.5 69.5v762q1 34 23.5 51.5t50.5 18.5t52.5 -15.5t29.5 -50.5v-697h383q25 -1 41 -13t23.5 -30t6 -38.5t-10.5 -37.5t-25.5 -27.5t-40.5 -8.5l6 -1h-443z" />
    <glyph glyph-name="M" unicode="M" horiz-adv-x="864" 
d="M509 178v1q-10 -23 -33 -35.5t-46 -12.5q-24 0 -45 11.5t-32 35.5l-152 362v-472q0 -38 -24.5 -55t-53.5 -15.5t-53.5 21t-24.5 55.5v771q1 33 22.5 52t50.5 23t58.5 -7t44.5 -38l210 -460q52 115 104.5 229.5t103.5 229.5q14 25 43 36.5t58 8.5t52 -22t25 -53v-775
q0 -22 -11.5 -37.5t-29 -23.5t-37.5 -9t-37.5 6.5t-29 23t-11.5 40.5v471z" />
    <glyph glyph-name="N" unicode="N" horiz-adv-x="737" 
d="M37 843q0 38 22 55.5t51 17.5q21 0 41 -10t33 -29l357 -551v517q0 19 6.5 33t17.5 23t25 13.5t29 4.5q28 0 52 -18.5t26 -54.5v-772q0 -36 -22.5 -53.5t-52.5 -17.5q-20 0 -39.5 9.5t-32.5 27.5l-356 550q0 -57 0.5 -123.5t1 -134.5t1 -134.5t0.5 -123.5q0 -38 -24 -54.5
t-53 -16.5q-16 0 -31 5t-26.5 14t-17.5 22t-4 30z" />
    <glyph glyph-name="O" unicode="O" horiz-adv-x="777" 
d="M390 0q-86 0 -153 40.5t-113 105t-70 145t-24 160.5q0 83 22.5 166t67.5 149.5t112.5 108t157.5 41.5q59 0 108.5 -20t89 -54t69 -80.5t49 -100t29 -111t8.5 -113.5q-1 -83 -23.5 -161.5t-66.5 -139.5t-110 -98.5t-153 -37.5zM391 154q49 0 86 23.5t61.5 62t37 88.5
t13.5 103q0 56 -12 114.5t-37.5 106t-63 77.5t-88.5 30q-50 0 -87.5 -28t-62.5 -73t-37.5 -100.5t-12.5 -109.5q0 -42 10.5 -93.5t34.5 -96t63 -74.5t95 -30z" />
    <glyph glyph-name="P" unicode="P" horiz-adv-x="723" 
d="M115 924q28 0 50 -15.5t24 -46.5q39 27 81 41.5t83 15.5q82 2 144.5 -26.5t104.5 -79t62.5 -119t19.5 -146.5q-2 -93 -44.5 -160.5t-112 -103t-157.5 -36.5t-181 40v-227q0 -20 -11 -34t-27.5 -22t-36.5 -9t-37 5.5t-29.5 21t-14.5 37.5v797q0 33 26 50t56 17zM355 764
q-21 -1 -44.5 -10.5t-46 -27t-42.5 -41.5t-33 -54v-115q15 -40 45 -64.5t65.5 -35t73.5 -6.5t70 20.5t54 45t26 68.5q4 46 -5 86t-30.5 70t-55 47t-77.5 17z" />
    <glyph glyph-name="Q" unicode="Q" horiz-adv-x="775" 
d="M554 41q-34 -20 -73.5 -30.5t-84.5 -10.5q-89 0 -156 40t-112.5 104.5t-68.5 145.5t-23 162q0 83 22.5 166t67.5 149.5t112.5 108t157.5 41.5q85 0 149.5 -41t108.5 -106t67.5 -147t26.5 -163q0 -39 -5.5 -80.5t-15 -82t-24 -77.5t-33.5 -67q9 -15 19 -30t17 -29
q8 -17 3.5 -33.5t-17 -30t-30.5 -23t-35.5 -12.5t-32.5 1.5t-22 18.5zM397 154q21 0 40 5t36 13q-29 47 -58.5 93.5t-58.5 93.5l1 -1q-15 22 -13.5 43.5t13 38t30 26.5t38.5 10q18 0 35 -7.5t28 -25.5l87 -139q21 68 20 144q-2 54 -15 109.5t-38.5 100.5t-62.5 73.5
t-85 28.5q-50 0 -87.5 -28.5t-62.5 -73.5t-37.5 -101t-12.5 -110q0 -42 11 -93t35 -95.5t62.5 -74.5t94.5 -30z" />
    <glyph glyph-name="R" unicode="R" horiz-adv-x="696" 
d="M114 921q30 0 52.5 -17.5t21.5 -51.5q41 28 83.5 43.5t86.5 20.5l-3 -1q13 2 23 2h19q62 0 113 -20.5t87 -55t56 -80t20 -94.5q0 -56 -29.5 -113t-90.5 -104q-38 -27 -90.5 -51t-103.5 -36l268 -223q26 -24 25 -53.5t-17.5 -51.5t-43.5 -31t-54 9q-53 39 -94.5 73.5
t-80.5 68.5t-80.5 68.5t-93.5 73.5v-223q0 -38 -23.5 -56.5t-53.5 -18.5q-29 0 -52.5 19t-25.5 55v781q0 16 7 29t18.5 21t26 12.5t29.5 4.5zM188 495q82 0 156 21t121 59h-1q27 23 40 47t13 48q0 19 -8 36.5t-23 30.5t-36.5 21t-48.5 8h-10.5t-13.5 -1q-27 -4 -54.5 -14.5
t-52.5 -28t-46 -41t-36 -53.5v-133z" />
    <glyph glyph-name="S" unicode="S" horiz-adv-x="707" 
d="M185 283q9 -35 26 -60.5t37.5 -42t44 -25t46.5 -8.5q37 0 68.5 10t55 27t38 40t17.5 49v-1q3 34 -7 62t-30 48.5t-49.5 31t-63.5 9.5q-54 -2 -111.5 4.5t-105 30t-77.5 67.5t-30 118q0 50 23.5 99.5t68 88.5t108.5 63t144 24q58 -4 106 -24.5t83.5 -53.5t57.5 -76.5
t28 -94.5q4 -22 -5 -38.5t-25 -27t-36.5 -14t-39 1t-33 18t-17.5 36.5q-5 29 -18.5 51.5t-32 38.5t-41.5 24.5t-45 9.5q-79 2 -123.5 -31t-47.5 -90q-2 -32 20 -46.5t52.5 -20.5t63.5 -6t54 -2q64 -5 118 -26t93 -59t59 -93t16 -127q-3 -55 -29 -104t-71 -86.5t-107 -59
t-137 -20.5q-50 0 -98 16t-88.5 49t-71 83.5t-44.5 119.5q0 43 24 65t54 22q27 0 50 -17.5t28 -52.5z" />
    <glyph glyph-name="T" unicode="T" horiz-adv-x="695" 
d="M424 738v-665q-1 -37 -26 -54.5t-54.5 -16.5t-53 19t-22.5 52v665h-162q-38 0 -56.5 23.5t-18.5 52.5t19 52.5t55 25.5h489q38 0 54.5 -23t16.5 -53q0 -15 -5 -30t-15 -26t-24.5 -17.5t-33.5 -3.5l7 -1h-170z" />
    <glyph glyph-name="U" unicode="U" horiz-adv-x="719" 
d="M660 237q-16 -58 -45.5 -101.5t-68 -73t-83.5 -45.5t-92 -17q-49 -2 -97.5 12.5t-90 44.5t-74 75t-49.5 105q-10 38 -16.5 89t-10 108t-4.5 115t-1 110v177q-1 19 5 34.5t17.5 25.5t26.5 15.5t31 5.5q15 0 30 -5t26.5 -15t17.5 -25.5t5 -35.5q0 -32 -1 -82.5t-1 -119.5
q0 -47 1 -96.5t3.5 -96t7 -87.5t12.5 -69q18 -65 61 -97t91 -31q24 0 47.5 8.5t43.5 24t35.5 39.5t23.5 56q7 28 12 67t7 83.5t3 92.5t1 93v106t-1 109q-2 20 4.5 35.5t17.5 25.5t26 15t31 5t31 -5.5t26 -15.5t17 -25.5t5 -34.5v-177q0 -53 -1 -111.5t-4 -115t-9.5 -107.5
t-16.5 -88z" />
    <glyph glyph-name="V" unicode="V" horiz-adv-x="846" 
d="M524 65v2q-11 -35 -36 -52.5t-54 -17.5q-28 0 -52.5 16.5t-38.5 47.5l-307 756v-1q-11 23 -7.5 42.5t15.5 33.5t30 22t36 8q21 0 40 -10.5t29 -33.5l251 -631q58 152 116 313.5t116 313.5q10 23 29 33.5t40 10.5q19 0 36.5 -8t29 -22t15 -33.5t-5.5 -41.5l1 1z" />
    <glyph glyph-name="W" unicode="W" horiz-adv-x="1158" 
d="M584 400q-24 -83 -48.5 -165t-48.5 -165q-15 -36 -40 -53t-52 -17t-51 15t-37 45l-246 754q-10 22 -6.5 41.5t15.5 34t30 22.5t36 8q21 0 40.5 -12t30.5 -38l184 -587l117 402q8 29 30 44t45 15q25 0 45.5 -15t29.5 -44l119 -405q23 70 46 145t46 150.5t46 150.5t46 146
q11 26 30.5 38t40.5 12q18 0 36 -8t30 -22t15 -33.5t-7 -42.5l1 4q-30 -91 -61 -187t-62 -193.5t-62 -194t-61 -186.5q-13 -30 -37 -45t-51 -15t-52 17t-40 53z" />
    <glyph glyph-name="X" unicode="X" horiz-adv-x="758" 
d="M282 465q-60 82 -119.5 164.5t-119.5 164.5q-14 21 -13 43t12 39t29 28t38 11q17 0 33 -8t28 -25l209 -285q52 72 104.5 142.5t104.5 142.5q11 17 27 25t33 8q20 0 38.5 -11t29.5 -28t12 -39t-13 -43l-240 -329q29 -41 60.5 -85.5t63 -89.5l63 -90t60.5 -85
q10 -13 10 -30t-7.5 -33.5t-21.5 -29t-31.5 -18t-37.5 -0.5t-40 25q-30 40 -56 77.5t-51.5 74.5t-51.5 75t-56 79q-26 -35 -48.5 -71t-46 -73.5t-50 -78.5t-60.5 -86q-24 -32 -53 -30.5t-51 20.5t-30 48.5t9 52.5z" />
    <glyph glyph-name="Y" unicode="Y" horiz-adv-x="778" 
d="M304 365q-34 62 -68 116t-68 106.5t-68 106.5t-68 116q-10 23 -6.5 42.5t15 34t29.5 23t36 8.5q20 0 38 -9.5t29 -30.5l214 -330l209 328q11 23 30 33t40 10q19 0 37 -8.5t29.5 -23.5t14 -35.5t-7.5 -44.5l-279 -442v-302q0 -38 -24 -54.5t-53 -16.5q-16 0 -31 5
t-26.5 14t-17.5 22t-4 30v302z" />
    <glyph glyph-name="Z" unicode="Z" horiz-adv-x="722" 
d="M141 4q-59 0 -87.5 24.5t-28.5 68.5q0 35 31 86l415 581h-376q-38 2 -56 25.5t-18 52.5t18 52.5t56 23.5h524q36 0 55 -21t19 -54q0 -37 -27 -74l-433 -609q97 0 192.5 -0.5t192.5 -0.5q38 0 55 -23.5t17 -53.5q0 -15 -5 -30t-15 -26t-24.5 -17.5t-33.5 -3.5l6 -1h-477z
" />
    <glyph glyph-name="bracketleft" unicode="[" horiz-adv-x="409" 
d="M153 -166q-21 0 -38 3.5t-29 13t-18.5 25.5t-6.5 41v954q0 50 19 71.5t61 21.5h150q35 0 51 -23t16 -50q0 -15 -5 -29.5t-14 -25.5t-22.5 -16.5t-31.5 -3.5l6 -1h-81v-832h79q36 0 52 -23t16 -51q0 -15 -5 -29.5t-14 -25t-23 -16.5t-32 -3l6 -1h-136z" />
    <glyph glyph-name="backslash" unicode="\" horiz-adv-x="578" 
d="M30 807q-10 21 -7 40.5t14 34t28.5 23t35.5 8.5t34.5 -8.5t27.5 -28.5l382 -776q10 -21 6.5 -40t-15.5 -33t-30 -22.5t-35 -8.5q-20 0 -36 10t-24 31z" />
    <glyph glyph-name="bracketright" unicode="]" horiz-adv-x="412" 
d="M130 -166l6 1q-18 -3 -32 3t-23 16.5t-14 25t-5 29.5q0 28 16 51t52 23h79v832h-81l6 1q-18 -2 -31.5 3.5t-22.5 16.5t-14 25.5t-5 29.5q0 27 16 50t51 23h150q42 0 61 -21.5t19 -71.5v-954q0 -25 -6.5 -41t-18.5 -25.5t-29 -13t-38 -3.5h-136z" />
    <glyph glyph-name="asciicircum" unicode="^" horiz-adv-x="483" 
d="M173 337q-13 -16 -28.5 -18t-30 4.5t-26.5 19.5t-19 27t-6.5 28t10.5 22l103 94q37 33 74 33q21 0 39 -8.5t36 -24.5l88 -81q22 -23 16 -48t-23.5 -43t-39.5 -24.5t-32 7.5q-19 17 -43.5 40t-43.5 40z" />
    <glyph glyph-name="underscore" unicode="_" horiz-adv-x="555" 
d="M109 -52q-37 0 -54.5 23t-17.5 51q0 27 18 50t53 25h342q36 0 52 -23t16 -51q0 -15 -5 -29.5t-14 -25t-23 -16.5t-32 -3l6 -1h-341z" />
    <glyph glyph-name="grave" unicode="`" horiz-adv-x="258" 
d="M42 899q-9 19 -6 37.5t13.5 32.5t27 23t33.5 9q16 0 31.5 -8t27.5 -25l46 -74q11 -17 8.5 -36.5t-13 -35.5t-27.5 -26.5t-34 -10.5t-32 7.5t-25 26.5l2 -2q-12 19 -24.5 38t-24.5 38z" />
    <glyph glyph-name="a" unicode="a" horiz-adv-x="717" 
d="M587 -5q-27 0 -48 15t-23 44q-38 -26 -78 -39.5t-78 -14.5q-80 -3 -140 27.5t-99.5 82.5t-58.5 118.5t-17 135.5q3 68 24.5 132.5t62.5 115t101 80.5t139 28q37 -1 75 -10.5t73 -30.5q8 24 27.5 35.5t42.5 11.5q27 0 50 -17.5t25 -52.5v-597q0 -16 -7 -28t-18 -20
t-25 -12t-28 -4zM198 353q0 -39 9.5 -76t29 -66t49.5 -46.5t71 -17.5q19 0 42 9t45 25.5t41 40t31 52.5v191q-26 54 -65 79t-80 27q-42 2 -74 -16.5t-54 -49.5t-33.5 -71t-11.5 -81z" />
    <glyph glyph-name="b" unicode="b" horiz-adv-x="707" 
d="M357 -7q-39 1 -79.5 14.5t-77.5 39.5q-2 -29 -23.5 -44t-47.5 -15q-14 0 -28 4t-25 12t-18 20t-7 28v796q2 35 25.5 53t50.5 18t50 -17.5t23 -53.5v-173q34 20 71 29t74 10q81 2 142.5 -30.5t102.5 -86t61.5 -122t20.5 -138.5q0 -67 -20.5 -130t-60.5 -111t-98.5 -76.5
t-135.5 -26.5zM200 268q12 -29 31 -52.5t41 -40t44 -25.5t42 -9q40 0 70 16.5t50 44t30 63.5t10 74q0 42 -11 83.5t-32.5 73.5t-54 51t-74.5 17t-81 -27t-65 -79v-190z" />
    <glyph glyph-name="c" unicode="c" 
d="M615 481q0 -40 -23 -59.5t-52 -19.5q-24 0 -46 15.5t-28 48.5q-9 45 -32 73.5t-63 30.5q-43 2 -75 -17t-54 -51t-32.5 -73t-10.5 -83q0 -39 10 -75t29.5 -63.5t49.5 -44.5t70 -17q21 0 42.5 7t40 22t33 39t23.5 57q5 33 27 49.5t48 16.5q29 0 51.5 -20.5t22.5 -62.5
q-14 -65 -42.5 -113t-67 -79t-84 -46.5t-92.5 -16.5q-78 -2 -137.5 27t-99 78.5t-59.5 114t-19 132.5q1 69 22.5 135t63 118t102.5 83.5t139 31.5q46 -3 87.5 -21t74 -49t54 -72.5t27.5 -90.5v-5z" />
    <glyph glyph-name="d" unicode="d" horiz-adv-x="707" 
d="M580 -12q-27 0 -48 15t-23 44q-38 -26 -78.5 -39.5t-78.5 -14.5q-76 -2 -134.5 26t-98 75.5t-60.5 109.5t-22 128q-1 71 19 140t61 123.5t103 87.5t144 31q36 -1 73.5 -10t71.5 -29v178q0 36 23 53.5t50 17.5t50.5 -18t25.5 -53v-801q0 -16 -7 -28t-18 -20t-25 -12
t-28 -4zM351 141q19 0 41.5 9t44 25.5t41 40t31.5 52.5v190q-26 54 -65 79t-81 27q-44 2 -76.5 -18t-54.5 -53t-32.5 -75t-8.5 -85q1 -38 11 -72.5t30 -61.5t49.5 -42.5t69.5 -15.5z" />
    <glyph glyph-name="e" unicode="e" horiz-adv-x="739" 
d="M251 337q1 -37 11.5 -71.5t31 -61t50.5 -42.5t71 -16q21 0 43 6t41 17.5t33.5 28.5t21.5 40q5 33 27 49.5t48 16.5q29 0 51.5 -21t22.5 -63q-14 -53 -43 -94t-67.5 -69t-84 -43t-92.5 -15q-77 -2 -136 26t-99 75.5t-61 109.5t-22 128q-29 6 -42.5 27t-13.5 46q0 27 18 50
t53 25h6q16 46 43.5 88t65 73.5t85.5 50t106 18.5q65 0 113.5 -25.5t81.5 -66t52.5 -91t25.5 -99.5q2 -21 -1.5 -39t-16 -31t-35.5 -20t-60 -7h-328zM421 572q-24 0 -46 -7.5t-40 -19.5t-31 -27.5t-19 -31.5h243q-3 15 -13 30t-24.5 27.5t-32.5 20.5t-37 8z" />
    <glyph glyph-name="f" unicode="f" horiz-adv-x="795" 
d="M316 376v-307q0 -36 -23 -53.5t-50 -17.5t-50.5 18t-25.5 53q0 51 0.5 95t0.5 83q0 35 -0.5 66t-0.5 63h-42q-37 0 -54 22.5t-17 50.5q0 27 17.5 50.5t52.5 25.5h48q6 65 23.5 133t51.5 124.5t87 93.5t130 40q47 0 93.5 -14t84.5 -39.5t64 -61t34 -80.5q0 -20 -7 -35
t-18 -25t-25 -15t-27 -5q-26 0 -46.5 14.5t-25.5 40.5q-11 40 -46 56.5t-76 15.5q-40 -1 -67 -27t-44 -63t-25.5 -79t-12.5 -74h288q36 0 52 -23t16 -51q0 -15 -5 -29.5t-14 -25.5t-23 -16.5t-32 -3.5h6h-292z" />
    <glyph glyph-name="g" unicode="g" horiz-adv-x="721" 
d="M367 -116q23 0 47 9.5t44 29.5t33 50.5t13 72.5q-35 -23 -72.5 -34t-72.5 -12q-78 -2 -137.5 27.5t-99 79.5t-59.5 115t-19 133q1 69 22.5 135.5t62.5 118t101.5 82.5t140.5 29q38 -1 75.5 -10.5t72.5 -30.5q8 24 28 35.5t43 11.5q27 0 50 -17.5t25 -52.5v-100t1 -97
q1 -35 1 -78.5v-75.5q0 -135 -9 -246q-7 -91 -35 -150t-68 -94t-89 -49t-98 -15q-47 -1 -89 3.5t-79 18t-67.5 37.5t-52.5 63v-1q-16 29 -4 54t36 37.5t51.5 9t42.5 -32.5q13 -15 32.5 -25.5t41.5 -17.5t44.5 -10t42.5 -3zM358 147q19 0 41.5 9t44.5 25.5t41 40t31 52.5v191
q-26 54 -65 79t-81 27t-74.5 -17t-54 -50.5t-32.5 -72.5t-11 -83q0 -39 10 -75t30 -64.5t49.5 -45t70.5 -16.5z" />
    <glyph glyph-name="h" unicode="h" horiz-adv-x="643" 
d="M194 63q0 -36 -22.5 -52t-50.5 -16q-15 0 -29.5 5t-25.5 14t-16.5 23t-3.5 32v-6v787q0 36 22.5 53.5t50.5 17.5q27 0 50 -18t25 -53v-190q34 14 72 22t73 4q50 -6 89.5 -25.5t68.5 -50.5t49.5 -70t32.5 -84q20 -73 25 -140t5 -139v-109q1 -19 -5 -33.5t-17 -24.5
t-25.5 -15t-29.5 -5t-29 5t-25 14.5t-17.5 24t-4.5 34.5q0 10 0.5 21.5t0.5 25.5q1 17 1 36v41q0 58 -4.5 111t-18.5 107q-14 51 -38.5 86t-66.5 39q-39 4 -76 -12t-60 -53v-407z" />
    <glyph glyph-name="i" unicode="i" horiz-adv-x="234" 
d="M41 643q0 36 23 53.5t51 17.5q27 0 50 -18t25 -53v-574q0 -36 -23 -52t-50 -16q-15 0 -30 5t-25.5 14t-16.5 22.5t-3 31.5l-1 -5v574zM35 833q0 33 23.5 57t56.5 24t56 -24t23 -57t-23 -56t-56 -23t-56.5 23t-23.5 56z" />
    <glyph glyph-name="j" unicode="j" horiz-adv-x="229" 
d="M45 641q0 37 23 54.5t51 17.5q27 0 50 -17.5t25 -52.5v-49v-55t1 -52q1 -29 1.5 -58t0.5 -58v-88q0 -53 -3 -118.5t-13.5 -130t-31.5 -121t-57 -92.5q-35 -35 -88.5 -52.5t-120.5 -16.5q-19 1 -34 8t-25 17.5t-15 23.5t-5 26q0 28 20.5 51t60.5 22q28 -1 56 6t46 25
q64 67 64 376q0 14 -0.5 29t-0.5 31zM42 836q0 16 6.5 30.5t17.5 25.5t25.5 17.5t30.5 6.5q17 0 31.5 -6.5t25.5 -17.5t17 -25.5t6 -30.5q0 -34 -23 -57t-57 -23q-16 0 -30.5 6t-25.5 17t-17.5 25.5t-6.5 31.5z" />
    <glyph glyph-name="k" unicode="k" horiz-adv-x="639" 
d="M201 261v-192q0 -36 -23 -52t-50 -16q-15 0 -30 5t-25.5 14t-16.5 22.5t-3 31.5l-1 -5v781q0 36 23 53.5t51 17.5q27 0 50 -17.5t25 -52.5v-306q69 39 137.5 80.5t135.5 80.5q21 8 39.5 4t32 -15.5t21 -28.5t7.5 -34q0 -21 -9.5 -38t-32.5 -27q-40 -23 -72.5 -42
t-63.5 -37t-63.5 -37.5t-72.5 -42.5q80 -69 153.5 -133.5t154.5 -133.5q33 -20 33 -60q0 -18 -9 -35t-24.5 -28.5t-35.5 -14t-42 8.5z" />
    <glyph glyph-name="l" unicode="l" horiz-adv-x="227" 
d="M42 850q0 36 23 53.5t51 17.5q27 0 50 -17.5t25 -52.5v-782q0 -36 -23 -52t-50 -16q-15 0 -30 5t-25.5 14t-16.5 22.5t-3 31.5l-1 -5v781z" />
    <glyph glyph-name="m" unicode="m" horiz-adv-x="1062" 
d="M701 558q-27 0 -54.5 -14.5t-53.5 -45.5q2 -5 3.5 -9.5t2.5 -9.5q20 -72 25 -151t5 -151v-109q1 -19 -5 -33.5t-17 -24.5t-25.5 -15t-29.5 -5t-29 5t-25 14.5t-17.5 24t-4.5 34.5v-4q0 11 0.5 24t0.5 27q1 17 1 36v41q0 58 -4.5 122.5t-18.5 118.5q-14 51 -38.5 86
t-66.5 39q-39 4 -76 -12t-60 -53v-430q0 -36 -22.5 -52t-50.5 -16q-15 0 -29.5 5t-25.5 14t-16.5 23t-3.5 32v-6v586q0 37 22.5 54t50.5 17q20 0 39 -10.5t29 -30.5q35 17 74 25.5t78 4.5q49 -5 90 -25.5t69 -50.5q45 40 93 58.5t95 18.5q46 0 88 -16.5t77.5 -47t62 -73
t40.5 -94.5q20 -73 25 -151.5t5 -150.5v-113q1 -35 -23 -54.5t-54 -19.5q-15 0 -29 5t-25 14.5t-17.5 24t-4.5 34.5q0 10 0.5 21.5t0.5 25.5q1 17 1 36v41q0 58 -4.5 122.5t-18.5 118.5q-17 60 -52 92.5t-77 32.5z" />
    <glyph glyph-name="n" unicode="n" horiz-adv-x="641" 
d="M188 63q0 -36 -22.5 -52t-50.5 -16q-15 0 -29.5 5t-25.5 14t-16.5 23t-3.5 32v-6v586q0 37 22.5 54t50.5 17q20 0 39 -10.5t29 -30.5q35 17 74 25.5t78 4.5q50 -6 89.5 -25.5t68.5 -50.5t49.5 -70t32.5 -84q20 -73 25 -151.5t5 -150.5v-113q1 -35 -23 -54.5t-54 -19.5
q-15 0 -29 5t-25 14.5t-17.5 24t-4.5 34.5q0 10 0.5 21.5t0.5 25.5q1 17 1 36v41q0 58 -4.5 122.5t-18.5 118.5q-14 51 -38.5 86t-66.5 39q-39 4 -76 -12t-60 -53v-430z" />
    <glyph glyph-name="o" unicode="o" horiz-adv-x="738" 
d="M374 0q-73 0 -133 29t-102.5 78.5t-65.5 116t-23 140.5q0 67 20 131t59.5 114t98.5 80.5t138 30.5q84 0 146 -34t102.5 -88.5t59 -124t15.5 -139.5q-3 -65 -24.5 -125t-60.5 -106.5t-96.5 -74.5t-133.5 -28zM375 147q40 0 69.5 16t49.5 43t30.5 61.5t11.5 71.5
q1 42 -9 83.5t-31.5 74.5t-54.5 53.5t-76 20.5q-40 0 -70.5 -20.5t-51 -52.5t-30.5 -72.5t-8 -79.5q1 -37 13 -72.5t33.5 -63.5t52.5 -45.5t71 -17.5z" />
    <glyph glyph-name="p" unicode="p" horiz-adv-x="710" 
d="M125 727q26 0 47 -15t24 -44q37 26 77 39.5t79 14.5q80 3 140 -28t100 -82.5t59 -118.5t16 -136q-3 -68 -24.5 -132.5t-62.5 -114.5t-100.5 -80t-138.5 -28q-37 1 -74 9.5t-71 28.5v-221q0 -37 -23 -54t-51 -17q-27 0 -50 17.5t-25 52.5v845q0 16 7 28t18 20t25 12t28 4z
M355 575q-20 0 -43 -9.5t-44.5 -26t-40.5 -39.5t-31 -52v-191q26 -54 65 -79t80 -27q39 -2 69.5 15.5t52 46.5t34.5 66t16 75q1 40 -7.5 79.5t-28 71t-50 51t-72.5 19.5z" />
    <glyph glyph-name="q" unicode="q" horiz-adv-x="713" 
d="M357 722q38 -1 78.5 -14.5t78.5 -39.5q2 29 23 44t48 15q14 0 28 -4t25 -12t18 -20t7 -28v-845q-2 -35 -25.5 -52.5t-49.5 -17.5q-28 0 -51 17t-23 54v221q-34 -20 -71 -28.5t-74 -9.5q-77 -2 -137.5 28.5t-102.5 82t-64.5 119.5t-22.5 142q0 67 20 131t60 113t98.5 78
t136.5 26zM355 575q-41 0 -70.5 -17t-49.5 -45.5t-29.5 -65.5t-9.5 -75q0 -35 10 -74.5t31 -72.5t53.5 -54.5t77.5 -19.5q42 2 81 27t65 79v191q-12 29 -31.5 52t-41 39.5t-44.5 26t-42 9.5z" />
    <glyph glyph-name="r" unicode="r" horiz-adv-x="597" 
d="M561 598q13 -21 1.5 -44.5t-34 -39.5t-49.5 -18.5t-45 18.5q-40 48 -88 52q-20 2 -43 -2t-45 -13t-40.5 -23.5t-30.5 -33.5v-431q0 -36 -22.5 -52t-50.5 -16q-15 0 -29.5 4.5t-25.5 13.5t-16.5 21.5t-3.5 28.5v586q0 37 22.5 54t50.5 17q21 0 39.5 -10.5t28.5 -31.5
q49 26 89 32.5t84 4.5q33 -1 64.5 -12t59 -27.5t49 -36.5t35.5 -41z" />
    <glyph glyph-name="s" unicode="s" horiz-adv-x="691" 
d="M186 219q5 -26 20.5 -41.5t36 -23.5t44.5 -10.5t46 -2.5q24 0 52.5 5t52.5 17.5t39 33t13 51.5q-2 25 -25 36t-53.5 14t-60.5 1t-46 -2q-59 0 -103.5 12.5t-75 34.5t-47 53t-20.5 68q-5 48 17.5 95.5t64 84t99 58.5t124.5 19q45 -2 86 -16.5t73.5 -37t54 -52t27.5 -60.5
q5 -29 -10.5 -47.5t-38 -25.5t-45 -1.5t-31.5 25.5q-5 12 -13.5 24t-23 22.5t-38 18t-58.5 8.5q-20 0 -45.5 -6.5t-47 -19.5t-36 -31.5t-12.5 -40.5q8 -42 104 -42q63 0 122.5 -4.5t105.5 -23t73.5 -56t27.5 -102.5q0 -60 -27 -107.5t-71 -80t-100.5 -50t-115.5 -17.5
q-47 0 -94 9.5t-87 33.5t-68.5 64t-38.5 100q0 40 23 60t52 20q26 0 47.5 -16.5t26.5 -51.5v1v0z" />
    <glyph glyph-name="t" unicode="t" horiz-adv-x="648" 
d="M398 578v-509q0 -36 -23 -52t-51 -16q-15 0 -29.5 4.5t-25.5 13.5t-16.5 21.5t-3.5 28.5v509h-134q-36 0 -53.5 22t-17.5 51q0 28 17.5 50t52.5 24h135v123q0 36 23 53.5t51 17.5q27 0 50 -17.5t25 -52.5v-124h146q35 0 51 -22t16 -50q0 -15 -5 -29t-14 -25t-22.5 -17
t-31.5 -3l6 -1h-146z" />
    <glyph glyph-name="u" unicode="u" horiz-adv-x="659" 
d="M459 647q0 35 23 51t50 16q15 0 29.5 -4.5t25.5 -14t16.5 -23t3.5 -31.5l1 6v-587q0 -36 -23 -53.5t-51 -17.5q-21 0 -39.5 10.5t-28.5 30.5q-35 -17 -74.5 -25t-77.5 -5q-50 6 -89.5 26t-69 50.5t-49.5 70t-32 84.5q-20 72 -25 150.5t-5 150.5v113q-1 36 23 55t54 19
q15 0 29 -4.5t25 -14.5t17 -24.5t5 -33.5q0 -11 -0.5 -22.5t-0.5 -24.5q-1 -18 -1 -37v-40q0 -58 4.5 -122.5t18.5 -119.5v1q14 -51 38.5 -86.5t66.5 -39.5q38 -4 75.5 13t60.5 52v431z" />
    <glyph glyph-name="v" unicode="v" horiz-adv-x="712" 
d="M669 612q-60 -142 -101.5 -239.5t-68.5 -161t-42 -98.5t-22 -51.5t-9 -20t-2 -4.5q-9 -22 -28 -31t-40 -9q-20 0 -39 9t-28 31v-1q-61 144 -122 287t-123 287q-8 21 -4.5 39t14.5 32t27.5 22t33.5 8q20 0 38 -9.5t28 -32.5l175 -409l177 411q9 22 27 32t38 10q18 0 35 -8
t28 -21.5t14.5 -32t-6.5 -39.5z" />
    <glyph glyph-name="w" unicode="w" horiz-adv-x="1062" 
d="M534 277q-25 -60 -50 -117.5t-51 -117.5q-8 -23 -28 -34t-42 -11q-20 0 -39 9t-28 31v-1q-61 144 -122 287t-123 287q-8 21 -4.5 39t14.5 32t27.5 22t33.5 8q20 0 38 -9.5t28 -32.5l175 -409l52 118t51 118q10 20 29 31.5t40 11.5q20 0 39 -10.5t29 -32.5l103 -237
q44 104 87.5 205.5t87.5 204.5q10 23 28 32.5t38 9.5q17 0 33.5 -8t27.5 -22t14.5 -32t-4.5 -39q-61 -142 -123 -287t-122 -287v1q-9 -22 -28 -31t-39 -9q-22 0 -41.5 10.5t-27.5 33.5z" />
    <glyph glyph-name="x" unicode="x" horiz-adv-x="652" 
d="M327 475q40 53 80 105t80 105v-1q11 16 26.5 23.5t31.5 7.5q19 0 36 -10.5t27.5 -27t12 -37t-11.5 -40.5l-189 -248q46 -60 90.5 -119.5t93.5 -119.5q10 -13 9.5 -30t-9.5 -33.5t-23.5 -30t-31 -19.5t-33 -2.5t-29.5 22.5q-19 27 -37.5 51t-37.5 49t-40 51t-45 58
q-16 -21 -38 -51.5t-44.5 -60.5t-43 -56t-33.5 -39q-17 -17 -43 -12.5t-47 20.5t-31 39.5t4 43.5q24 34 46 63t44 57t44 57t48 62q-48 63 -94.5 124.5t-93.5 123.5q-13 20 -12 40.5t11.5 37t28 27t36.5 10.5q16 0 31.5 -8t26.5 -23z" />
    <glyph glyph-name="y" unicode="y" horiz-adv-x="815" 
d="M389 -215q-15 -40 -61 -40q-17 0 -35 8t-30 22t-16.5 32.5t5.5 38.5q11 24 23.5 51.5t25 56t24.5 56.5t23 52l-278 537q-12 20 -9.5 40.5t13 36.5t28 26t35.5 10q15 0 30 -6.5t26 -23.5l228 -455q49 112 99 223t99 223q11 23 28.5 31.5t36.5 8.5q17 0 33.5 -8t27.5 -22
t14.5 -32.5t-4.5 -39.5z" />
    <glyph glyph-name="z" unicode="z" horiz-adv-x="669" 
d="M119 7q-45 1 -63.5 27t-18.5 58q0 20 6.5 37.5t16.5 28.5l339 406h-288q-37 0 -54 23t-17 50t17.5 50.5t52.5 25.5h445q35 0 52 -21.5t17 -52.5q0 -17 -6.5 -36t-19.5 -35v1q-51 -61 -93 -111t-82 -97.5t-82 -97.5t-93 -111q79 0 156.5 -0.5t156.5 -0.5q36 0 52 -22
t16 -50q0 -15 -5 -29t-14 -25t-23 -17t-32 -3l6 -1z" />
    <glyph glyph-name="braceleft" unicode="{" horiz-adv-x="411" 
d="M265 489q3 -24 0.5 -42t-26.5 -36q18 -14 25 -28.5t7 -31.5q0 -16 -4.5 -28t-9.5 -21q-11 -21 -17.5 -51.5t-6.5 -63.5q0 -29 5 -57t15.5 -51t27 -39t40.5 -20q29 -5 42 -26t13 -44q0 -15 -6 -30t-17 -25.5t-26 -15.5t-34 -1q-54 14 -92 44.5t-61.5 71.5t-34.5 89t-11 97
q0 36 4 70t12 66q-5 3 -10.5 6.5t-10.5 6.5q-26 17 -37 38.5t-11 44.5t12.5 45t36.5 36h-1q6 4 9 5.5t4.5 2.5t4.5 2.5t9 5.5q-5 38 -9 75t-4 69q0 44 8 84t28.5 74.5t55 63t88.5 49.5q19 5 36 0.5t29.5 -15.5t19.5 -26.5t7 -30.5q0 -19 -9.5 -36t-30.5 -25
q-54 -23 -72 -58.5t-18 -78.5q0 -26 3.5 -54.5t8.5 -57.5q2 -10 4 -21t3 -22q0 -2 0.5 -5t0.5 -5z" />
    <glyph glyph-name="bar" unicode="|" horiz-adv-x="240" 
d="M47 849q0 36 23 53.5t51 17.5q27 0 50 -17.5t25 -52.5v-781q0 -36 -23 -52t-50 -16q-15 0 -30 5t-25.5 14t-16.5 22.5t-3 31.5l-1 -5v780z" />
    <glyph glyph-name="braceright" unicode="}" horiz-adv-x="430" 
d="M152 489q0 2 0.5 5t0.5 5q1 11 3 22t4 21q5 29 8.5 57.5t3.5 54.5q0 43 -18 78.5t-72 58.5q-21 8 -30.5 25t-9.5 36q0 15 7 30.5t19.5 26.5t29 15.5t36.5 -0.5q54 -21 88.5 -49.5t55 -63t28.5 -74.5t8 -84q0 -32 -4 -69t-9 -75q6 -4 9 -5.5t4.5 -2.5t4.5 -2.5t9 -5.5h-1
q24 -14 36.5 -36t12.5 -45t-11 -44.5t-37 -38.5q-5 -3 -10.5 -6.5t-10.5 -6.5q8 -32 12 -66t4 -70q0 -49 -11 -97t-34.5 -89t-61.5 -71.5t-92 -44.5q-19 -4 -34 1t-26 15.5t-17 25.5t-6 30q0 23 13 44t42 26q24 4 40.5 20t27 39t15.5 51t5 57q0 33 -6.5 63.5t-17.5 51.5
q-5 9 -9.5 21t-4.5 28q0 17 7 31.5t25 28.5q-24 18 -26.5 36t0.5 42z" />
    <glyph glyph-name="asciitilde" unicode="~" horiz-adv-x="588" 
d="M229 351q-7 -25 -25 -37t-39 -12q-15 0 -29 6.5t-25 17.5t-16.5 26t-2.5 32q7 31 21 56t33.5 41.5t42.5 25t49 7.5q22 -1 39.5 -7.5t32 -15.5t26 -19.5t21.5 -20.5q6 -7 12.5 -14t8.5 -7q-3 5 0 24q5 29 23.5 43.5t43.5 14.5q15 0 30 -5.5t26 -17t16 -28t1 -37.5
q-6 -26 -15.5 -48t-25 -39.5t-38 -28t-52.5 -11.5h1q-26 -1 -45.5 4.5t-34.5 14.5t-26.5 21t-21.5 23q-8 8 -14 14.5t-11 4.5q2 0 -5 -27z" />
    <glyph glyph-name="exclamdown" unicode="&#xa1;" horiz-adv-x="261" 
d="M61 669q0 37 23 54t51 17q27 0 50 -17.5t25 -52.5v-601q0 -36 -23 -52t-50 -16q-15 0 -30 5t-25.5 14t-16.5 22.5t-3 31.5l-1 -5v600zM55 842q0 33 23.5 56.5t56.5 23.5t56 -23.5t23 -56.5t-23 -56t-56 -23t-56.5 23t-23.5 56z" />
    <glyph glyph-name="cent" unicode="&#xa2;" 
d="M278 57q-60 12 -104.5 45t-73 80t-42 103.5t-12.5 116.5q1 58 15.5 114.5t43.5 104.5t72.5 84t100.5 53q0 35 23 52t50 17q26 0 48 -16t27 -48q37 -9 69.5 -29.5t57.5 -50t41 -66.5t22 -80q0 -42 -23 -63t-52 -21q-24 0 -46 16t-28 48q-5 24 -16 46t-24 36v-383
q23 14 41.5 40t29.5 67q6 33 27.5 49t47.5 16q29 0 51.5 -20.5t22.5 -62.5q-11 -54 -32.5 -96t-50.5 -72.5t-64.5 -50t-72.5 -28.5v-14q0 -35 -23 -51t-51 -16q-15 0 -29.5 5t-25.5 14t-16.5 22.5t-3.5 31.5v-6v13zM200 397q1 -54 20 -102.5t58 -74.5v371q-18 -15 -33 -37
t-25 -48t-15 -54t-5 -55z" />
    <glyph glyph-name="sterling" unicode="&#xa3;" horiz-adv-x="795" 
d="M251 -1q-15 0 -29.5 1.5t-26.5 8.5t-20 21t-9 38q-1 30 -1 61.5v57.5v167q1 21 1 44.5v45.5h-42q-37 0 -54 22.5t-17 50.5q0 27 17.5 50.5t52.5 25.5h48q6 65 23.5 122.5t51.5 101.5t87 70.5t130 29.5q47 0 93.5 -14t84.5 -39.5t64 -61t34 -80.5q0 -20 -7 -35t-18 -25
t-25 -15t-27 -5q-26 0 -46.5 14.5t-25.5 40.5q-11 40 -46 56.5t-76 15.5q-40 -1 -67 -16.5t-44 -40t-25.5 -56t-12.5 -63.5h288q36 0 52 -23t16 -51q0 -15 -5 -29.5t-14 -25.5t-23 -16.5t-32 -3.5h6h-292v-296h353q36 0 52 -23t16 -51q0 -15 -5 -29.5t-14 -25t-23 -16.5
t-32 -3l6 -1h-417z" />
    <glyph glyph-name="yen" unicode="&#xa5;" horiz-adv-x="778" 
d="M459 86v-31q0 -36 -23 -52t-51 -16q-15 0 -29.5 5t-25 14t-16.5 23t-3 32l-1 -6v31h-89q-36 0 -53.5 22.5t-17.5 50.5q0 27 17.5 50.5t52.5 25.5h90v20h-89q-36 0 -53.5 22.5t-17.5 50.5q0 27 17.5 50.5t52.5 25.5h55q-57 102 -112.5 203t-111.5 204q-10 22 -7 41
t14.5 32.5t28 21.5t34.5 8q20 0 36.5 -9t26.5 -29q28 -48 52 -90.5t48 -84t48.5 -85t52.5 -93.5q52 89 103.5 177.5t102.5 177.5l-3 -4q10 22 28.5 32t38.5 10q18 0 35 -8t28 -22t14.5 -32.5t-6.5 -40.5l-231 -409h68q35 0 51 -23t16 -51q0 -15 -5 -29.5t-14 -25.5
t-22.5 -16.5t-31.5 -3.5h6h-104v-20h104q35 0 51 -23t16 -51q0 -15 -5 -29.5t-14 -25.5t-22.5 -16.5t-31.5 -3.5h6h-104z" />
    <glyph glyph-name="dieresis" unicode="&#xa8;" horiz-adv-x="416" 
d="M196 868q0 -16 -6.5 -30.5t-17.5 -25.5t-25.5 -17.5t-30.5 -6.5q-17 0 -31.5 6.5t-25.5 17.5t-17 25.5t-6 30.5q0 34 23 57t57 23q16 0 30.5 -6t25.5 -17t17.5 -25.5t6.5 -31.5zM382 868q0 -16 -6.5 -30.5t-17.5 -25.5t-25.5 -17.5t-30.5 -6.5q-17 0 -31.5 6.5
t-25.5 17.5t-17 25.5t-6 30.5q0 34 23 57t57 23q16 0 30.5 -6t25.5 -17t17.5 -25.5t6.5 -31.5z" />
    <glyph glyph-name="copyright" unicode="&#xa9;" horiz-adv-x="830" 
d="M589 523q0 -14 -6.5 -26t-17 -20t-22.5 -12.5t-24 -4.5q-19 0 -33.5 9t-19.5 31t-17 37.5t-27 15.5q-16 0 -28 -10t-20 -25.5t-12 -35t-4 -40.5q0 -20 3.5 -38.5t11 -33t19 -23t26.5 -8.5q17 0 37 13.5t28 45.5q3 23 17.5 33t34.5 10q11 0 23.5 -5t23 -14.5t17.5 -22
t7 -27.5q-8 -39 -28 -68.5t-45.5 -49.5t-54.5 -30.5t-54 -10.5q-49 0 -85 19t-59.5 50.5t-35 72.5t-11.5 85q0 45 12.5 89t37 77.5t60 54t81.5 19.5q28 -1 56 -13.5t51 -33.5t38.5 -48.5t19.5 -57.5v-4zM422 0q-77 0 -142.5 34t-114.5 89.5t-79.5 126t-37.5 143.5v-1
q-1 12 -1.5 24.5t-0.5 26.5q0 80 26 160t75 143.5t118.5 103.5t155.5 40q85 0 153 -40.5t116 -106t74 -146.5t25 -162q-1 -79 -27.5 -156.5t-74.5 -139.5t-115.5 -100.5t-149.5 -38.5zM420 139q48 0 88.5 27t70 69.5t46.5 94.5t17 103q0 58 -16.5 114.5t-46 101t-70.5 72
t-89 27.5q-50 0 -91.5 -28t-72.5 -72t-48 -98.5t-17 -106.5v-15t1 -14q5 -47 25 -95.5t50 -88.5t69.5 -65.5t83.5 -25.5z" />
    <glyph glyph-name="logicalnot" unicode="&#xac;" horiz-adv-x="697" 
d="M645 206q0 -37 -23 -54t-51 -17q-27 0 -50 17.5t-25 52.5v146h-365q-37 0 -54.5 23t-17.5 51q0 27 18 50t53 25h424q49 0 70 -24.5t21 -88.5v-181z" />
    <glyph glyph-name="macron" unicode="&#xaf;" horiz-adv-x="513" 
d="M118 778q-37 0 -54 22.5t-17 50.5q0 27 17.5 50.5t52.5 25.5h294q35 0 51.5 -23t16.5 -51q0 -15 -5 -29.5t-14 -25t-23 -16.5t-32 -3l6 -1h-293z" />
    <glyph glyph-name="degree" unicode="&#xb0;" horiz-adv-x="318" 
d="M149 710q0 -6 4.5 -11t10.5 -5q7 0 11.5 5t4.5 11q0 15 -16 15q-6 0 -10.5 -4t-4.5 -11zM282 709q0 -24 -9.5 -46t-25.5 -38t-38 -25.5t-46 -9.5t-45.5 9.5t-37.5 25.5t-25 38t-9 46t9 45.5t25 37.5t37.5 25t45.5 9t46 -9t38 -25t25.5 -37.5t9.5 -45.5z" />
    <glyph glyph-name="plusminus" unicode="&#xb1;" horiz-adv-x="646" 
d="M401 534h100q36 0 52 -23t16 -51q0 -15 -5 -29.5t-14 -25t-23 -16.5t-32 -3l6 -1h-100v-97q0 -37 -23 -54t-50 -17t-50.5 17.5t-25.5 52.5v98h-92q-37 0 -54.5 23t-17.5 50t18 50.5t53 25.5h93v95q0 36 23 52t51 16q15 0 29.5 -5t25 -14t16.5 -23t3 -32l1 6v-95zM161 139
q-36 0 -53.5 23t-17.5 50t17.5 50.5t52.5 25.5h343q35 0 51 -23t16 -51q0 -15 -5 -29.5t-14 -25t-22.5 -16.5t-31.5 -3l6 -1h-342z" />
    <glyph glyph-name="acute" unicode="&#xb4;" horiz-adv-x="283" 
d="M178 816q-11 -19 -26 -26.5t-31 -7.5q-17 0 -34 10.5t-28 26.5t-13.5 35.5t9.5 36.5q11 18 23 37t23 37q12 17 27 25t31 8q17 0 33 -9t26.5 -23.5t14 -33t-5.5 -38.5z" />
    <glyph glyph-name="periodcentered" unicode="&#xb7;" horiz-adv-x="229" 
d="M194 384q0 -17 -6.5 -31.5t-17.5 -25t-25.5 -17t-30.5 -6.5q-34 0 -57 23.5t-23 56.5t23 56t57 23q32 0 56 -23t24 -56z" />
    <glyph glyph-name="cedilla" unicode="&#xb8;" horiz-adv-x="323" 
d="M120 -281q-25 4 -39 25t-14 44q0 27 15 46t50 16q-19 4 -32 15t-20.5 26t-11 32t-3.5 34q0 10 0.5 18.5t1.5 13.5q2 34 24.5 49.5t45.5 15.5q27 0 48 -18.5t18 -51.5v-16q37 -16 56 -50t19 -72q0 -24 -8 -47.5t-23.5 -42t-39.5 -29.5t-56 -11q-8 0 -16.5 0.5t-16.5 2.5h2
z" />
    <glyph glyph-name="questiondown" unicode="&#xbf;" horiz-adv-x="659" 
d="M398.013 510.024q0 -29.998 -7.99902 -46.9971q-8 -16.999 -20.499 -24.998q-12.499 -8 -29.498 -9.99902q-16.999 -2 -34.998 -3q-3 0 -6.49902 -0.5q-3.5 -0.5 -6.5 -0.5q-18.999 -4 -44.4971 -14.499q-25.499 -10.5 -48.4971 -29.498q-22.999 -18.999 -38.998 -46.498
q-15.999 -27.498 -15.999 -65.4951q0 -20.999 8 -41.998q7.99902 -20.999 24.498 -37.4971q16.499 -16.499 41.498 -27.499q24.998 -10.999 58.9961 -12.999q56.9961 -2 93.9941 30.998t54.9971 87.9951v-1q7.99902 22.998 25.498 33.998q17.499 10.999 38.498 10.999
q15.999 0 31.998 -6.5q15.999 -6.49902 26.998 -18.499q10.999 -11.999 15.999 -28.998t-1 -37.9971q-30.998 -106.994 -105.993 -163.49q-74.9961 -56.4971 -177.989 -56.4971q-69.9961 3 -122.993 26.999q-52.9961 23.998 -88.4941 61.4961t-53.9971 84.9951
t-19.498 96.4932q-1 32.998 10.499 77.9961q11.499 44.9971 40.9971 88.9941q29.499 43.9971 78.9951 80.4951q49.4971 36.498 124.493 53.4971v55.9961q0 31.998 23.998 49.9971q23.999 17.999 51.9971 17.999q28.998 0 50.4971 -16.499q21.498 -16.499 21.498 -51.4971
v-115.993zM244.022 838.005q0 15.999 6.5 30.498q6.49902 14.499 17.499 25.498q10.999 11 25.498 17.499q14.499 6.5 30.498 6.5q16.999 0 31.498 -6.5q14.499 -6.49902 25.498 -17.499q11 -10.999 16.999 -25.498q6 -14.499 6 -30.498q0 -33.998 -22.999 -56.9971
q-22.998 -22.998 -56.9961 -22.998q-15.999 0 -30.498 6q-14.499 5.99902 -25.498 16.998q-11 11 -17.499 25.499q-6.5 14.499 -6.5 31.498z" />
    <glyph glyph-name="Agrave" unicode="&#xc0;" horiz-adv-x="851" 
d="M321 848q11 35 36 52t54 17q28 0 52.5 -16.5t38.5 -46.5l312 -751q9 -22 5 -41.5t-15.5 -34t-28.5 -23t-35 -8.5q-21 0 -39.5 11t-29.5 33q-23 56 -43.5 104t-44.5 105h-321q-21 -53 -42 -105.5t-41 -104.5q-10 -23 -28.5 -34t-39.5 -11q-18 0 -35.5 8t-29.5 22t-16 33
t5 41zM321 405h196q-14 33 -25 62.5t-22.5 60.5t-24 65t-30.5 76zM339 1065q-9 19 -6 37.5t13.5 32.5t27 23t33.5 9q16 0 31.5 -8t27.5 -25l46 -74q11 -17 8.5 -36.5t-13 -35.5t-27.5 -26.5t-34 -10.5t-32 7.5t-25 26.5l2 -2q-12 19 -24.5 38t-24.5 38z" />
    <glyph glyph-name="Aacute" unicode="&#xc1;" horiz-adv-x="851" 
d="M321 848q11 35 36 52t54 17q28 0 52.5 -16.5t38.5 -46.5l312 -751q9 -22 5 -41.5t-15.5 -34t-28.5 -23t-35 -8.5q-21 0 -39.5 11t-29.5 33q-23 56 -43.5 104t-44.5 105h-321q-21 -53 -42 -105.5t-41 -104.5q-10 -23 -28.5 -34t-39.5 -11q-18 0 -35.5 8t-29.5 22t-16 33
t5 41zM321 405h196q-14 33 -25 62.5t-22.5 60.5t-24 65t-30.5 76zM455 978q-11 -19 -26 -26.5t-31 -7.5q-17 0 -34 10.5t-28 26.5t-13.5 35.5t9.5 36.5q11 18 23 37t23 37q12 17 27 25t31 8q17 0 33 -9t26.5 -23.5t14 -33t-5.5 -38.5z" />
    <glyph glyph-name="Acircumflex" unicode="&#xc2;" horiz-adv-x="851" 
d="M321 848q11 35 36 52t54 17q28 0 52.5 -16.5t38.5 -46.5l312 -751q9 -22 5 -41.5t-15.5 -34t-28.5 -23t-35 -8.5q-21 0 -39.5 11t-29.5 33q-23 56 -43.5 104t-44.5 105h-321q-21 -53 -42 -105.5t-41 -104.5q-10 -23 -28.5 -34t-39.5 -11q-18 0 -35.5 8t-29.5 22t-16 33
t5 41zM321 405h196q-14 33 -25 62.5t-22.5 60.5t-24 65t-30.5 76zM335 946q-13 -16 -28.5 -18t-30 4.5t-26.5 19.5t-19 27t-6.5 28t10.5 22l103 94q37 33 74 33q21 0 39 -8.5t36 -24.5l88 -81q22 -23 16 -48t-23.5 -43t-39.5 -24.5t-32 7.5q-19 17 -43.5 40t-43.5 40z" />
    <glyph glyph-name="Atilde" unicode="&#xc3;" horiz-adv-x="851" 
d="M321 848q11 35 36 52t54 17q28 0 52.5 -16.5t38.5 -46.5l312 -751q9 -22 5 -41.5t-15.5 -34t-28.5 -23t-35 -8.5q-21 0 -39.5 11t-29.5 33q-23 56 -43.5 104t-44.5 105h-321q-21 -53 -42 -105.5t-41 -104.5q-10 -23 -28.5 -34t-39.5 -11q-18 0 -35.5 8t-29.5 22t-16 33
t5 41zM321 405h196q-14 33 -25 62.5t-22.5 60.5t-24 65t-30.5 76zM362 1003q-7 -25 -25 -37t-39 -12q-15 0 -29 6.5t-25 17.5t-16.5 26t-2.5 32q7 31 21 56t33.5 41.5t42.5 25t49 7.5q22 -1 39.5 -7.5t32 -15.5t26 -19.5t21.5 -20.5q6 -7 12.5 -14t8.5 -7q-3 5 0 24
q5 29 23.5 43.5t43.5 14.5q15 0 30 -5.5t26 -17t16 -28t1 -37.5q-6 -26 -15.5 -48t-25 -39.5t-38 -28t-52.5 -11.5h1q-26 -1 -45.5 4.5t-34.5 14.5t-26.5 21t-21.5 23q-8 8 -14 14.5t-11 4.5q2 0 -5 -27z" />
    <glyph glyph-name="Adieresis" unicode="&#xc4;" horiz-adv-x="851" 
d="M321 848q11 35 36 52t54 17q28 0 52.5 -16.5t38.5 -46.5l312 -751q9 -22 5 -41.5t-15.5 -34t-28.5 -23t-35 -8.5q-21 0 -39.5 11t-29.5 33q-23 56 -43.5 104t-44.5 105h-321q-21 -53 -42 -105.5t-41 -104.5q-10 -23 -28.5 -34t-39.5 -11q-18 0 -35.5 8t-29.5 22t-16 33
t5 41zM321 405h196q-14 33 -25 62.5t-22.5 60.5t-24 65t-30.5 76zM414 1023q0 -16 -6.5 -30.5t-17.5 -25.5t-25.5 -17.5t-30.5 -6.5q-17 0 -31.5 6.5t-25.5 17.5t-17 25.5t-6 30.5q0 34 23 57t57 23q16 0 30.5 -6t25.5 -17t17.5 -25.5t6.5 -31.5zM600 1023q0 -16 -6.5 -30.5
t-17.5 -25.5t-25.5 -17.5t-30.5 -6.5q-17 0 -31.5 6.5t-25.5 17.5t-17 25.5t-6 30.5q0 34 23 57t57 23q16 0 30.5 -6t25.5 -17t17.5 -25.5t6.5 -31.5z" />
    <glyph glyph-name="Aring" unicode="&#xc5;" horiz-adv-x="851" 
d="M321 848q11 35 36 52t54 17q28 0 52.5 -16.5t38.5 -46.5l312 -751q9 -22 5 -41.5t-15.5 -34t-28.5 -23t-35 -8.5q-21 0 -39.5 11t-29.5 33q-23 56 -43.5 104t-44.5 105h-321q-21 -53 -42 -105.5t-41 -104.5q-10 -23 -28.5 -34t-39.5 -11q-18 0 -35.5 8t-29.5 22t-16 33
t5 41zM321 405h196q-14 33 -25 62.5t-22.5 60.5t-24 65t-30.5 76zM408 1072q0 -6 4.5 -10.5t11.5 -4.5q6 0 10.5 4.5t4.5 10.5q0 7 -4.5 11.5t-10.5 4.5q-16 0 -16 -16zM541 1071q0 -24 -9.5 -46t-25.5 -38t-37.5 -25.5t-45.5 -9.5q-25 0 -46.5 9.5t-37 25.5t-24.5 38t-9 46
t9 45.5t24.5 37.5t37 25t46.5 9q24 0 45.5 -9t37.5 -25t25.5 -37.5t9.5 -45.5z" />
    <glyph glyph-name="AE" unicode="&#xc6;" horiz-adv-x="1180" 
d="M591 -1q-45 0 -70.5 17.5t-25.5 69.5v164q-45 1 -84.5 0.5t-89.5 0.5q-30 -55 -60 -108.5t-61 -107.5q-14 -21 -32 -29.5t-36 -8.5q-20 0 -37 8.5t-27.5 23.5t-11.5 35.5t12 43.5q49 87 101.5 183t105 193.5t105 194t102.5 183.5l-2 -3q14 26 38 44t60 18h478
q38 0 54.5 -24t16.5 -53q0 -16 -5 -31t-15 -26.5t-24 -17.5t-33 -3l6 -1h-404v-230h332q38 0 54.5 -24t16.5 -53q0 -16 -5 -31t-15 -26.5t-24 -17.5t-33 -3l6 -1h-332v-224h402q38 0 54.5 -24t16.5 -53q0 -16 -5 -31t-15 -26.5t-24 -17.5t-33 -3l6 -1h-463zM495 405v180
l-85 -178z" />
    <glyph glyph-name="Ccedilla" unicode="&#xc7;" horiz-adv-x="743" 
d="M359 -281q-25 4 -39 25t-14 44q0 27 15 46t50 16q-19 4 -32 15t-20.5 26t-11 32t-3.5 34q0 10 0.5 18.5t1.5 13.5q0 8 3 16q-68 13 -119.5 50.5t-86 92t-51.5 122.5t-17 142q0 59 11.5 119t33.5 116t54 105t73.5 85.5t91.5 57t109 20.5q46 -3 93 -18t88 -43.5t73 -70.5
t50 -98l1 -6q3 -17 -3.5 -33t-19 -28.5t-28.5 -20t-32 -7.5q-22 0 -40.5 11.5t-27.5 38.5q-12 36 -31.5 60t-41.5 38t-43 20t-36 6q-55 -2 -96.5 -34.5t-69 -82t-41.5 -109t-14 -116.5q0 -40 9.5 -87t31.5 -88t57.5 -69t88.5 -29q29 -1 58 8t54 28t45.5 47.5t32.5 66.5
q7 33 29 50t48 17q15 0 30.5 -6.5t27.5 -18.5t18 -28.5t2 -36.5q-23 -75 -55 -124.5t-69 -81t-77 -46.5t-79 -21q1 -5 1 -9.5v-9.5v-16q37 -16 56 -50t19 -72q0 -24 -8 -47.5t-23.5 -42t-39.5 -29.5t-56 -11q-8 0 -16.5 0.5t-16.5 2.5h2z" />
    <glyph glyph-name="Egrave" unicode="&#xc8;" 
d="M131 -1q-45 0 -70.5 17.5t-25.5 69.5v734q0 51 20 74t63 23h454q37 -1 54.5 -26t16.5 -54.5t-19 -53t-52 -22.5h-380v-201h308q37 -1 54.5 -26t16.5 -54.5t-19 -53t-52 -22.5h-308v-249h378q37 -1 54.5 -26t16.5 -54.5t-19 -53t-52 -22.5h-439zM255 1065q-9 19 -6 37.5
t13.5 32.5t27 23t33.5 9q16 0 31.5 -8t27.5 -25l46 -74q11 -17 8.5 -36.5t-13 -35.5t-27.5 -26.5t-34 -10.5t-32 7.5t-25 26.5l2 -2q-12 19 -24.5 38t-24.5 38z" />
    <glyph glyph-name="Eacute" unicode="&#xc9;" 
d="M131 -1q-45 0 -70.5 17.5t-25.5 69.5v734q0 51 20 74t63 23h454q37 -1 54.5 -26t16.5 -54.5t-19 -53t-52 -22.5h-380v-201h308q37 -1 54.5 -26t16.5 -54.5t-19 -53t-52 -22.5h-308v-249h378q37 -1 54.5 -26t16.5 -54.5t-19 -53t-52 -22.5h-439zM415 982
q-11 -19 -26 -26.5t-31 -7.5q-17 0 -34 10.5t-28 26.5t-13.5 35.5t9.5 36.5q11 18 23 37t23 37q12 17 27 25t31 8q17 0 33 -9t26.5 -23.5t14 -33t-5.5 -38.5z" />
    <glyph glyph-name="Ecircumflex" unicode="&#xca;" 
d="M131 -1q-45 0 -70.5 17.5t-25.5 69.5v734q0 51 20 74t63 23h454q37 -1 54.5 -26t16.5 -54.5t-19 -53t-52 -22.5h-380v-201h308q37 -1 54.5 -26t16.5 -54.5t-19 -53t-52 -22.5h-308v-249h378q37 -1 54.5 -26t16.5 -54.5t-19 -53t-52 -22.5h-439zM269 977
q-13 -16 -28.5 -18t-30 4.5t-26.5 19.5t-19 27t-6.5 28t10.5 22l103 94q37 33 74 33q21 0 39 -8.5t36 -24.5l88 -81q22 -23 16 -48t-23.5 -43t-39.5 -24.5t-32 7.5q-19 17 -43.5 40t-43.5 40z" />
    <glyph glyph-name="Edieresis" unicode="&#xcb;" 
d="M131 -1q-45 0 -70.5 17.5t-25.5 69.5v734q0 51 20 74t63 23h454q37 -1 54.5 -26t16.5 -54.5t-19 -53t-52 -22.5h-380v-201h308q37 -1 54.5 -26t16.5 -54.5t-19 -53t-52 -22.5h-308v-249h378q37 -1 54.5 -26t16.5 -54.5t-19 -53t-52 -22.5h-439zM330 1034
q0 -16 -6.5 -30.5t-17.5 -25.5t-25.5 -17.5t-30.5 -6.5q-17 0 -31.5 6.5t-25.5 17.5t-17 25.5t-6 30.5q0 34 23 57t57 23q16 0 30.5 -6t25.5 -17t17.5 -25.5t6.5 -31.5zM516 1034q0 -16 -6.5 -30.5t-17.5 -25.5t-25.5 -17.5t-30.5 -6.5q-17 0 -31.5 6.5t-25.5 17.5t-17 25.5
t-6 30.5q0 34 23 57t57 23q16 0 30.5 -6t25.5 -17t17.5 -25.5t6.5 -31.5z" />
    <glyph glyph-name="Igrave" unicode="&#xcc;" horiz-adv-x="694" 
d="M263 154v608h-162q-38 0 -56.5 23.5t-18.5 52.5t19 52.5t55 25.5h489q38 0 54.5 -23t16.5 -53q0 -15 -5 -29.5t-14.5 -25.5t-23.5 -18t-32 -5h4h-169v-608h164q38 0 56.5 -23.5t18.5 -52.5t-19 -52.5t-55 -25.5h-482q-38 0 -54.5 23t-16.5 53q0 15 5 29.5t14 25.5
t22 17.5t30 5.5h160zM284 1060q-9 19 -6 37.5t13.5 32.5t27 23t33.5 9q16 0 31.5 -8t27.5 -25l46 -74q11 -17 8.5 -36.5t-13 -35.5t-27.5 -26.5t-34 -10.5t-32 7.5t-25 26.5l2 -2q-12 19 -24.5 38t-24.5 38z" />
    <glyph glyph-name="Iacute" unicode="&#xcd;" horiz-adv-x="696" 
d="M263 154v608h-162q-38 0 -56.5 23.5t-18.5 52.5t19 52.5t55 25.5h489q38 0 54.5 -23t16.5 -53q0 -15 -5 -29.5t-14.5 -25.5t-23.5 -18t-32 -5h4h-169v-608h164q38 0 56.5 -23.5t18.5 -52.5t-19 -52.5t-55 -25.5h-482q-38 0 -54.5 23t-16.5 53q0 15 5 29.5t14 25.5
t22 17.5t30 5.5h160zM377 983q-11 -19 -26 -26.5t-31 -7.5q-17 0 -34 10.5t-28 26.5t-13.5 35.5t9.5 36.5q11 18 23 37t23 37q12 17 27 25t31 8q17 0 33 -9t26.5 -23.5t14 -33t-5.5 -38.5z" />
    <glyph glyph-name="Icircumflex" unicode="&#xce;" horiz-adv-x="704" 
d="M269 154v608h-162q-38 0 -56.5 23.5t-18.5 52.5t19 52.5t55 25.5h489q38 0 54.5 -23t16.5 -53q0 -15 -5 -29.5t-14.5 -25.5t-23.5 -18t-32 -5h4h-169v-608h164q38 0 56.5 -23.5t18.5 -52.5t-19 -52.5t-55 -25.5h-482q-38 0 -54.5 23t-16.5 53q0 15 5 29.5t14 25.5
t22 17.5t30 5.5h160zM305 961q-13 -16 -28.5 -18t-30 4.5t-26.5 19.5t-19 27t-6.5 28t10.5 22l103 94q37 33 74 33q21 0 39 -8.5t36 -24.5l88 -81q22 -23 16 -48t-23.5 -43t-39.5 -24.5t-32 7.5q-19 17 -43.5 40t-43.5 40z" />
    <glyph glyph-name="Idieresis" unicode="&#xcf;" horiz-adv-x="688" 
d="M260 154v608h-162q-38 0 -56.5 23.5t-18.5 52.5t19 52.5t55 25.5h489q38 0 54.5 -23t16.5 -53q0 -15 -5 -29.5t-14.5 -25.5t-23.5 -18t-32 -5h4h-169v-608h164q38 0 56.5 -23.5t18.5 -52.5t-19 -52.5t-55 -25.5h-482q-38 0 -54.5 23t-16.5 53q0 15 5 29.5t14 25.5
t22 17.5t30 5.5h160zM315 1025q0 -16 -6.5 -30.5t-17.5 -25.5t-25.5 -17.5t-30.5 -6.5q-17 0 -31.5 6.5t-25.5 17.5t-17 25.5t-6 30.5q0 34 23 57t57 23q16 0 30.5 -6t25.5 -17t17.5 -25.5t6.5 -31.5zM501 1025q0 -16 -6.5 -30.5t-17.5 -25.5t-25.5 -17.5t-30.5 -6.5
q-17 0 -31.5 6.5t-25.5 17.5t-17 25.5t-6 30.5q0 34 23 57t57 23q16 0 30.5 -6t25.5 -17t17.5 -25.5t6.5 -31.5z" />
    <glyph glyph-name="Eth" unicode="&#xd0;" horiz-adv-x="786" 
d="M118 373h-29q-37 0 -54 22.5t-17 50.5q0 27 17.5 50.5t52.5 25.5h30v319q0 37 24 55.5t53 18.5q17 0 33 -6.5t28 -19.5q72 28 138 27q82 -2 149.5 -46t115.5 -115t74.5 -161t26.5 -182q0 -80 -23 -151t-68.5 -126.5t-112 -92t-153.5 -46.5q-31 0 -69.5 5.5t-76.5 15.5
q-11 -12 -27 -17.5t-33 -5.5q-16 0 -31 5t-26.5 14.5t-17.5 24t-3 33.5zM274 373v-202q32 -14 64 -20t61 -4q52 3 91 28t65 63t39.5 85.5t13.5 96.5q0 61 -15.5 121.5t-44 109.5t-69 80t-89.5 33q-54 3 -116 -31v-211h108q35 0 51.5 -23t16.5 -51q0 -15 -5 -29.5t-14 -25
t-23 -16.5t-32 -3l6 -1h-108z" />
    <glyph glyph-name="Ntilde" unicode="&#xd1;" horiz-adv-x="720" 
d="M21 843q0 38 22 55.5t51 17.5q21 0 41 -10t33 -29l357 -551v517q0 19 6.5 33t17.5 23t25 13.5t29 4.5q28 0 52 -18.5t26 -54.5v-772q0 -36 -22.5 -53.5t-52.5 -17.5q-20 0 -39.5 9.5t-32.5 27.5l-356 550q0 -57 0.5 -123.5t1 -134.5t1 -134.5t0.5 -123.5q0 -38 -24 -54.5
t-53 -16.5q-16 0 -31 5t-26.5 14t-17.5 22t-4 30zM297 1003q-7 -25 -25 -37t-39 -12q-15 0 -29 6.5t-25 17.5t-16.5 26t-2.5 32q7 31 21 56t33.5 41.5t42.5 25t49 7.5q22 -1 39.5 -7.5t32 -15.5t26 -19.5t21.5 -20.5q6 -7 12.5 -14t8.5 -7q-3 5 0 24q5 29 23.5 43.5
t43.5 14.5q15 0 30 -5.5t26 -17t16 -28t1 -37.5q-6 -26 -15.5 -48t-25 -39.5t-38 -28t-52.5 -11.5h1q-26 -1 -45.5 4.5t-34.5 14.5t-26.5 21t-21.5 23q-8 8 -14 14.5t-11 4.5q2 0 -5 -27z" />
    <glyph glyph-name="Ograve" unicode="&#xd2;" horiz-adv-x="777" 
d="M390 0q-86 0 -153 40.5t-113 105t-70 145t-24 160.5q0 83 22.5 166t67.5 149.5t112.5 108t157.5 41.5q59 0 108.5 -20t89 -54t69 -80.5t49 -100t29 -111t8.5 -113.5q-1 -83 -23.5 -161.5t-66.5 -139.5t-110 -98.5t-153 -37.5zM391 154q49 0 86 23.5t61.5 62t37 88.5
t13.5 103q0 56 -12 114.5t-37.5 106t-63 77.5t-88.5 30q-50 0 -87.5 -28t-62.5 -73t-37.5 -100.5t-12.5 -109.5q0 -42 10.5 -93.5t34.5 -96t63 -74.5t95 -30zM306 1071q-9 19 -6 37.5t13.5 32.5t27 23t33.5 9q16 0 31.5 -8t27.5 -25l46 -74q11 -17 8.5 -36.5t-13 -35.5
t-27.5 -26.5t-34 -10.5t-32 7.5t-25 26.5l2 -2q-12 19 -24.5 38t-24.5 38z" />
    <glyph glyph-name="Oacute" unicode="&#xd3;" horiz-adv-x="777" 
d="M390 0q-86 0 -153 40.5t-113 105t-70 145t-24 160.5q0 83 22.5 166t67.5 149.5t112.5 108t157.5 41.5q59 0 108.5 -20t89 -54t69 -80.5t49 -100t29 -111t8.5 -113.5q-1 -83 -23.5 -161.5t-66.5 -139.5t-110 -98.5t-153 -37.5zM391 154q49 0 86 23.5t61.5 62t37 88.5
t13.5 103q0 56 -12 114.5t-37.5 106t-63 77.5t-88.5 30q-50 0 -87.5 -28t-62.5 -73t-37.5 -100.5t-12.5 -109.5q0 -42 10.5 -93.5t34.5 -96t63 -74.5t95 -30zM470 991q-11 -19 -26 -26.5t-31 -7.5q-17 0 -34 10.5t-28 26.5t-13.5 35.5t9.5 36.5q11 18 23 37t23 37
q12 17 27 25t31 8q17 0 33 -9t26.5 -23.5t14 -33t-5.5 -38.5z" />
    <glyph glyph-name="Ocircumflex" unicode="&#xd4;" horiz-adv-x="777" 
d="M390 0q-86 0 -153 40.5t-113 105t-70 145t-24 160.5q0 83 22.5 166t67.5 149.5t112.5 108t157.5 41.5q59 0 108.5 -20t89 -54t69 -80.5t49 -100t29 -111t8.5 -113.5q-1 -83 -23.5 -161.5t-66.5 -139.5t-110 -98.5t-153 -37.5zM391 154q49 0 86 23.5t61.5 62t37 88.5
t13.5 103q0 56 -12 114.5t-37.5 106t-63 77.5t-88.5 30q-50 0 -87.5 -28t-62.5 -73t-37.5 -100.5t-12.5 -109.5q0 -42 10.5 -93.5t34.5 -96t63 -74.5t95 -30zM310 967q-13 -16 -28.5 -18t-30 4.5t-26.5 19.5t-19 27t-6.5 28t10.5 22l103 94q37 33 74 33q21 0 39 -8.5
t36 -24.5l88 -81q22 -23 16 -48t-23.5 -43t-39.5 -24.5t-32 7.5q-19 17 -43.5 40t-43.5 40z" />
    <glyph glyph-name="Otilde" unicode="&#xd5;" horiz-adv-x="777" 
d="M390 0q-86 0 -153 40.5t-113 105t-70 145t-24 160.5q0 83 22.5 166t67.5 149.5t112.5 108t157.5 41.5q59 0 108.5 -20t89 -54t69 -80.5t49 -100t29 -111t8.5 -113.5q-1 -83 -23.5 -161.5t-66.5 -139.5t-110 -98.5t-153 -37.5zM391 154q49 0 86 23.5t61.5 62t37 88.5
t13.5 103q0 56 -12 114.5t-37.5 106t-63 77.5t-88.5 30q-50 0 -87.5 -28t-62.5 -73t-37.5 -100.5t-12.5 -109.5q0 -42 10.5 -93.5t34.5 -96t63 -74.5t95 -30zM325 1003q-7 -25 -25 -37t-39 -12q-15 0 -29 6.5t-25 17.5t-16.5 26t-2.5 32q7 31 21 56t33.5 41.5t42.5 25
t49 7.5q22 -1 39.5 -7.5t32 -15.5t26 -19.5t21.5 -20.5q6 -7 12.5 -14t8.5 -7q-3 5 0 24q5 29 23.5 43.5t43.5 14.5q15 0 30 -5.5t26 -17t16 -28t1 -37.5q-6 -26 -15.5 -48t-25 -39.5t-38 -28t-52.5 -11.5h1q-26 -1 -45.5 4.5t-34.5 14.5t-26.5 21t-21.5 23q-8 8 -14 14.5
t-11 4.5q2 0 -5 -27z" />
    <glyph glyph-name="Odieresis" unicode="&#xd6;" horiz-adv-x="777" 
d="M390 0q-86 0 -153 40.5t-113 105t-70 145t-24 160.5q0 83 22.5 166t67.5 149.5t112.5 108t157.5 41.5q59 0 108.5 -20t89 -54t69 -80.5t49 -100t29 -111t8.5 -113.5q-1 -83 -23.5 -161.5t-66.5 -139.5t-110 -98.5t-153 -37.5zM391 154q49 0 86 23.5t61.5 62t37 88.5
t13.5 103q0 56 -12 114.5t-37.5 106t-63 77.5t-88.5 30q-50 0 -87.5 -28t-62.5 -73t-37.5 -100.5t-12.5 -109.5q0 -42 10.5 -93.5t34.5 -96t63 -74.5t95 -30zM377 1034q0 -16 -6.5 -30.5t-17.5 -25.5t-25.5 -17.5t-30.5 -6.5q-17 0 -31.5 6.5t-25.5 17.5t-17 25.5t-6 30.5
q0 34 23 57t57 23q16 0 30.5 -6t25.5 -17t17.5 -25.5t6.5 -31.5zM563 1034q0 -16 -6.5 -30.5t-17.5 -25.5t-25.5 -17.5t-30.5 -6.5q-17 0 -31.5 6.5t-25.5 17.5t-17 25.5t-6 30.5q0 34 23 57t57 23q16 0 30.5 -6t25.5 -17t17.5 -25.5t6.5 -31.5z" />
    <glyph glyph-name="multiply" unicode="&#xd7;" horiz-adv-x="555" 
d="M272 529l70 70q13 11 37 3.5t44 -25t29 -41.5t-8 -46l-67 -67l68 -68q7 -7 4 -20t-12 -27t-22.5 -27t-27.5 -22.5t-26.5 -13t-19.5 3.5l-69 70q-17 -17 -33 -33.5t-33 -32.5q-11 -11 -32.5 0t-41 31t-30.5 41.5t-1 32.5l66 66l-67 67q-5 5 -2.5 17.5t9 28t17.5 30.5
t24.5 24.5t29 11t30.5 -10.5z" />
    <glyph glyph-name="Oslash" unicode="&#xd8;" horiz-adv-x="777" 
d="M631 796q28 -35 49.5 -77.5t35.5 -89t20.5 -95.5t6.5 -97q-1 -83 -23.5 -161.5t-66.5 -139.5t-110 -98.5t-153 -37.5q-43 0 -81 10t-71 29l-1 -2q-8 -21 -24 -30.5t-36 -9.5q-18 0 -35.5 8.5t-30 22.5t-16.5 33t7 40l22 43q-47 65 -70.5 145.5t-23.5 161.5q0 83 22.5 166
t67.5 149.5t112.5 108t157.5 41.5q67 0 122 -26q11 16 26.5 23.5t32.5 7.5q18 0 35 -8.5t28.5 -23t14 -34t-7.5 -40.5zM391 154q49 0 86 23.5t61.5 62t37 88.5t13.5 103q0 52 -10.5 105t-31.5 99l-238 -460q17 -10 37.5 -15.5t44.5 -5.5zM188 448q0 -31 5.5 -66.5
t17.5 -70.5l227 439q-23 9 -50 9q-50 0 -87.5 -28t-62.5 -73t-37.5 -100.5t-12.5 -109.5z" />
    <glyph glyph-name="Ugrave" unicode="&#xd9;" horiz-adv-x="719" 
d="M660 237q-16 -58 -45.5 -101.5t-68 -73t-83.5 -45.5t-92 -17q-49 -2 -97.5 12.5t-90 44.5t-74 75t-49.5 105q-10 38 -16.5 89t-10 108t-4.5 115t-1 110v177q-1 19 5 34.5t17.5 25.5t26.5 15.5t31 5.5q15 0 30 -5t26.5 -15t17.5 -25.5t5 -35.5q0 -32 -1 -82.5t-1 -119.5
q0 -47 1 -96.5t3.5 -96t7 -87.5t12.5 -69q18 -65 61 -97t91 -31q24 0 47.5 8.5t43.5 24t35.5 39.5t23.5 56q7 28 12 67t7 83.5t3 92.5t1 93v106t-1 109q-2 20 4.5 35.5t17.5 25.5t26 15t31 5t31 -5.5t26 -15.5t17 -25.5t5 -34.5v-177q0 -53 -1 -111.5t-4 -115t-9.5 -107.5
t-16.5 -88zM273 1065q-9 19 -6 37.5t13.5 32.5t27 23t33.5 9q16 0 31.5 -8t27.5 -25l46 -74q11 -17 8.5 -36.5t-13 -35.5t-27.5 -26.5t-34 -10.5t-32 7.5t-25 26.5l2 -2q-12 19 -24.5 38t-24.5 38z" />
    <glyph glyph-name="Uacute" unicode="&#xda;" horiz-adv-x="719" 
d="M660 237q-16 -58 -45.5 -101.5t-68 -73t-83.5 -45.5t-92 -17q-49 -2 -97.5 12.5t-90 44.5t-74 75t-49.5 105q-10 38 -16.5 89t-10 108t-4.5 115t-1 110v177q-1 19 5 34.5t17.5 25.5t26.5 15.5t31 5.5q15 0 30 -5t26.5 -15t17.5 -25.5t5 -35.5q0 -32 -1 -82.5t-1 -119.5
q0 -47 1 -96.5t3.5 -96t7 -87.5t12.5 -69q18 -65 61 -97t91 -31q24 0 47.5 8.5t43.5 24t35.5 39.5t23.5 56q7 28 12 67t7 83.5t3 92.5t1 93v106t-1 109q-2 20 4.5 35.5t17.5 25.5t26 15t31 5t31 -5.5t26 -15.5t17 -25.5t5 -34.5v-177q0 -53 -1 -111.5t-4 -115t-9.5 -107.5
t-16.5 -88zM433 982q-11 -19 -26 -26.5t-31 -7.5q-17 0 -34 10.5t-28 26.5t-13.5 35.5t9.5 36.5q11 18 23 37t23 37q12 17 27 25t31 8q17 0 33 -9t26.5 -23.5t14 -33t-5.5 -38.5z" />
    <glyph glyph-name="Ucircumflex" unicode="&#xdb;" horiz-adv-x="719" 
d="M660 237q-16 -58 -45.5 -101.5t-68 -73t-83.5 -45.5t-92 -17q-49 -2 -97.5 12.5t-90 44.5t-74 75t-49.5 105q-10 38 -16.5 89t-10 108t-4.5 115t-1 110v177q-1 19 5 34.5t17.5 25.5t26.5 15.5t31 5.5q15 0 30 -5t26.5 -15t17.5 -25.5t5 -35.5q0 -32 -1 -82.5t-1 -119.5
q0 -47 1 -96.5t3.5 -96t7 -87.5t12.5 -69q18 -65 61 -97t91 -31q24 0 47.5 8.5t43.5 24t35.5 39.5t23.5 56q7 28 12 67t7 83.5t3 92.5t1 93v106t-1 109q-2 20 4.5 35.5t17.5 25.5t26 15t31 5t31 -5.5t26 -15.5t17 -25.5t5 -34.5v-177q0 -53 -1 -111.5t-4 -115t-9.5 -107.5
t-16.5 -88zM282 974q-13 -16 -28.5 -18t-30 4.5t-26.5 19.5t-19 27t-6.5 28t10.5 22l103 94q37 33 74 33q21 0 39 -8.5t36 -24.5l88 -81q22 -23 16 -48t-23.5 -43t-39.5 -24.5t-32 7.5q-19 17 -43.5 40t-43.5 40z" />
    <glyph glyph-name="Udieresis" unicode="&#xdc;" horiz-adv-x="719" 
d="M660 237q-16 -58 -45.5 -101.5t-68 -73t-83.5 -45.5t-92 -17q-49 -2 -97.5 12.5t-90 44.5t-74 75t-49.5 105q-10 38 -16.5 89t-10 108t-4.5 115t-1 110v177q-1 19 5 34.5t17.5 25.5t26.5 15.5t31 5.5q15 0 30 -5t26.5 -15t17.5 -25.5t5 -35.5q0 -32 -1 -82.5t-1 -119.5
q0 -47 1 -96.5t3.5 -96t7 -87.5t12.5 -69q18 -65 61 -97t91 -31q24 0 47.5 8.5t43.5 24t35.5 39.5t23.5 56q7 28 12 67t7 83.5t3 92.5t1 93v106t-1 109q-2 20 4.5 35.5t17.5 25.5t26 15t31 5t31 -5.5t26 -15.5t17 -25.5t5 -34.5v-177q0 -53 -1 -111.5t-4 -115t-9.5 -107.5
t-16.5 -88zM348 1034q0 -16 -6.5 -30.5t-17.5 -25.5t-25.5 -17.5t-30.5 -6.5q-17 0 -31.5 6.5t-25.5 17.5t-17 25.5t-6 30.5q0 34 23 57t57 23q16 0 30.5 -6t25.5 -17t17.5 -25.5t6.5 -31.5zM534 1034q0 -16 -6.5 -30.5t-17.5 -25.5t-25.5 -17.5t-30.5 -6.5q-17 0 -31.5 6.5
t-25.5 17.5t-17 25.5t-6 30.5q0 34 23 57t57 23q16 0 30.5 -6t25.5 -17t17.5 -25.5t6.5 -31.5z" />
    <glyph glyph-name="Yacute" unicode="&#xdd;" horiz-adv-x="778" 
d="M304 365q-34 62 -68 116t-68 106.5t-68 106.5t-68 116q-10 23 -6.5 42.5t15 34t29.5 23t36 8.5q20 0 38 -9.5t29 -30.5l214 -330l209 328q11 23 30 33t40 10q19 0 37 -8.5t29.5 -23.5t14 -35.5t-7.5 -44.5l-279 -442v-302q0 -38 -24 -54.5t-53 -16.5q-16 0 -31 5
t-26.5 14t-17.5 22t-4 30v302zM463 982q-11 -19 -26 -26.5t-31 -7.5q-17 0 -34 10.5t-28 26.5t-13.5 35.5t9.5 36.5q11 18 23 37t23 37q12 17 27 25t31 8q17 0 33 -9t26.5 -23.5t14 -33t-5.5 -38.5z" />
    <glyph glyph-name="Thorn" unicode="&#xde;" horiz-adv-x="723" 
d="M188 -85q1 -35 -21.5 -53.5t-53.5 -18.5q-15 0 -29.5 4.5t-26 12.5t-18.5 20.5t-7 29.5v906q2 36 26 55t53 19t53 -18.5t24 -56.5v-107q35 20 74.5 30t77.5 10q85 3 149.5 -30.5t107.5 -89.5t64.5 -127.5t21.5 -145.5q0 -70 -21.5 -136t-63.5 -117t-103.5 -81t-142.5 -28
q-41 0 -83 14t-81 41v-133zM355 147q42 0 73 17.5t51.5 46.5t31 66t10.5 77q0 45 -11 88.5t-34 77.5t-56.5 54t-78.5 17q-44 -2 -85 -27.5t-68 -82.5v-200q13 -30 32.5 -55t42.5 -42t47 -27t45 -10z" />
    <glyph glyph-name="germandbls" unicode="&#xdf;" horiz-adv-x="714" 
d="M202 -2q-3 -32 -25.5 -48.5t-48.5 -16.5q-27 0 -48 17.5t-23 52.5q0 64 -0.5 144.5t-1 163.5t-1 163.5t-0.5 144.5q0 71 24 124t64 88.5t92 54.5t109 22q56 0 105 -17.5t85.5 -47t57.5 -68.5t21 -82q0 -47 -24 -94.5t-77 -91.5q49 -27 80.5 -58.5t50 -66t25.5 -70.5
t7 -72q0 -37 -13 -72.5t-38.5 -65.5t-63.5 -53t-89 -35q-24 -5 -46 -8.5t-44.5 -5t-47 0.5t-53.5 7q-27 7 -39 27.5t-12 44.5q0 15 4.5 29t13.5 24t21.5 15t27.5 3q35 -5 65 -7t71 7q50 13 74 36t25 48q1 53 -19 90t-55 58t-81 26t-96 -6q-15 -3 -27 3t-21 17t-13.5 26
t-4.5 30q0 27 15 49t45 24q27 2 46.5 6t36 11.5t31.5 18.5t34 26q43 36 43 70q0 17 -9.5 32t-26 26t-39 17.5t-48.5 5.5t-51.5 -9t-45.5 -25t-32 -43.5t-12 -65.5z" />
    <glyph glyph-name="agrave" unicode="&#xe0;" horiz-adv-x="717" 
d="M587 -5q-27 0 -48 15t-23 44q-38 -26 -78 -39.5t-78 -14.5q-80 -3 -140 27.5t-99.5 82.5t-58.5 118.5t-17 135.5q3 68 24.5 132.5t62.5 115t101 80.5t139 28q37 -1 75 -10.5t73 -30.5q8 24 27.5 35.5t42.5 11.5q27 0 50 -17.5t25 -52.5v-597q0 -16 -7 -28t-18 -20
t-25 -12t-28 -4zM198 353q0 -39 9.5 -76t29 -66t49.5 -46.5t71 -17.5q19 0 42 9t45 25.5t41 40t31 52.5v191q-26 54 -65 79t-80 27q-42 2 -74 -16.5t-54 -49.5t-33.5 -71t-11.5 -81zM272 916q-9 19 -6 37.5t13.5 32.5t27 23t33.5 9q16 0 31.5 -8t27.5 -25l46 -74
q11 -17 8.5 -36.5t-13 -35.5t-27.5 -26.5t-34 -10.5t-32 7.5t-25 26.5l2 -2q-12 19 -24.5 38t-24.5 38z" />
    <glyph glyph-name="aacute" unicode="&#xe1;" horiz-adv-x="717" 
d="M587 -5q-27 0 -48 15t-23 44q-38 -26 -78 -39.5t-78 -14.5q-80 -3 -140 27.5t-99.5 82.5t-58.5 118.5t-17 135.5q3 68 24.5 132.5t62.5 115t101 80.5t139 28q37 -1 75 -10.5t73 -30.5q8 24 27.5 35.5t42.5 11.5q27 0 50 -17.5t25 -52.5v-597q0 -16 -7 -28t-18 -20
t-25 -12t-28 -4zM198 353q0 -39 9.5 -76t29 -66t49.5 -46.5t71 -17.5q19 0 42 9t45 25.5t41 40t31 52.5v191q-26 54 -65 79t-80 27q-42 2 -74 -16.5t-54 -49.5t-33.5 -71t-11.5 -81zM432 839q-11 -19 -26 -26.5t-31 -7.5q-17 0 -34 10.5t-28 26.5t-13.5 35.5t9.5 36.5
q11 18 23 37t23 37q12 17 27 25t31 8q17 0 33 -9t26.5 -23.5t14 -33t-5.5 -38.5z" />
    <glyph glyph-name="acircumflex" unicode="&#xe2;" horiz-adv-x="717" 
d="M587 -5q-27 0 -48 15t-23 44q-38 -26 -78 -39.5t-78 -14.5q-80 -3 -140 27.5t-99.5 82.5t-58.5 118.5t-17 135.5q3 68 24.5 132.5t62.5 115t101 80.5t139 28q37 -1 75 -10.5t73 -30.5q8 24 27.5 35.5t42.5 11.5q27 0 50 -17.5t25 -52.5v-597q0 -16 -7 -28t-18 -20
t-25 -12t-28 -4zM198 353q0 -39 9.5 -76t29 -66t49.5 -46.5t71 -17.5q19 0 42 9t45 25.5t41 40t31 52.5v191q-26 54 -65 79t-80 27q-42 2 -74 -16.5t-54 -49.5t-33.5 -71t-11.5 -81zM306 807q-13 -16 -28.5 -18t-30 4.5t-26.5 19.5t-19 27t-6.5 28t10.5 22l103 94
q37 33 74 33q21 0 39 -8.5t36 -24.5l88 -81q22 -23 16 -48t-23.5 -43t-39.5 -24.5t-32 7.5q-19 17 -43.5 40t-43.5 40z" />
    <glyph glyph-name="atilde" unicode="&#xe3;" horiz-adv-x="717" 
d="M587 -5q-27 0 -48 15t-23 44q-38 -26 -78 -39.5t-78 -14.5q-80 -3 -140 27.5t-99.5 82.5t-58.5 118.5t-17 135.5q3 68 24.5 132.5t62.5 115t101 80.5t139 28q37 -1 75 -10.5t73 -30.5q8 24 27.5 35.5t42.5 11.5q27 0 50 -17.5t25 -52.5v-597q0 -16 -7 -28t-18 -20
t-25 -12t-28 -4zM198 353q0 -39 9.5 -76t29 -66t49.5 -46.5t71 -17.5q19 0 42 9t45 25.5t41 40t31 52.5v191q-26 54 -65 79t-80 27q-42 2 -74 -16.5t-54 -49.5t-33.5 -71t-11.5 -81zM292 852q-7 -25 -25 -37t-39 -12q-15 0 -29 6.5t-25 17.5t-16.5 26t-2.5 32q7 31 21 56
t33.5 41.5t42.5 25t49 7.5q22 -1 39.5 -7.5t32 -15.5t26 -19.5t21.5 -20.5q6 -7 12.5 -14t8.5 -7q-3 5 0 24q5 29 23.5 43.5t43.5 14.5q15 0 30 -5.5t26 -17t16 -28t1 -37.5q-6 -26 -15.5 -48t-25 -39.5t-38 -28t-52.5 -11.5h1q-26 -1 -45.5 4.5t-34.5 14.5t-26.5 21
t-21.5 23q-8 8 -14 14.5t-11 4.5q2 0 -5 -27z" />
    <glyph glyph-name="adieresis" unicode="&#xe4;" horiz-adv-x="717" 
d="M587 -5q-27 0 -48 15t-23 44q-38 -26 -78 -39.5t-78 -14.5q-80 -3 -140 27.5t-99.5 82.5t-58.5 118.5t-17 135.5q3 68 24.5 132.5t62.5 115t101 80.5t139 28q37 -1 75 -10.5t73 -30.5q8 24 27.5 35.5t42.5 11.5q27 0 50 -17.5t25 -52.5v-597q0 -16 -7 -28t-18 -20
t-25 -12t-28 -4zM198 353q0 -39 9.5 -76t29 -66t49.5 -46.5t71 -17.5q19 0 42 9t45 25.5t41 40t31 52.5v191q-26 54 -65 79t-80 27q-42 2 -74 -16.5t-54 -49.5t-33.5 -71t-11.5 -81zM347 868q0 -16 -6.5 -30.5t-17.5 -25.5t-25.5 -17.5t-30.5 -6.5q-17 0 -31.5 6.5
t-25.5 17.5t-17 25.5t-6 30.5q0 34 23 57t57 23q16 0 30.5 -6t25.5 -17t17.5 -25.5t6.5 -31.5zM533 868q0 -16 -6.5 -30.5t-17.5 -25.5t-25.5 -17.5t-30.5 -6.5q-17 0 -31.5 6.5t-25.5 17.5t-17 25.5t-6 30.5q0 34 23 57t57 23q16 0 30.5 -6t25.5 -17t17.5 -25.5t6.5 -31.5z
" />
    <glyph glyph-name="aring" unicode="&#xe5;" horiz-adv-x="717" 
d="M587 -5q-27 0 -48 15t-23 44q-38 -26 -78 -39.5t-78 -14.5q-80 -3 -140 27.5t-99.5 82.5t-58.5 118.5t-17 135.5q3 68 24.5 132.5t62.5 115t101 80.5t139 28q37 -1 75 -10.5t73 -30.5q8 24 27.5 35.5t42.5 11.5q27 0 50 -17.5t25 -52.5v-597q0 -16 -7 -28t-18 -20
t-25 -12t-28 -4zM198 353q0 -39 9.5 -76t29 -66t49.5 -46.5t71 -17.5q19 0 42 9t45 25.5t41 40t31 52.5v191q-26 54 -65 79t-80 27q-42 2 -74 -16.5t-54 -49.5t-33.5 -71t-11.5 -81zM362 911q0 -6 4.5 -10.5t11.5 -4.5q6 0 10.5 4.5t4.5 10.5q0 7 -4.5 11.5t-10.5 4.5
q-16 0 -16 -16zM495 910q0 -24 -9.5 -46t-25.5 -38t-37.5 -25.5t-45.5 -9.5q-25 0 -46.5 9.5t-37 25.5t-24.5 38t-9 46t9 45.5t24.5 37.5t37 25t46.5 9q24 0 45.5 -9t37.5 -25t25.5 -37.5t9.5 -45.5z" />
    <glyph glyph-name="ae" unicode="&#xe6;" horiz-adv-x="1111" 
d="M601 337q1 -37 12 -71.5t31 -61t50 -42.5t71 -16q21 0 42.5 7t40 22t33.5 39t24 57q5 33 26.5 49.5t47.5 16.5q29 0 52 -20.5t23 -62.5q-14 -65 -43 -113t-67.5 -79.5t-84 -47t-92.5 -15.5q-61 -2 -115 16.5t-92 51.5q-43 -38 -92 -58t-96 -21q-80 -2 -140 28.5t-99.5 82
t-58.5 118t-17 135.5q3 68 24.5 133t62.5 115.5t101 80.5t139 28q47 -2 95.5 -17t88.5 -49q39 34 89.5 53.5t111.5 19.5q65 0 113.5 -25.5t82 -66t52.5 -91t25 -99.5q3 -21 -0.5 -39t-16.5 -31t-36 -20t-60 -7h-328zM370 136q24 0 52.5 14t54.5 38q-14 35 -21 72.5t-8 77.5
q-29 6 -42 27t-13 46q0 27 17.5 50t52.5 25h6q2 9 5.5 17t6.5 16q-23 20 -48 29t-50 11q-42 2 -74 -16t-54 -49t-33.5 -71t-11.5 -82q0 -39 9.5 -76t29.5 -65.5t50 -46t71 -17.5zM771 567q-48 0 -81.5 -21.5t-54.5 -59.5h243q-14 35 -41 58t-66 23z" />
    <glyph glyph-name="ccedilla" unicode="&#xe7;" 
d="M296 -255q-25 4 -39 25t-14 44q0 27 15 46t50 16q-19 4 -32 15t-20.5 26t-11 32t-3.5 34q0 10 0.5 18.5t1.5 13.5v2q-50 19 -87 53t-62 78.5t-37.5 96.5t-11.5 106q1 69 22.5 135t63 118t102.5 83.5t139 31.5q46 -3 87.5 -21t74 -49t54 -72.5t27.5 -90.5v-5
q0 -40 -23 -59.5t-52 -19.5q-24 0 -46 15.5t-28 48.5q-9 45 -32 73.5t-63 30.5q-43 2 -75 -17t-54 -51t-32.5 -73t-10.5 -83q0 -39 10 -75t29.5 -63.5t49.5 -44.5t70 -17q21 0 42.5 7t40 22t33 39t23.5 57q5 33 27 49.5t48 16.5q29 0 51.5 -20.5t22.5 -62.5
q-13 -62 -39.5 -108t-62.5 -77.5t-78.5 -48.5t-86.5 -20v-6q37 -16 56 -50t19 -72q0 -24 -8 -47.5t-23.5 -42t-39.5 -29.5t-56 -11q-8 0 -16.5 0.5t-16.5 2.5h2z" />
    <glyph glyph-name="egrave" unicode="&#xe8;" horiz-adv-x="739" 
d="M251 337q1 -37 11.5 -71.5t31 -61t50.5 -42.5t71 -16q21 0 43 6t41 17.5t33.5 28.5t21.5 40q5 33 27 49.5t48 16.5q29 0 51.5 -21t22.5 -63q-14 -53 -43 -94t-67.5 -69t-84 -43t-92.5 -15q-77 -2 -136 26t-99 75.5t-61 109.5t-22 128q-29 6 -42.5 27t-13.5 46q0 27 18 50
t53 25h6q16 46 43.5 88t65 73.5t85.5 50t106 18.5q65 0 113.5 -25.5t81.5 -66t52.5 -91t25.5 -99.5q2 -21 -1.5 -39t-16 -31t-35.5 -20t-60 -7h-328zM421 572q-24 0 -46 -7.5t-40 -19.5t-31 -27.5t-19 -31.5h243q-3 15 -13 30t-24.5 27.5t-32.5 20.5t-37 8zM320 922
q-9 19 -6 37.5t13.5 32.5t27 23t33.5 9q16 0 31.5 -8t27.5 -25l46 -74q11 -17 8.5 -36.5t-13 -35.5t-27.5 -26.5t-34 -10.5t-32 7.5t-25 26.5l2 -2q-12 19 -24.5 38t-24.5 38z" />
    <glyph glyph-name="eacute" unicode="&#xe9;" horiz-adv-x="739" 
d="M251 337q1 -37 11.5 -71.5t31 -61t50.5 -42.5t71 -16q21 0 43 6t41 17.5t33.5 28.5t21.5 40q5 33 27 49.5t48 16.5q29 0 51.5 -21t22.5 -63q-14 -53 -43 -94t-67.5 -69t-84 -43t-92.5 -15q-77 -2 -136 26t-99 75.5t-61 109.5t-22 128q-29 6 -42.5 27t-13.5 46q0 27 18 50
t53 25h6q16 46 43.5 88t65 73.5t85.5 50t106 18.5q65 0 113.5 -25.5t81.5 -66t52.5 -91t25.5 -99.5q2 -21 -1.5 -39t-16 -31t-35.5 -20t-60 -7h-328zM421 572q-24 0 -46 -7.5t-40 -19.5t-31 -27.5t-19 -31.5h243q-3 15 -13 30t-24.5 27.5t-32.5 20.5t-37 8zM472 833
q-11 -19 -26 -26.5t-31 -7.5q-17 0 -34 10.5t-28 26.5t-13.5 35.5t9.5 36.5q11 18 23 37t23 37q12 17 27 25t31 8q17 0 33 -9t26.5 -23.5t14 -33t-5.5 -38.5z" />
    <glyph glyph-name="ecircumflex" unicode="&#xea;" horiz-adv-x="739" 
d="M251 337q1 -37 11.5 -71.5t31 -61t50.5 -42.5t71 -16q21 0 43 6t41 17.5t33.5 28.5t21.5 40q5 33 27 49.5t48 16.5q29 0 51.5 -21t22.5 -63q-14 -53 -43 -94t-67.5 -69t-84 -43t-92.5 -15q-77 -2 -136 26t-99 75.5t-61 109.5t-22 128q-29 6 -42.5 27t-13.5 46q0 27 18 50
t53 25h6q16 46 43.5 88t65 73.5t85.5 50t106 18.5q65 0 113.5 -25.5t81.5 -66t52.5 -91t25.5 -99.5q2 -21 -1.5 -39t-16 -31t-35.5 -20t-60 -7h-328zM421 572q-24 0 -46 -7.5t-40 -19.5t-31 -27.5t-19 -31.5h243q-3 15 -13 30t-24.5 27.5t-32.5 20.5t-37 8zM318 802
q-13 -16 -28.5 -18t-30 4.5t-26.5 19.5t-19 27t-6.5 28t10.5 22l103 94q37 33 74 33q21 0 39 -8.5t36 -24.5l88 -81q22 -23 16 -48t-23.5 -43t-39.5 -24.5t-32 7.5q-19 17 -43.5 40t-43.5 40z" />
    <glyph glyph-name="edieresis" unicode="&#xeb;" horiz-adv-x="739" 
d="M251 337q1 -37 11.5 -71.5t31 -61t50.5 -42.5t71 -16q21 0 43 6t41 17.5t33.5 28.5t21.5 40q5 33 27 49.5t48 16.5q29 0 51.5 -21t22.5 -63q-14 -53 -43 -94t-67.5 -69t-84 -43t-92.5 -15q-77 -2 -136 26t-99 75.5t-61 109.5t-22 128q-29 6 -42.5 27t-13.5 46q0 27 18 50
t53 25h6q16 46 43.5 88t65 73.5t85.5 50t106 18.5q65 0 113.5 -25.5t81.5 -66t52.5 -91t25.5 -99.5q2 -21 -1.5 -39t-16 -31t-35.5 -20t-60 -7h-328zM421 572q-24 0 -46 -7.5t-40 -19.5t-31 -27.5t-19 -31.5h243q-3 15 -13 30t-24.5 27.5t-32.5 20.5t-37 8zM397 891
q0 -16 -6.5 -30.5t-17.5 -25.5t-25.5 -17.5t-30.5 -6.5q-17 0 -31.5 6.5t-25.5 17.5t-17 25.5t-6 30.5q0 34 23 57t57 23q16 0 30.5 -6t25.5 -17t17.5 -25.5t6.5 -31.5zM583 891q0 -16 -6.5 -30.5t-17.5 -25.5t-25.5 -17.5t-30.5 -6.5q-17 0 -31.5 6.5t-25.5 17.5t-17 25.5
t-6 30.5q0 34 23 57t57 23q16 0 30.5 -6t25.5 -17t17.5 -25.5t6.5 -31.5z" />
    <glyph glyph-name="igrave" unicode="&#xec;" horiz-adv-x="229" 
d="M41 643q0 36 23 53.5t51 17.5q27 0 50 -18t25 -53v-574q0 -36 -23 -52t-50 -16q-15 0 -30 5t-25.5 14t-16.5 22.5t-3 31.5l-1 -5v574zM4 928q-9 19 -6 37.5t13.5 32.5t27 23t33.5 9q16 0 31.5 -8t27.5 -25l46 -74q11 -17 8.5 -36.5t-13 -35.5t-27.5 -26.5t-34 -10.5
t-32 7.5t-25 26.5l2 -2q-12 19 -24.5 38t-24.5 38z" />
    <glyph glyph-name="iacute" unicode="&#xed;" horiz-adv-x="232" 
d="M41 643q0 36 23 53.5t51 17.5q27 0 50 -18t25 -53v-574q0 -36 -23 -52t-50 -16q-15 0 -30 5t-25.5 14t-16.5 22.5t-3 31.5l-1 -5v574zM159 833q-11 -19 -26 -26.5t-31 -7.5q-17 0 -34 10.5t-28 26.5t-13.5 35.5t9.5 36.5q11 18 23 37t23 37q12 17 27 25t31 8q17 0 33 -9
t26.5 -23.5t14 -33t-5.5 -38.5z" />
    <glyph glyph-name="icircumflex" unicode="&#xee;" horiz-adv-x="247" 
d="M41 643q0 36 23 53.5t51 17.5q27 0 50 -18t25 -53v-574q0 -36 -23 -52t-50 -16q-15 0 -30 5t-25.5 14t-16.5 22.5t-3 31.5l-1 -5v574zM37 787q-13 -16 -28.5 -18t-30 4.5t-26.5 19.5t-19 27t-6.5 28t10.5 22l103 94q37 33 74 33q21 0 39 -8.5t36 -24.5l88 -81
q22 -23 16 -48t-23.5 -43t-39.5 -24.5t-32 7.5q-19 17 -43.5 40t-43.5 40z" />
    <glyph glyph-name="idieresis" unicode="&#xef;" horiz-adv-x="234" 
d="M41 643q0 36 23 53.5t51 17.5q27 0 50 -18t25 -53v-574q0 -36 -23 -52t-50 -16q-15 0 -30 5t-25.5 14t-16.5 22.5t-3 31.5l-1 -5v574zM109 870q0 -16 -6.5 -30.5t-17.5 -25.5t-25.5 -17.5t-30.5 -6.5q-17 0 -31.5 6.5t-25.5 17.5t-17 25.5t-6 30.5q0 34 23 57t57 23
q16 0 30.5 -6t25.5 -17t17.5 -25.5t6.5 -31.5zM295 870q0 -16 -6.5 -30.5t-17.5 -25.5t-25.5 -17.5t-30.5 -6.5q-17 0 -31.5 6.5t-25.5 17.5t-17 25.5t-6 30.5q0 34 23 57t57 23q16 0 30.5 -6t25.5 -17t17.5 -25.5t6.5 -31.5z" />
    <glyph glyph-name="ntilde" unicode="&#xf1;" horiz-adv-x="641" 
d="M188 63q0 -36 -22.5 -52t-50.5 -16q-15 0 -29.5 5t-25.5 14t-16.5 23t-3.5 32v-6v586q0 37 22.5 54t50.5 17q20 0 39 -10.5t29 -30.5q35 17 74 25.5t78 4.5q50 -6 89.5 -25.5t68.5 -50.5t49.5 -70t32.5 -84q20 -73 25 -151.5t5 -150.5v-113q1 -35 -23 -54.5t-54 -19.5
q-15 0 -29 5t-25 14.5t-17.5 24t-4.5 34.5q0 10 0.5 21.5t0.5 25.5q1 17 1 36v41q0 58 -4.5 122.5t-18.5 118.5q-14 51 -38.5 86t-66.5 39q-39 4 -76 -12t-60 -53v-430zM257 837q-7 -25 -25 -37t-39 -12q-15 0 -29 6.5t-25 17.5t-16.5 26t-2.5 32q7 31 21 56t33.5 41.5
t42.5 25t49 7.5q22 -1 39.5 -7.5t32 -15.5t26 -19.5t21.5 -20.5q6 -7 12.5 -14t8.5 -7q-3 5 0 24q5 29 23.5 43.5t43.5 14.5q15 0 30 -5.5t26 -17t16 -28t1 -37.5q-6 -26 -15.5 -48t-25 -39.5t-38 -28t-52.5 -11.5h1q-26 -1 -45.5 4.5t-34.5 14.5t-26.5 21t-21.5 23
q-8 8 -14 14.5t-11 4.5q2 0 -5 -27z" />
    <glyph glyph-name="ograve" unicode="&#xf2;" horiz-adv-x="738" 
d="M374 0q-73 0 -133 29t-102.5 78.5t-65.5 116t-23 140.5q0 67 20 131t59.5 114t98.5 80.5t138 30.5q84 0 146 -34t102.5 -88.5t59 -124t15.5 -139.5q-3 -65 -24.5 -125t-60.5 -106.5t-96.5 -74.5t-133.5 -28zM375 147q40 0 69.5 16t49.5 43t30.5 61.5t11.5 71.5
q1 42 -9 83.5t-31.5 74.5t-54.5 53.5t-76 20.5q-40 0 -70.5 -20.5t-51 -52.5t-30.5 -72.5t-8 -79.5q1 -37 13 -72.5t33.5 -63.5t52.5 -45.5t71 -17.5zM286 931q-9 19 -6 37.5t13.5 32.5t27 23t33.5 9q16 0 31.5 -8t27.5 -25l46 -74q11 -17 8.5 -36.5t-13 -35.5t-27.5 -26.5
t-34 -10.5t-32 7.5t-25 26.5l2 -2q-12 19 -24.5 38t-24.5 38z" />
    <glyph glyph-name="oacute" unicode="&#xf3;" horiz-adv-x="738" 
d="M374 0q-73 0 -133 29t-102.5 78.5t-65.5 116t-23 140.5q0 67 20 131t59.5 114t98.5 80.5t138 30.5q84 0 146 -34t102.5 -88.5t59 -124t15.5 -139.5q-3 -65 -24.5 -125t-60.5 -106.5t-96.5 -74.5t-133.5 -28zM375 147q40 0 69.5 16t49.5 43t30.5 61.5t11.5 71.5
q1 42 -9 83.5t-31.5 74.5t-54.5 53.5t-76 20.5q-40 0 -70.5 -20.5t-51 -52.5t-30.5 -72.5t-8 -79.5q1 -37 13 -72.5t33.5 -63.5t52.5 -45.5t71 -17.5zM458 842q-11 -19 -26 -26.5t-31 -7.5q-17 0 -34 10.5t-28 26.5t-13.5 35.5t9.5 36.5q11 18 23 37t23 37q12 17 27 25t31 8
q17 0 33 -9t26.5 -23.5t14 -33t-5.5 -38.5z" />
    <glyph glyph-name="ocircumflex" unicode="&#xf4;" horiz-adv-x="738" 
d="M374 0q-73 0 -133 29t-102.5 78.5t-65.5 116t-23 140.5q0 67 20 131t59.5 114t98.5 80.5t138 30.5q84 0 146 -34t102.5 -88.5t59 -124t15.5 -139.5q-3 -65 -24.5 -125t-60.5 -106.5t-96.5 -74.5t-133.5 -28zM375 147q40 0 69.5 16t49.5 43t30.5 61.5t11.5 71.5
q1 42 -9 83.5t-31.5 74.5t-54.5 53.5t-76 20.5q-40 0 -70.5 -20.5t-51 -52.5t-30.5 -72.5t-8 -79.5q1 -37 13 -72.5t33.5 -63.5t52.5 -45.5t71 -17.5zM285 831q-13 -16 -28.5 -18t-30 4.5t-26.5 19.5t-19 27t-6.5 28t10.5 22l103 94q37 33 74 33q21 0 39 -8.5t36 -24.5
l88 -81q22 -23 16 -48t-23.5 -43t-39.5 -24.5t-32 7.5q-19 17 -43.5 40t-43.5 40z" />
    <glyph glyph-name="otilde" unicode="&#xf5;" horiz-adv-x="738" 
d="M374 0q-73 0 -133 29t-102.5 78.5t-65.5 116t-23 140.5q0 67 20 131t59.5 114t98.5 80.5t138 30.5q84 0 146 -34t102.5 -88.5t59 -124t15.5 -139.5q-3 -65 -24.5 -125t-60.5 -106.5t-96.5 -74.5t-133.5 -28zM375 147q40 0 69.5 16t49.5 43t30.5 61.5t11.5 71.5
q1 42 -9 83.5t-31.5 74.5t-54.5 53.5t-76 20.5q-40 0 -70.5 -20.5t-51 -52.5t-30.5 -72.5t-8 -79.5q1 -37 13 -72.5t33.5 -63.5t52.5 -45.5t71 -17.5zM274 845q-7 -25 -25 -37t-39 -12q-15 0 -29 6.5t-25 17.5t-16.5 26t-2.5 32q7 31 21 56t33.5 41.5t42.5 25t49 7.5
q22 -1 39.5 -7.5t32 -15.5t26 -19.5t21.5 -20.5q6 -7 12.5 -14t8.5 -7q-3 5 0 24q5 29 23.5 43.5t43.5 14.5q15 0 30 -5.5t26 -17t16 -28t1 -37.5q-6 -26 -15.5 -48t-25 -39.5t-38 -28t-52.5 -11.5h1q-26 -1 -45.5 4.5t-34.5 14.5t-26.5 21t-21.5 23q-8 8 -14 14.5t-11 4.5
q2 0 -5 -27z" />
    <glyph glyph-name="odieresis" unicode="&#xf6;" horiz-adv-x="738" 
d="M374 0q-73 0 -133 29t-102.5 78.5t-65.5 116t-23 140.5q0 67 20 131t59.5 114t98.5 80.5t138 30.5q84 0 146 -34t102.5 -88.5t59 -124t15.5 -139.5q-3 -65 -24.5 -125t-60.5 -106.5t-96.5 -74.5t-133.5 -28zM375 147q40 0 69.5 16t49.5 43t30.5 61.5t11.5 71.5
q1 42 -9 83.5t-31.5 74.5t-54.5 53.5t-76 20.5q-40 0 -70.5 -20.5t-51 -52.5t-30.5 -72.5t-8 -79.5q1 -37 13 -72.5t33.5 -63.5t52.5 -45.5t71 -17.5zM368 896q0 -16 -6.5 -30.5t-17.5 -25.5t-25.5 -17.5t-30.5 -6.5q-17 0 -31.5 6.5t-25.5 17.5t-17 25.5t-6 30.5
q0 34 23 57t57 23q16 0 30.5 -6t25.5 -17t17.5 -25.5t6.5 -31.5zM554 896q0 -16 -6.5 -30.5t-17.5 -25.5t-25.5 -17.5t-30.5 -6.5q-17 0 -31.5 6.5t-25.5 17.5t-17 25.5t-6 30.5q0 34 23 57t57 23q16 0 30.5 -6t25.5 -17t17.5 -25.5t6.5 -31.5z" />
    <glyph glyph-name="divide" unicode="&#xf7;" horiz-adv-x="554" 
d="M361 212q0 -33 -24 -57t-57 -24t-56 24t-23 57t23 56t56 23t57 -23t24 -56zM352 638q0 -33 -24 -56.5t-57 -23.5t-56 23.5t-23 56.5t23 56t56 23t57 -23t24 -56zM126 351q-37 0 -54 23t-17 51q0 27 17.5 50t52.5 25h293q36 0 52 -23t16 -50q0 -15 -5 -29.5t-14 -25.5
t-22.5 -16.5t-31.5 -3.5l5 -1h-292z" />
    <glyph glyph-name="oslash" unicode="&#xf8;" horiz-adv-x="738" 
d="M360 0q-72 0 -130 26q-9 -11 -22 -17t-27 -6q-18 0 -35.5 8.5t-29.5 23.5t-16 34.5t7 40.5l6 10q-35 46 -53.5 101.5t-22.5 115.5v-2q-1 7 -1 14v15q0 67 20 131t59.5 114t98.5 80.5t138 30.5q35 0 65.5 -6t57.5 -17q11 17 28 26t34 9q18 0 35 -8.5t27.5 -23.5t13 -34.5
t-7.5 -41.5l-12 -17q44 -56 65 -129t17 -145v1q-3 -65 -24.5 -125t-60.5 -106.5t-96.5 -74.5t-133.5 -28zM361 147q40 0 69.5 16t50 43t30.5 61.5t11 71.5q1 30 -4.5 61t-16.5 58q-25 -39 -47.5 -75.5t-45.5 -72.5t-46.5 -74t-50.5 -81q11 -3 23.5 -5.5t26.5 -2.5zM191 346
q2 -41 14 -80q24 39 47 75t45.5 71.5t46 73t49.5 79.5q-10 2 -20.5 4t-21.5 2q-42 0 -72.5 -19.5t-51 -51.5t-29.5 -72.5t-7 -81.5z" />
    <glyph glyph-name="ugrave" unicode="&#xf9;" horiz-adv-x="659" 
d="M459 647q0 35 23 51t50 16q15 0 29.5 -4.5t25.5 -14t16.5 -23t3.5 -31.5l1 6v-587q0 -36 -23 -53.5t-51 -17.5q-21 0 -39.5 10.5t-28.5 30.5q-35 -17 -74.5 -25t-77.5 -5q-50 6 -89.5 26t-69 50.5t-49.5 70t-32 84.5q-20 72 -25 150.5t-5 150.5v113q-1 36 23 55t54 19
q15 0 29 -4.5t25 -14.5t17 -24.5t5 -33.5q0 -11 -0.5 -22.5t-0.5 -24.5q-1 -18 -1 -37v-40q0 -58 4.5 -122.5t18.5 -119.5v1q14 -51 38.5 -86.5t66.5 -39.5q38 -4 75.5 13t60.5 52v431zM243 899q-9 19 -6 37.5t13.5 32.5t27 23t33.5 9q16 0 31.5 -8t27.5 -25l46 -74
q11 -17 8.5 -36.5t-13 -35.5t-27.5 -26.5t-34 -10.5t-32 7.5t-25 26.5l2 -2q-12 19 -24.5 38t-24.5 38z" />
    <glyph glyph-name="uacute" unicode="&#xfa;" horiz-adv-x="659" 
d="M459 647q0 35 23 51t50 16q15 0 29.5 -4.5t25.5 -14t16.5 -23t3.5 -31.5l1 6v-587q0 -36 -23 -53.5t-51 -17.5q-21 0 -39.5 10.5t-28.5 30.5q-35 -17 -74.5 -25t-77.5 -5q-50 6 -89.5 26t-69 50.5t-49.5 70t-32 84.5q-20 72 -25 150.5t-5 150.5v113q-1 36 23 55t54 19
q15 0 29 -4.5t25 -14.5t17 -24.5t5 -33.5q0 -11 -0.5 -22.5t-0.5 -24.5q-1 -18 -1 -37v-40q0 -58 4.5 -122.5t18.5 -119.5v1q14 -51 38.5 -86.5t66.5 -39.5q38 -4 75.5 13t60.5 52v431zM403 816q-11 -19 -26 -26.5t-31 -7.5q-17 0 -34 10.5t-28 26.5t-13.5 35.5t9.5 36.5
q11 18 23 37t23 37q12 17 27 25t31 8q17 0 33 -9t26.5 -23.5t14 -33t-5.5 -38.5z" />
    <glyph glyph-name="ucircumflex" unicode="&#xfb;" horiz-adv-x="659" 
d="M459 647q0 35 23 51t50 16q15 0 29.5 -4.5t25.5 -14t16.5 -23t3.5 -31.5l1 6v-587q0 -36 -23 -53.5t-51 -17.5q-21 0 -39.5 10.5t-28.5 30.5q-35 -17 -74.5 -25t-77.5 -5q-50 6 -89.5 26t-69 50.5t-49.5 70t-32 84.5q-20 72 -25 150.5t-5 150.5v113q-1 36 23 55t54 19
q15 0 29 -4.5t25 -14.5t17 -24.5t5 -33.5q0 -11 -0.5 -22.5t-0.5 -24.5q-1 -18 -1 -37v-40q0 -58 4.5 -122.5t18.5 -119.5v1q14 -51 38.5 -86.5t66.5 -39.5q38 -4 75.5 13t60.5 52v431zM242 802q-13 -16 -28.5 -18t-30 4.5t-26.5 19.5t-19 27t-6.5 28t10.5 22l103 94
q37 33 74 33q21 0 39 -8.5t36 -24.5l88 -81q22 -23 16 -48t-23.5 -43t-39.5 -24.5t-32 7.5q-19 17 -43.5 40t-43.5 40z" />
    <glyph glyph-name="udieresis" unicode="&#xfc;" horiz-adv-x="659" 
d="M459 647q0 35 23 51t50 16q15 0 29.5 -4.5t25.5 -14t16.5 -23t3.5 -31.5l1 6v-587q0 -36 -23 -53.5t-51 -17.5q-21 0 -39.5 10.5t-28.5 30.5q-35 -17 -74.5 -25t-77.5 -5q-50 6 -89.5 26t-69 50.5t-49.5 70t-32 84.5q-20 72 -25 150.5t-5 150.5v113q-1 36 23 55t54 19
q15 0 29 -4.5t25 -14.5t17 -24.5t5 -33.5q0 -11 -0.5 -22.5t-0.5 -24.5q-1 -18 -1 -37v-40q0 -58 4.5 -122.5t18.5 -119.5v1q14 -51 38.5 -86.5t66.5 -39.5q38 -4 75.5 13t60.5 52v431zM318 868q0 -16 -6.5 -30.5t-17.5 -25.5t-25.5 -17.5t-30.5 -6.5q-17 0 -31.5 6.5
t-25.5 17.5t-17 25.5t-6 30.5q0 34 23 57t57 23q16 0 30.5 -6t25.5 -17t17.5 -25.5t6.5 -31.5zM504 868q0 -16 -6.5 -30.5t-17.5 -25.5t-25.5 -17.5t-30.5 -6.5q-17 0 -31.5 6.5t-25.5 17.5t-17 25.5t-6 30.5q0 34 23 57t57 23q16 0 30.5 -6t25.5 -17t17.5 -25.5t6.5 -31.5z
" />
    <glyph glyph-name="yacute" unicode="&#xfd;" horiz-adv-x="800" 
d="M375 -215q-15 -40 -61 -40q-17 0 -35 8t-30 22t-16.5 32.5t5.5 38.5q11 24 23.5 51.5t25 56t24.5 56.5t23 52l-278 537q-12 20 -9.5 40.5t13 36.5t28 26t35.5 10q15 0 30 -6.5t26 -23.5l228 -455q49 112 99 223t99 223q11 23 28.5 31.5t36.5 8.5q17 0 33.5 -8t27.5 -22
t14.5 -32.5t-4.5 -39.5zM437 816q-11 -19 -26 -26.5t-31 -7.5q-17 0 -34 10.5t-28 26.5t-13.5 35.5t9.5 36.5q11 18 23 37t23 37q12 17 27 25t31 8q17 0 33 -9t26.5 -23.5t14 -33t-5.5 -38.5z" />
    <glyph glyph-name="thorn" unicode="&#xfe;" horiz-adv-x="715" 
d="M200 -40q2 -35 -20 -52t-51 -17q-14 0 -27.5 4t-24.5 12t-18 20t-7 28v886q2 35 25 52.5t50 17.5q28 0 50.5 -17t22.5 -54v-111q35 20 72 28.5t73 9.5q81 2 142.5 -29.5t102.5 -85t61.5 -121.5t20.5 -138q0 -67 -20 -130.5t-60 -112t-98.5 -77t-136.5 -26.5
q-38 0 -78.5 13.5t-78.5 39.5v-140zM200 321q12 -29 31 -52.5t41 -40t44.5 -25.5t42.5 -9q40 0 69.5 16t49 43.5t29.5 63t11 73.5q1 43 -9.5 84.5t-32.5 74t-54.5 51.5t-75.5 17q-41 -2 -80.5 -26.5t-65.5 -78.5v-191z" />
    <glyph glyph-name="ydieresis" unicode="&#xff;" horiz-adv-x="806" 
d="M381 -215q-15 -40 -61 -40q-17 0 -35 8t-30 22t-16.5 32.5t5.5 38.5q11 24 23.5 51.5t25 56t24.5 56.5t23 52l-278 537q-12 20 -9.5 40.5t13 36.5t28 26t35.5 10q15 0 30 -6.5t26 -23.5l228 -455q49 112 99 223t99 223q11 23 28.5 31.5t36.5 8.5q17 0 33.5 -8t27.5 -22
t14.5 -32.5t-4.5 -39.5zM358 868q0 -16 -6.5 -30.5t-17.5 -25.5t-25.5 -17.5t-30.5 -6.5q-17 0 -31.5 6.5t-25.5 17.5t-17 25.5t-6 30.5q0 34 23 57t57 23q16 0 30.5 -6t25.5 -17t17.5 -25.5t6.5 -31.5zM544 868q0 -16 -6.5 -30.5t-17.5 -25.5t-25.5 -17.5t-30.5 -6.5
q-17 0 -31.5 6.5t-25.5 17.5t-17 25.5t-6 30.5q0 34 23 57t57 23q16 0 30.5 -6t25.5 -17t17.5 -25.5t6.5 -31.5z" />
    <glyph glyph-name="Amacron" unicode="&#x100;" horiz-adv-x="851" 
d="M321 848q11 35 36 52t54 17q28 0 52.5 -16.5t38.5 -46.5l312 -751q9 -22 5 -41.5t-15.5 -34t-28.5 -23t-35 -8.5q-21 0 -39.5 11t-29.5 33q-23 56 -43.5 104t-44.5 105h-321q-21 -53 -42 -105.5t-41 -104.5q-10 -23 -28.5 -34t-39.5 -11q-18 0 -35.5 8t-29.5 22t-16 33
t5 41zM321 405h196q-14 33 -25 62.5t-22.5 60.5t-24 65t-30.5 76zM252 946q-37 0 -54 22.5t-17 50.5q0 27 17.5 50.5t52.5 25.5h294q35 0 51.5 -23t16.5 -51q0 -15 -5 -29.5t-14 -25t-23 -16.5t-32 -3l6 -1h-293z" />
    <glyph glyph-name="amacron" unicode="&#x101;" horiz-adv-x="717" 
d="M587 -5q-27 0 -48 15t-23 44q-38 -26 -78 -39.5t-78 -14.5q-80 -3 -140 27.5t-99.5 82.5t-58.5 118.5t-17 135.5q3 68 24.5 132.5t62.5 115t101 80.5t139 28q37 -1 75 -10.5t73 -30.5q8 24 27.5 35.5t42.5 11.5q27 0 50 -17.5t25 -52.5v-597q0 -16 -7 -28t-18 -20
t-25 -12t-28 -4zM198 353q0 -39 9.5 -76t29 -66t49.5 -46.5t71 -17.5q19 0 42 9t45 25.5t41 40t31 52.5v191q-26 54 -65 79t-80 27q-42 2 -74 -16.5t-54 -49.5t-33.5 -71t-11.5 -81zM212 795q-37 0 -54 22.5t-17 50.5q0 27 17.5 50.5t52.5 25.5h294q35 0 51.5 -23t16.5 -51
q0 -15 -5 -29.5t-14 -25t-23 -16.5t-32 -3l6 -1h-293z" />
    <glyph glyph-name="Abreve" unicode="&#x102;" horiz-adv-x="851" 
d="M321 848q11 35 36 52t54 17q28 0 52.5 -16.5t38.5 -46.5l312 -751q9 -22 5 -41.5t-15.5 -34t-28.5 -23t-35 -8.5q-21 0 -39.5 11t-29.5 33q-23 56 -43.5 104t-44.5 105h-321q-21 -53 -42 -105.5t-41 -104.5q-10 -23 -28.5 -34t-39.5 -11q-18 0 -35.5 8t-29.5 22t-16 33
t5 41zM321 405h196q-14 33 -25 62.5t-22.5 60.5t-24 65t-30.5 76zM391 1103q12 -19 31 -19q11 0 20.5 7t18.5 17q28 29 55.5 27.5t45.5 -20.5t22.5 -48t-13.5 -54q-32 -36 -70.5 -52.5t-76.5 -16.5q-47 0 -86.5 21.5t-63.5 57.5q-14 22 -13 42t11.5 35.5t27.5 25t35 9.5
q16 0 31 -7.5t26 -24.5h-1zM577 1020q-1 -4 -6 -7q5 5 6 7z" />
    <glyph glyph-name="abreve" unicode="&#x103;" horiz-adv-x="717" 
d="M587 -5q-27 0 -48 15t-23 44q-38 -26 -78 -39.5t-78 -14.5q-80 -3 -140 27.5t-99.5 82.5t-58.5 118.5t-17 135.5q3 68 24.5 132.5t62.5 115t101 80.5t139 28q37 -1 75 -10.5t73 -30.5q8 24 27.5 35.5t42.5 11.5q27 0 50 -17.5t25 -52.5v-597q0 -16 -7 -28t-18 -20
t-25 -12t-28 -4zM198 353q0 -39 9.5 -76t29 -66t49.5 -46.5t71 -17.5q19 0 42 9t45 25.5t41 40t31 52.5v191q-26 54 -65 79t-80 27q-42 2 -74 -16.5t-54 -49.5t-33.5 -71t-11.5 -81zM342 949q12 -19 31 -19q11 0 20.5 7t18.5 17q28 29 55.5 27.5t45.5 -20.5t22.5 -48
t-13.5 -54q-32 -36 -70.5 -52.5t-76.5 -16.5q-47 0 -86.5 21.5t-63.5 57.5q-14 22 -13 42t11.5 35.5t27.5 25t35 9.5q16 0 31 -7.5t26 -24.5h-1zM528 866q-1 -4 -6 -7q5 5 6 7z" />
    <glyph glyph-name="Aogonek" unicode="&#x104;" horiz-adv-x="851" 
d="M669 -136q-20 24 -28.5 50.5t-8.5 54.5q0 26 7.5 51.5t20.5 46.5q-20 47 -38 89t-39 93h-321q-21 -53 -42 -105.5t-41 -104.5q-10 -23 -28.5 -34t-39.5 -11q-18 0 -35.5 8t-29.5 22t-16 33t5 41l286 750q11 35 36 52t54 17q28 0 52.5 -16.5t38.5 -46.5l312 -751
q12 -32 0 -57.5t-35 -39.5q-4 -8 -6.5 -17t-2.5 -17t7 -14q25 -20 28.5 -41t-7.5 -38.5t-31.5 -28.5t-43.5 -11q-15 0 -28.5 5.5t-24.5 18.5zM321 405h196q-14 33 -25 62.5t-22.5 60.5t-24 65t-30.5 76z" />
    <glyph glyph-name="aogonek" unicode="&#x105;" horiz-adv-x="717" 
d="M517 -163q-20 24 -28.5 50.5t-8.5 54.5q0 31 9.5 59.5t26.5 50.5v2q-38 -26 -78 -39.5t-78 -14.5q-80 -3 -140 27.5t-99.5 82.5t-58.5 118.5t-17 135.5q3 68 24.5 132.5t62.5 115t101 80.5t139 28q37 -1 75 -10.5t73 -30.5q8 24 27.5 35.5t42.5 11.5q27 0 50 -17.5
t25 -52.5v-597q0 -17 -7.5 -29t-18.5 -20q-1 -2 -1.5 -5t-1.5 -5q-6 -14 -12 -28.5t-6 -26.5q0 -8 7 -14q25 -20 28.5 -41t-7.5 -38.5t-31.5 -28.5t-43.5 -11q-15 0 -28.5 5.5t-24.5 18.5zM198 353q0 -39 9.5 -76t29 -66t49.5 -46.5t71 -17.5q19 0 42 9t45 25.5t41 40
t31 52.5v191q-26 54 -65 79t-80 27q-42 2 -74 -16.5t-54 -49.5t-33.5 -71t-11.5 -81z" />
    <glyph glyph-name="Cacute" unicode="&#x106;" horiz-adv-x="743" 
d="M713 679q3 -17 -3.5 -33t-19 -28.5t-28.5 -20t-32 -7.5q-22 0 -40.5 11.5t-27.5 38.5q-12 36 -31.5 60t-41.5 38t-43 20t-36 6q-55 -2 -96.5 -34.5t-69 -82t-41.5 -109t-14 -116.5q0 -40 9.5 -87t31.5 -88t57.5 -69t88.5 -29q29 -1 58 8t54 28t45.5 47.5t32.5 66.5
q7 33 29 50t48 17q15 0 30.5 -6.5t27.5 -18.5t18 -28.5t2 -36.5q-28 -92 -69.5 -146.5t-89 -84t-97 -38t-93.5 -8.5q-84 1 -147 35t-105 90.5t-63.5 130.5t-21.5 157q0 59 11.5 119t33.5 116t54 105t73.5 85.5t91.5 57t109 20.5q46 -3 93 -18t88 -43.5t73 -70.5t50 -98z
M445 982q-11 -19 -26 -26.5t-31 -7.5q-17 0 -34 10.5t-28 26.5t-13.5 35.5t9.5 36.5q11 18 23 37t23 37q12 17 27 25t31 8q17 0 33 -9t26.5 -23.5t14 -33t-5.5 -38.5z" />
    <glyph glyph-name="cacute" unicode="&#x107;" 
d="M615 481q0 -40 -23 -59.5t-52 -19.5q-24 0 -46 15.5t-28 48.5q-9 45 -32 73.5t-63 30.5q-43 2 -75 -17t-54 -51t-32.5 -73t-10.5 -83q0 -39 10 -75t29.5 -63.5t49.5 -44.5t70 -17q21 0 42.5 7t40 22t33 39t23.5 57q5 33 27 49.5t48 16.5q29 0 51.5 -20.5t22.5 -62.5
q-14 -65 -42.5 -113t-67 -79t-84 -46.5t-92.5 -16.5q-78 -2 -137.5 27t-99 78.5t-59.5 114t-19 132.5q1 69 22.5 135t63 118t102.5 83.5t139 31.5q46 -3 87.5 -21t74 -49t54 -72.5t27.5 -90.5v-5zM418 836q-11 -19 -26 -26.5t-31 -7.5q-17 0 -34 10.5t-28 26.5t-13.5 35.5
t9.5 36.5q11 18 23 37t23 37q12 17 27 25t31 8q17 0 33 -9t26.5 -23.5t14 -33t-5.5 -38.5z" />
    <glyph glyph-name="Ccircumflex" unicode="&#x108;" horiz-adv-x="743" 
d="M713 679q3 -17 -3.5 -33t-19 -28.5t-28.5 -20t-32 -7.5q-22 0 -40.5 11.5t-27.5 38.5q-12 36 -31.5 60t-41.5 38t-43 20t-36 6q-55 -2 -96.5 -34.5t-69 -82t-41.5 -109t-14 -116.5q0 -40 9.5 -87t31.5 -88t57.5 -69t88.5 -29q29 -1 58 8t54 28t45.5 47.5t32.5 66.5
q7 33 29 50t48 17q15 0 30.5 -6.5t27.5 -18.5t18 -28.5t2 -36.5q-28 -92 -69.5 -146.5t-89 -84t-97 -38t-93.5 -8.5q-84 1 -147 35t-105 90.5t-63.5 130.5t-21.5 157q0 59 11.5 119t33.5 116t54 105t73.5 85.5t91.5 57t109 20.5q46 -3 93 -18t88 -43.5t73 -70.5t50 -98z
M315 951q-13 -16 -28.5 -18t-30 4.5t-26.5 19.5t-19 27t-6.5 28t10.5 22l103 94q37 33 74 33q21 0 39 -8.5t36 -24.5l88 -81q22 -23 16 -48t-23.5 -43t-39.5 -24.5t-32 7.5q-19 17 -43.5 40t-43.5 40z" />
    <glyph glyph-name="ccircumflex" unicode="&#x109;" 
d="M615 481q0 -40 -23 -59.5t-52 -19.5q-24 0 -46 15.5t-28 48.5q-9 45 -32 73.5t-63 30.5q-43 2 -75 -17t-54 -51t-32.5 -73t-10.5 -83q0 -39 10 -75t29.5 -63.5t49.5 -44.5t70 -17q21 0 42.5 7t40 22t33 39t23.5 57q5 33 27 49.5t48 16.5q29 0 51.5 -20.5t22.5 -62.5
q-14 -65 -42.5 -113t-67 -79t-84 -46.5t-92.5 -16.5q-78 -2 -137.5 27t-99 78.5t-59.5 114t-19 132.5q1 69 22.5 135t63 118t102.5 83.5t139 31.5q46 -3 87.5 -21t74 -49t54 -72.5t27.5 -90.5v-5zM273 790q-13 -16 -28.5 -18t-30 4.5t-26.5 19.5t-19 27t-6.5 28t10.5 22
l103 94q37 33 74 33q21 0 39 -8.5t36 -24.5l88 -81q22 -23 16 -48t-23.5 -43t-39.5 -24.5t-32 7.5q-19 17 -43.5 40t-43.5 40z" />
    <glyph glyph-name="Cdotaccent" unicode="&#x10a;" horiz-adv-x="743" 
d="M713 679q3 -17 -3.5 -33t-19 -28.5t-28.5 -20t-32 -7.5q-22 0 -40.5 11.5t-27.5 38.5q-12 36 -31.5 60t-41.5 38t-43 20t-36 6q-55 -2 -96.5 -34.5t-69 -82t-41.5 -109t-14 -116.5q0 -40 9.5 -87t31.5 -88t57.5 -69t88.5 -29q29 -1 58 8t54 28t45.5 47.5t32.5 66.5
q7 33 29 50t48 17q15 0 30.5 -6.5t27.5 -18.5t18 -28.5t2 -36.5q-28 -92 -69.5 -146.5t-89 -84t-97 -38t-93.5 -8.5q-84 1 -147 35t-105 90.5t-63.5 130.5t-21.5 157q0 59 11.5 119t33.5 116t54 105t73.5 85.5t91.5 57t109 20.5q46 -3 93 -18t88 -43.5t73 -70.5t50 -98z
M487 1033q0 -16 -6.5 -30.5t-17.5 -25.5t-26 -17.5t-31 -6.5q-33 0 -56 24t-23 56q0 34 23 57t56 23t57 -23t24 -57z" />
    <glyph glyph-name="cdotaccent" unicode="&#x10b;" 
d="M615 481q0 -40 -23 -59.5t-52 -19.5q-24 0 -46 15.5t-28 48.5q-9 45 -32 73.5t-63 30.5q-43 2 -75 -17t-54 -51t-32.5 -73t-10.5 -83q0 -39 10 -75t29.5 -63.5t49.5 -44.5t70 -17q21 0 42.5 7t40 22t33 39t23.5 57q5 33 27 49.5t48 16.5q29 0 51.5 -20.5t22.5 -62.5
q-14 -65 -42.5 -113t-67 -79t-84 -46.5t-92.5 -16.5q-78 -2 -137.5 27t-99 78.5t-59.5 114t-19 132.5q1 69 22.5 135t63 118t102.5 83.5t139 31.5q46 -3 87.5 -21t74 -49t54 -72.5t27.5 -90.5v-5zM423 880q0 -16 -6.5 -30.5t-17.5 -25.5t-26 -17.5t-31 -6.5q-33 0 -56 24
t-23 56q0 34 23 57t56 23t57 -23t24 -57z" />
    <glyph glyph-name="Ccaron" unicode="&#x10c;" horiz-adv-x="743" 
d="M713 679q3 -17 -3.5 -33t-19 -28.5t-28.5 -20t-32 -7.5q-22 0 -40.5 11.5t-27.5 38.5q-12 36 -31.5 60t-41.5 38t-43 20t-36 6q-55 -2 -96.5 -34.5t-69 -82t-41.5 -109t-14 -116.5q0 -40 9.5 -87t31.5 -88t57.5 -69t88.5 -29q29 -1 58 8t54 28t45.5 47.5t32.5 66.5
q7 33 29 50t48 17q15 0 30.5 -6.5t27.5 -18.5t18 -28.5t2 -36.5q-28 -92 -69.5 -146.5t-89 -84t-97 -38t-93.5 -8.5q-84 1 -147 35t-105 90.5t-63.5 130.5t-21.5 157q0 59 11.5 119t33.5 116t54 105t73.5 85.5t91.5 57t109 20.5q46 -3 93 -18t88 -43.5t73 -70.5t50 -98z
M473 1168q13 15 28.5 17.5t30 -4t26.5 -19.5t19 -27t6.5 -28t-10.5 -22l-114 -106q-37 -33 -74 -33q-21 0 -39 8.5t-36 24.5l-88 81q-22 23 -16 48t23.5 43t39.5 24.5t32 -7.5q19 -17 43.5 -40t43.5 -40z" />
    <glyph glyph-name="ccaron" unicode="&#x10d;" 
d="M615 481q0 -40 -23 -59.5t-52 -19.5q-24 0 -46 15.5t-28 48.5q-9 45 -32 73.5t-63 30.5q-43 2 -75 -17t-54 -51t-32.5 -73t-10.5 -83q0 -39 10 -75t29.5 -63.5t49.5 -44.5t70 -17q21 0 42.5 7t40 22t33 39t23.5 57q5 33 27 49.5t48 16.5q29 0 51.5 -20.5t22.5 -62.5
q-14 -65 -42.5 -113t-67 -79t-84 -46.5t-92.5 -16.5q-78 -2 -137.5 27t-99 78.5t-59.5 114t-19 132.5q1 69 22.5 135t63 118t102.5 83.5t139 31.5q46 -3 87.5 -21t74 -49t54 -72.5t27.5 -90.5v-5zM457 1014q13 15 28.5 17.5t30 -4t26.5 -19.5t19 -27t6.5 -28t-10.5 -22
l-114 -106q-37 -33 -74 -33q-21 0 -39 8.5t-36 24.5l-88 81q-22 23 -16 48t23.5 43t39.5 24.5t32 -7.5q19 -17 43.5 -40t43.5 -40z" />
    <glyph glyph-name="Dcaron" unicode="&#x10e;" horiz-adv-x="704" 
d="M36 841q0 37 24 55.5t53 18.5q17 0 33 -6.5t28 -19.5q72 28 138 27q82 -2 149.5 -46t115.5 -115t74.5 -161t26.5 -182q0 -80 -23 -151t-68.5 -126.5t-112 -92t-153.5 -46.5q-31 0 -69.5 5.5t-76.5 15.5q-11 -12 -27 -17.5t-33 -5.5q-16 0 -31 5t-26.5 14.5t-17.5 24
t-3 33.5zM317 147q52 3 91 28t65 63t39.5 85.5t13.5 96.5q0 61 -15.5 121.5t-44 109.5t-69 80t-89.5 33q-54 3 -116 -31v-562q32 -14 64 -20t61 -4zM402 1177q13 15 28.5 17.5t30 -4t26.5 -19.5t19 -27t6.5 -28t-10.5 -22l-114 -106q-37 -33 -74 -33q-21 0 -39 8.5t-36 24.5
l-88 81q-22 23 -16 48t23.5 43t39.5 24.5t32 -7.5q19 -17 43.5 -40t43.5 -40z" />
    <glyph glyph-name="dcaron" unicode="&#x10f;" horiz-adv-x="902" 
d="M580 -12q-27 0 -48 15t-23 44q-38 -26 -78.5 -39.5t-78.5 -14.5q-76 -2 -134.5 26t-98 75.5t-60.5 109.5t-22 128q-1 71 19 140t61 123.5t103 87.5t144 31q36 -1 73.5 -10t71.5 -29v178q0 36 23 53.5t50 17.5t50.5 -18t25.5 -53v-801q0 -16 -7 -28t-18 -20t-25 -12
t-28 -4zM351 141q19 0 41.5 9t44 25.5t41 40t31.5 52.5v190q-26 54 -65 79t-81 27q-44 2 -76.5 -18t-54.5 -53t-32.5 -75t-8.5 -85q1 -38 11 -72.5t30 -61.5t49.5 -42.5t69.5 -15.5zM823 572q-11 -15 -26 -20.5t-29 -5.5q-21 0 -40.5 10.5t-30 27t-8.5 37.5t23 42
q16 16 16 22q0 2 -4.5 10t-10.5 19q-12 22 -11 42t11 35t26.5 23.5t34.5 8.5t35.5 -9.5t29.5 -29.5q29 -50 29 -98q0 -60 -45 -115v1z" />
    <glyph glyph-name="Dcroat" unicode="&#x110;" horiz-adv-x="786" 
d="M118 373h-29q-37 0 -54 22.5t-17 50.5q0 27 17.5 50.5t52.5 25.5h30v319q0 37 24 55.5t53 18.5q17 0 33 -6.5t28 -19.5q72 28 138 27q82 -2 149.5 -46t115.5 -115t74.5 -161t26.5 -182q0 -80 -23 -151t-68.5 -126.5t-112 -92t-153.5 -46.5q-31 0 -69.5 5.5t-76.5 15.5
q-11 -12 -27 -17.5t-33 -5.5q-16 0 -31 5t-26.5 14.5t-17.5 24t-3 33.5zM274 373v-202q32 -14 64 -20t61 -4q52 3 91 28t65 63t39.5 85.5t13.5 96.5q0 61 -15.5 121.5t-44 109.5t-69 80t-89.5 33q-54 3 -116 -31v-211h108q35 0 51.5 -23t16.5 -51q0 -15 -5 -29.5t-14 -25
t-23 -16.5t-32 -3l6 -1h-108z" />
    <glyph glyph-name="dcroat" unicode="&#x111;" horiz-adv-x="790" 
d="M582 -12q-27 0 -48 15t-23 44q-38 -26 -78.5 -39.5t-78.5 -14.5q-76 -2 -134.5 26t-98 75.5t-60.5 109.5t-22 128q-1 71 19 140t61 123.5t103 87.5t144 31q36 -1 73.5 -10t71.5 -29v41h-35q-36 0 -53.5 23t-17.5 51q0 26 18 49.5t53 25.5h35v20q0 36 23 53.5t50 17.5
t50.5 -17.5t25.5 -52.5v-21h29q36 0 52 -23t16 -51q0 -15 -5 -29.5t-14 -25t-23 -16.5t-32 -3l6 -1h-29v-664q0 -16 -7 -28t-18 -20t-25 -12t-28 -4zM353 141q19 0 41.5 9t44 25.5t41 40t31.5 52.5v190q-26 54 -65 79t-81 27q-44 2 -76.5 -18t-54.5 -53t-32.5 -75t-8.5 -85
q1 -38 11 -72.5t30 -61.5t49.5 -42.5t69.5 -15.5z" />
    <glyph glyph-name="Emacron" unicode="&#x112;" 
d="M131 -1q-45 0 -70.5 17.5t-25.5 69.5v734q0 51 20 74t63 23h454q37 -1 54.5 -26t16.5 -54.5t-19 -53t-52 -22.5h-380v-201h308q37 -1 54.5 -26t16.5 -54.5t-19 -53t-52 -22.5h-308v-249h378q37 -1 54.5 -26t16.5 -54.5t-19 -53t-52 -22.5h-439zM195 944q-37 0 -54 22.5
t-17 50.5q0 27 17.5 50.5t52.5 25.5h294q35 0 51.5 -23t16.5 -51q0 -15 -5 -29.5t-14 -25t-23 -16.5t-32 -3l6 -1h-293z" />
    <glyph glyph-name="emacron" unicode="&#x113;" horiz-adv-x="739" 
d="M251 337q1 -37 11.5 -71.5t31 -61t50.5 -42.5t71 -16q21 0 43 6t41 17.5t33.5 28.5t21.5 40q5 33 27 49.5t48 16.5q29 0 51.5 -21t22.5 -63q-14 -53 -43 -94t-67.5 -69t-84 -43t-92.5 -15q-77 -2 -136 26t-99 75.5t-61 109.5t-22 128q-29 6 -42.5 27t-13.5 46q0 27 18 50
t53 25h6q16 46 43.5 88t65 73.5t85.5 50t106 18.5q65 0 113.5 -25.5t81.5 -66t52.5 -91t25.5 -99.5q2 -21 -1.5 -39t-16 -31t-35.5 -20t-60 -7h-328zM421 572q-24 0 -46 -7.5t-40 -19.5t-31 -27.5t-19 -31.5h243q-3 15 -13 30t-24.5 27.5t-32.5 20.5t-37 8zM266 797
q-37 0 -54 22.5t-17 50.5q0 27 17.5 50.5t52.5 25.5h294q35 0 51.5 -23t16.5 -51q0 -15 -5 -29.5t-14 -25t-23 -16.5t-32 -3l6 -1h-293z" />
    <glyph glyph-name="Ebreve" unicode="&#x114;" 
d="M131 -1q-45 0 -70.5 17.5t-25.5 69.5v734q0 51 20 74t63 23h454q37 -1 54.5 -26t16.5 -54.5t-19 -53t-52 -22.5h-380v-201h308q37 -1 54.5 -26t16.5 -54.5t-19 -53t-52 -22.5h-308v-249h378q37 -1 54.5 -26t16.5 -54.5t-19 -53t-52 -22.5h-439zM331 1101q12 -19 31 -19
q11 0 20.5 7t18.5 17q28 29 55.5 27.5t45.5 -20.5t22.5 -48t-13.5 -54q-32 -36 -70.5 -52.5t-76.5 -16.5q-47 0 -86.5 21.5t-63.5 57.5q-14 22 -13 42t11.5 35.5t27.5 25t35 9.5q16 0 31 -7.5t26 -24.5h-1zM517 1018q-1 -4 -6 -7q5 5 6 7z" />
    <glyph glyph-name="ebreve" unicode="&#x115;" horiz-adv-x="739" 
d="M251 337q1 -37 11.5 -71.5t31 -61t50.5 -42.5t71 -16q21 0 43 6t41 17.5t33.5 28.5t21.5 40q5 33 27 49.5t48 16.5q29 0 51.5 -21t22.5 -63q-14 -53 -43 -94t-67.5 -69t-84 -43t-92.5 -15q-77 -2 -136 26t-99 75.5t-61 109.5t-22 128q-29 6 -42.5 27t-13.5 46q0 27 18 50
t53 25h6q16 46 43.5 88t65 73.5t85.5 50t106 18.5q65 0 113.5 -25.5t81.5 -66t52.5 -91t25.5 -99.5q2 -21 -1.5 -39t-16 -31t-35.5 -20t-60 -7h-328zM421 572q-24 0 -46 -7.5t-40 -19.5t-31 -27.5t-19 -31.5h243q-3 15 -13 30t-24.5 27.5t-32.5 20.5t-37 8zM370 911
q12 -19 31 -19q11 0 20.5 7t18.5 17q28 29 55.5 27.5t45.5 -20.5t22.5 -48t-13.5 -54q-32 -36 -70.5 -52.5t-76.5 -16.5q-47 0 -86.5 21.5t-63.5 57.5q-14 22 -13 42t11.5 35.5t27.5 25t35 9.5q16 0 31 -7.5t26 -24.5h-1zM556 828q-1 -4 -6 -7q5 5 6 7z" />
    <glyph glyph-name="Edotaccent" unicode="&#x116;" 
d="M131 -1q-45 0 -70.5 17.5t-25.5 69.5v734q0 51 20 74t63 23h454q37 -1 54.5 -26t16.5 -54.5t-19 -53t-52 -22.5h-380v-201h308q37 -1 54.5 -26t16.5 -54.5t-19 -53t-52 -22.5h-308v-249h378q37 -1 54.5 -26t16.5 -54.5t-19 -53t-52 -22.5h-439zM457 1033
q0 -16 -6.5 -30.5t-17.5 -25.5t-26 -17.5t-31 -6.5q-33 0 -56 24t-23 56q0 34 23 57t56 23t57 -23t24 -57z" />
    <glyph glyph-name="edotaccent" unicode="&#x117;" horiz-adv-x="739" 
d="M251 337q1 -37 11.5 -71.5t31 -61t50.5 -42.5t71 -16q21 0 43 6t41 17.5t33.5 28.5t21.5 40q5 33 27 49.5t48 16.5q29 0 51.5 -21t22.5 -63q-14 -53 -43 -94t-67.5 -69t-84 -43t-92.5 -15q-77 -2 -136 26t-99 75.5t-61 109.5t-22 128q-29 6 -42.5 27t-13.5 46q0 27 18 50
t53 25h6q16 46 43.5 88t65 73.5t85.5 50t106 18.5q65 0 113.5 -25.5t81.5 -66t52.5 -91t25.5 -99.5q2 -21 -1.5 -39t-16 -31t-35.5 -20t-60 -7h-328zM421 572q-24 0 -46 -7.5t-40 -19.5t-31 -27.5t-19 -31.5h243q-3 15 -13 30t-24.5 27.5t-32.5 20.5t-37 8zM482 839
q0 -16 -6.5 -30.5t-17.5 -25.5t-26 -17.5t-31 -6.5q-33 0 -56 24t-23 56q0 34 23 57t56 23t57 -23t24 -57z" />
    <glyph glyph-name="Eogonek" unicode="&#x118;" 
d="M484 -158q-20 24 -28.5 50.5t-8.5 54.5q0 14 1.5 27t5.5 25h-323q-45 0 -70.5 17.5t-25.5 69.5v734q0 51 20 74t63 23h454q37 -1 54.5 -26t16.5 -54.5t-19 -53t-52 -22.5h-380v-201h308q37 -1 54.5 -26t16.5 -54.5t-19 -53t-52 -22.5h-308v-249h378q31 -1 48.5 -20
t21 -44t-6 -49t-30.5 -36v-1q-6 -14 -12 -28.5t-6 -26.5q0 -8 7 -14q25 -20 28.5 -41t-7.5 -38.5t-31.5 -28.5t-43.5 -11q-15 0 -28.5 5.5t-24.5 18.5z" />
    <glyph glyph-name="eogonek" unicode="&#x119;" horiz-adv-x="739" 
d="M466 -131q-20 24 -28.5 50.5t-8.5 54.5q0 7 0.5 13t1.5 13q-5 -1 -15 -1q-77 -2 -136 26t-99 75.5t-61 109.5t-22 128q-29 6 -42.5 27t-13.5 46q0 27 18 50t53 25h6q16 46 43.5 88t65 73.5t85.5 50t106 18.5q65 0 113.5 -25.5t81.5 -66t52.5 -91t25.5 -99.5
q2 -21 -1.5 -39t-16 -31t-35.5 -20t-60 -7h-328q1 -37 11.5 -71.5t31 -61t50.5 -42.5t71 -16q21 0 43 6t41 17.5t33.5 28.5t21.5 40q5 33 27 49.5t48 16.5q29 0 51.5 -21t22.5 -63q-14 -54 -43.5 -95t-69.5 -70q0 -10 -5 -23q-6 -14 -12 -28.5t-6 -26.5q0 -8 7 -14
q25 -20 28.5 -41t-7.5 -38.5t-31.5 -28.5t-43.5 -11q-15 0 -28.5 5.5t-24.5 18.5zM421 572q-24 0 -46 -7.5t-40 -19.5t-31 -27.5t-19 -31.5h243q-3 15 -13 30t-24.5 27.5t-32.5 20.5t-37 8z" />
    <glyph glyph-name="Ecaron" unicode="&#x11a;" 
d="M131 -1q-45 0 -70.5 17.5t-25.5 69.5v734q0 51 20 74t63 23h454q37 -1 54.5 -26t16.5 -54.5t-19 -53t-52 -22.5h-380v-201h308q37 -1 54.5 -26t16.5 -54.5t-19 -53t-52 -22.5h-308v-249h378q37 -1 54.5 -26t16.5 -54.5t-19 -53t-52 -22.5h-439zM443 1168q13 15 28.5 17.5
t30 -4t26.5 -19.5t19 -27t6.5 -28t-10.5 -22l-114 -106q-37 -33 -74 -33q-21 0 -39 8.5t-36 24.5l-88 81q-22 23 -16 48t23.5 43t39.5 24.5t32 -7.5q19 -17 43.5 -40t43.5 -40z" />
    <glyph glyph-name="ecaron" unicode="&#x11b;" horiz-adv-x="739" 
d="M251 337q1 -37 11.5 -71.5t31 -61t50.5 -42.5t71 -16q21 0 43 6t41 17.5t33.5 28.5t21.5 40q5 33 27 49.5t48 16.5q29 0 51.5 -21t22.5 -63q-14 -53 -43 -94t-67.5 -69t-84 -43t-92.5 -15q-77 -2 -136 26t-99 75.5t-61 109.5t-22 128q-29 6 -42.5 27t-13.5 46q0 27 18 50
t53 25h6q16 46 43.5 88t65 73.5t85.5 50t106 18.5q65 0 113.5 -25.5t81.5 -66t52.5 -91t25.5 -99.5q2 -21 -1.5 -39t-16 -31t-35.5 -20t-60 -7h-328zM421 572q-24 0 -46 -7.5t-40 -19.5t-31 -27.5t-19 -31.5h243q-3 15 -13 30t-24.5 27.5t-32.5 20.5t-37 8zM498 971
q13 15 28.5 17.5t30 -4t26.5 -19.5t19 -27t6.5 -28t-10.5 -22l-114 -106q-37 -33 -74 -33q-21 0 -39 8.5t-36 24.5l-88 81q-22 23 -16 48t23.5 43t39.5 24.5t32 -7.5q19 -17 43.5 -40t43.5 -40z" />
    <glyph glyph-name="Gcircumflex" unicode="&#x11c;" horiz-adv-x="738" 
d="M615 473q30 0 48 -10t28 -26t13.5 -36.5t3.5 -40.5q-5 -112 -41 -182.5t-87.5 -110.5t-109.5 -54.5t-106 -13.5q-83 2 -145.5 36t-104.5 90.5t-63.5 130.5t-21.5 156q0 59 11.5 119.5t33.5 116.5t54 105.5t73.5 86t91.5 57t109 20.5q46 -3 93 -18t88 -43.5t73 -70.5
t50 -97q5 -31 -14.5 -52t-47 -28.5t-53.5 0.5t-35 34q-13 39 -32.5 63.5t-41 38t-42.5 18t-36 4.5q-55 -2 -96.5 -34.5t-69 -82.5t-41.5 -110t-14 -117q0 -50 10.5 -98t33.5 -86t58.5 -62.5t85.5 -26.5q30 -1 59.5 7t54 27.5t41.5 52t23 81.5h-203q-31 1 -49 25t-19.5 52.5
t14.5 52.5t54 26h269zM318 966q-13 -16 -28.5 -18t-30 4.5t-26.5 19.5t-19 27t-6.5 28t10.5 22l103 94q37 33 74 33q21 0 39 -8.5t36 -24.5l88 -81q22 -23 16 -48t-23.5 -43t-39.5 -24.5t-32 7.5q-19 17 -43.5 40t-43.5 40z" />
    <glyph glyph-name="gcircumflex" unicode="&#x11d;" horiz-adv-x="721" 
d="M367 -116q23 0 47 9.5t44 29.5t33 50.5t13 72.5q-35 -23 -72.5 -34t-72.5 -12q-78 -2 -137.5 27.5t-99 79.5t-59.5 115t-19 133q1 69 22.5 135.5t62.5 118t101.5 82.5t140.5 29q38 -1 75.5 -10.5t72.5 -30.5q8 24 28 35.5t43 11.5q27 0 50 -17.5t25 -52.5v-100t1 -97
q1 -35 1 -78.5v-75.5q0 -135 -9 -246q-7 -91 -35 -150t-68 -94t-89 -49t-98 -15q-47 -1 -89 3.5t-79 18t-67.5 37.5t-52.5 63v-1q-16 29 -4 54t36 37.5t51.5 9t42.5 -32.5q13 -15 32.5 -25.5t41.5 -17.5t44.5 -10t42.5 -3zM358 147q19 0 41.5 9t44.5 25.5t41 40t31 52.5v191
q-26 54 -65 79t-81 27t-74.5 -17t-54 -50.5t-32.5 -72.5t-11 -83q0 -39 10 -75t30 -64.5t49.5 -45t70.5 -16.5zM280 815q-13 -16 -28.5 -18t-30 4.5t-26.5 19.5t-19 27t-6.5 28t10.5 22l103 94q37 33 74 33q21 0 39 -8.5t36 -24.5l88 -81q22 -23 16 -48t-23.5 -43
t-39.5 -24.5t-32 7.5q-19 17 -43.5 40t-43.5 40z" />
    <glyph glyph-name="Gbreve" unicode="&#x11e;" horiz-adv-x="738" 
d="M615 473q30 0 48 -10t28 -26t13.5 -36.5t3.5 -40.5q-5 -112 -41 -182.5t-87.5 -110.5t-109.5 -54.5t-106 -13.5q-83 2 -145.5 36t-104.5 90.5t-63.5 130.5t-21.5 156q0 59 11.5 119.5t33.5 116.5t54 105.5t73.5 86t91.5 57t109 20.5q46 -3 93 -18t88 -43.5t73 -70.5
t50 -97q5 -31 -14.5 -52t-47 -28.5t-53.5 0.5t-35 34q-13 39 -32.5 63.5t-41 38t-42.5 18t-36 4.5q-55 -2 -96.5 -34.5t-69 -82.5t-41.5 -110t-14 -117q0 -50 10.5 -98t33.5 -86t58.5 -62.5t85.5 -26.5q30 -1 59.5 7t54 27.5t41.5 52t23 81.5h-203q-31 1 -49 25t-19.5 52.5
t14.5 52.5t54 26h269zM358 1101q12 -19 31 -19q11 0 20.5 7t18.5 17q28 29 55.5 27.5t45.5 -20.5t22.5 -48t-13.5 -54q-32 -36 -70.5 -52.5t-76.5 -16.5q-47 0 -86.5 21.5t-63.5 57.5q-14 22 -13 42t11.5 35.5t27.5 25t35 9.5q16 0 31 -7.5t26 -24.5h-1zM544 1018
q-1 -4 -6 -7q5 5 6 7z" />
    <glyph glyph-name="gbreve" unicode="&#x11f;" horiz-adv-x="721" 
d="M367 -116q23 0 47 9.5t44 29.5t33 50.5t13 72.5q-35 -23 -72.5 -34t-72.5 -12q-78 -2 -137.5 27.5t-99 79.5t-59.5 115t-19 133q1 69 22.5 135.5t62.5 118t101.5 82.5t140.5 29q38 -1 75.5 -10.5t72.5 -30.5q8 24 28 35.5t43 11.5q27 0 50 -17.5t25 -52.5v-100t1 -97
q1 -35 1 -78.5v-75.5q0 -135 -9 -246q-7 -91 -35 -150t-68 -94t-89 -49t-98 -15q-47 -1 -89 3.5t-79 18t-67.5 37.5t-52.5 63v-1q-16 29 -4 54t36 37.5t51.5 9t42.5 -32.5q13 -15 32.5 -25.5t41.5 -17.5t44.5 -10t42.5 -3zM358 147q19 0 41.5 9t44.5 25.5t41 40t31 52.5v191
q-26 54 -65 79t-81 27t-74.5 -17t-54 -50.5t-32.5 -72.5t-11 -83q0 -39 10 -75t30 -64.5t49.5 -45t70.5 -16.5zM353 958q12 -19 31 -19q11 0 20.5 7t18.5 17q28 29 55.5 27.5t45.5 -20.5t22.5 -48t-13.5 -54q-32 -36 -70.5 -52.5t-76.5 -16.5q-47 0 -86.5 21.5t-63.5 57.5
q-14 22 -13 42t11.5 35.5t27.5 25t35 9.5q16 0 31 -7.5t26 -24.5h-1zM539 875q-1 -4 -6 -7q5 5 6 7z" />
    <glyph glyph-name="Gdotaccent" unicode="&#x120;" horiz-adv-x="738" 
d="M615 473q30 0 48 -10t28 -26t13.5 -36.5t3.5 -40.5q-5 -112 -41 -182.5t-87.5 -110.5t-109.5 -54.5t-106 -13.5q-83 2 -145.5 36t-104.5 90.5t-63.5 130.5t-21.5 156q0 59 11.5 119.5t33.5 116.5t54 105.5t73.5 86t91.5 57t109 20.5q46 -3 93 -18t88 -43.5t73 -70.5
t50 -97q5 -31 -14.5 -52t-47 -28.5t-53.5 0.5t-35 34q-13 39 -32.5 63.5t-41 38t-42.5 18t-36 4.5q-55 -2 -96.5 -34.5t-69 -82.5t-41.5 -110t-14 -117q0 -50 10.5 -98t33.5 -86t58.5 -62.5t85.5 -26.5q30 -1 59.5 7t54 27.5t41.5 52t23 81.5h-203q-31 1 -49 25t-19.5 52.5
t14.5 52.5t54 26h269zM452 1038q0 -16 -6.5 -30.5t-17.5 -25.5t-26 -17.5t-31 -6.5q-33 0 -56 24t-23 56q0 34 23 57t56 23t57 -23t24 -57z" />
    <glyph glyph-name="gdotaccent" unicode="&#x121;" horiz-adv-x="721" 
d="M367 -116q23 0 47 9.5t44 29.5t33 50.5t13 72.5q-35 -23 -72.5 -34t-72.5 -12q-78 -2 -137.5 27.5t-99 79.5t-59.5 115t-19 133q1 69 22.5 135.5t62.5 118t101.5 82.5t140.5 29q38 -1 75.5 -10.5t72.5 -30.5q8 24 28 35.5t43 11.5q27 0 50 -17.5t25 -52.5v-100t1 -97
q1 -35 1 -78.5v-75.5q0 -135 -9 -246q-7 -91 -35 -150t-68 -94t-89 -49t-98 -15q-47 -1 -89 3.5t-79 18t-67.5 37.5t-52.5 63v-1q-16 29 -4 54t36 37.5t51.5 9t42.5 -32.5q13 -15 32.5 -25.5t41.5 -17.5t44.5 -10t42.5 -3zM358 147q19 0 41.5 9t44.5 25.5t41 40t31 52.5v191
q-26 54 -65 79t-81 27t-74.5 -17t-54 -50.5t-32.5 -72.5t-11 -83q0 -39 10 -75t30 -64.5t49.5 -45t70.5 -16.5zM484 890q0 -16 -6.5 -30.5t-17.5 -25.5t-26 -17.5t-31 -6.5q-33 0 -56 24t-23 56q0 34 23 57t56 23t57 -23t24 -57z" />
    <glyph glyph-name="Gcommaaccent" unicode="&#x122;" horiz-adv-x="738" 
d="M615 473q30 0 48 -10t28 -26t13.5 -36.5t3.5 -40.5q-5 -112 -41 -182.5t-87.5 -110.5t-109.5 -54.5t-106 -13.5q-83 2 -145.5 36t-104.5 90.5t-63.5 130.5t-21.5 156q0 59 11.5 119.5t33.5 116.5t54 105.5t73.5 86t91.5 57t109 20.5q46 -3 93 -18t88 -43.5t73 -70.5
t50 -97q5 -31 -14.5 -52t-47 -28.5t-53.5 0.5t-35 34q-13 39 -32.5 63.5t-41 38t-42.5 18t-36 4.5q-55 -2 -96.5 -34.5t-69 -82.5t-41.5 -110t-14 -117q0 -50 10.5 -98t33.5 -86t58.5 -62.5t85.5 -26.5q30 -1 59.5 7t54 27.5t41.5 52t23 81.5h-203q-31 1 -49 25t-19.5 52.5
t14.5 52.5t54 26h269zM415 -293q-11 -15 -26 -20.5t-29 -5.5q-21 0 -40.5 10.5t-30 27t-8.5 37.5t23 42q15 15 15 22q0 3 -4 10.5t-10 18.5q-12 22 -11 42t11 35t26.5 23.5t34.5 8.5t35.5 -9.5t29.5 -29.5q29 -50 29 -98q0 -60 -45 -115v1z" />
    <glyph glyph-name="gcommaaccent" unicode="&#x123;" horiz-adv-x="721" 
d="M367 -116q23 0 47 9.5t44 29.5t33 50.5t13 72.5q-35 -23 -72.5 -34t-72.5 -12q-78 -2 -137.5 27.5t-99 79.5t-59.5 115t-19 133q1 69 22.5 135.5t62.5 118t101.5 82.5t140.5 29q38 -1 75.5 -10.5t72.5 -30.5q8 24 28 35.5t43 11.5q27 0 50 -17.5t25 -52.5v-100t1 -97
q1 -35 1 -78.5v-75.5q0 -135 -9 -246q-7 -91 -35 -150t-68 -94t-89 -49t-98 -15q-47 -1 -89 3.5t-79 18t-67.5 37.5t-52.5 63v-1q-16 29 -4 54t36 37.5t51.5 9t42.5 -32.5q13 -15 32.5 -25.5t41.5 -17.5t44.5 -10t42.5 -3zM358 147q19 0 41.5 9t44.5 25.5t41 40t31 52.5v191
q-26 54 -65 79t-81 27t-74.5 -17t-54 -50.5t-32.5 -72.5t-11 -83q0 -39 10 -75t30 -64.5t49.5 -45t70.5 -16.5zM305 1027q11 15 26 20.5t29 5.5q21 0 40 -10.5t29.5 -27t9 -37t-22.5 -41.5q-16 -16 -16 -23q0 -4 4.5 -11.5t9.5 -17.5q12 -23 10.5 -42.5t-11 -34.5t-26 -23.5
t-34.5 -8.5q-17 0 -34.5 9.5t-29.5 29.5q-29 50 -29 99q0 31 11 58.5t34 55.5v-1z" />
    <glyph glyph-name="Hcircumflex" unicode="&#x124;" horiz-adv-x="776" 
d="M547 400h-323v-328q0 -38 -23.5 -54.5t-52.5 -16.5q-15 0 -30.5 5t-26.5 14.5t-17 24t-3 33.5l-1 -6v336q-20 10 -29.5 29t-9.5 40t9.5 39.5t29.5 29.5v298q0 38 23 56t53 18q29 0 52.5 -18.5t25.5 -54.5v-290h323v289q0 38 24 56t53 18t52.5 -18.5t25.5 -54.5v-296
q21 -9 31 -29t10 -42q0 -23 -10.5 -43t-30.5 -30v-333q0 -38 -24 -54.5t-53 -16.5q-16 0 -31 5t-26 14.5t-17 24t-3 33.5l-1 -6v328zM315 964q-13 -16 -28.5 -18t-30 4.5t-26.5 19.5t-19 27t-6.5 28t10.5 22l103 94q37 33 74 33q21 0 39 -8.5t36 -24.5l88 -81q22 -23 16 -48
t-23.5 -43t-39.5 -24.5t-32 7.5q-19 17 -43.5 40t-43.5 40z" />
    <glyph glyph-name="hcircumflex" unicode="&#x125;" horiz-adv-x="643" 
d="M194 63q0 -36 -22.5 -52t-50.5 -16q-15 0 -29.5 5t-25.5 14t-16.5 23t-3.5 32v-6v787q0 36 22.5 53.5t50.5 17.5q27 0 50 -18t25 -53v-190q34 14 72 22t73 4q50 -6 89.5 -25.5t68.5 -50.5t49.5 -70t32.5 -84q20 -73 25 -140t5 -139v-109q1 -19 -5 -33.5t-17 -24.5
t-25.5 -15t-29.5 -5t-29 5t-25 14.5t-17.5 24t-4.5 34.5q0 10 0.5 21.5t0.5 25.5q1 17 1 36v41q0 58 -4.5 111t-18.5 107q-14 51 -38.5 86t-66.5 39q-39 4 -76 -12t-60 -53v-407zM319 956q-13 -16 -28.5 -18t-30 4.5t-26.5 19.5t-19 27t-6.5 28t10.5 22l103 94q37 33 74 33
q21 0 39 -8.5t36 -24.5l88 -81q22 -23 16 -48t-23.5 -43t-39.5 -24.5t-32 7.5q-19 17 -43.5 40t-43.5 40z" />
    <glyph glyph-name="Hbar" unicode="&#x126;" horiz-adv-x="776" 
d="M546 352h-323v-280q0 -38 -23.5 -54.5t-52.5 -16.5q-15 0 -30.5 5t-26.5 14.5t-17 24t-3 33.5l-1 -6v288q-20 10 -29.5 29t-9.5 40q0 20 9.5 39t29.5 30v70q-23 8 -34.5 29t-11.5 44q0 21 11.5 41.5t34.5 29.5v131q0 38 23 56t53 18q29 0 52.5 -18.5t25.5 -54.5v-124h323
v123q0 38 24 56t53 18t52.5 -18.5t25.5 -54.5v-131q21 -9 31 -29t10 -42q0 -23 -10.5 -43.5t-30.5 -29.5v-68q21 -9 31 -29t10 -42q0 -23 -10.5 -43.5t-30.5 -29.5v-285q0 -38 -24 -54.5t-53 -16.5q-16 0 -31 5t-26 14.5t-17 24t-3 33.5l-1 -6v280zM546 507v56h-323v-56h323
z" />
    <glyph glyph-name="hbar" unicode="&#x127;" horiz-adv-x="701" 
d="M244 63q0 -36 -22.5 -52t-50.5 -16q-15 0 -29.5 5t-25.5 14t-16.5 23t-3.5 32v-6v643q-35 2 -51 24.5t-16 49.5q0 26 17.5 48.5t49.5 25.5v4q0 37 22.5 54t50.5 17q27 0 50 -17.5t25 -52.5v-4h11q35 0 51 -23t16 -51q0 -15 -5 -29.5t-14 -25t-22.5 -16.5t-31.5 -3l6 -1
h-11v-23q34 14 72 22t73 4q50 -6 89.5 -25.5t68.5 -50.5t49.5 -70t32.5 -84q20 -73 25 -151.5t5 -150.5v-113q1 -35 -23 -54.5t-54 -19.5q-15 0 -29 5t-25 14.5t-17.5 24t-4.5 34.5q0 10 0.5 21.5t0.5 25.5q1 17 1 36v41q0 58 -4.5 122.5t-18.5 118.5q-14 51 -38.5 86
t-66.5 39q-39 4 -76 -12t-60 -53v-430z" />
    <glyph glyph-name="Itilde" unicode="&#x128;" horiz-adv-x="685" 
d="M259 154v608h-162q-38 0 -56.5 23.5t-18.5 52.5t19 52.5t55 25.5h489q38 0 54.5 -23t16.5 -53q0 -15 -5 -29.5t-14.5 -25.5t-23.5 -18t-32 -5h4h-169v-608h164q38 0 56.5 -23.5t18.5 -52.5t-19 -52.5t-55 -25.5h-482q-38 0 -54.5 23t-16.5 53q0 15 5 29.5t14 25.5
t22 17.5t30 5.5h160zM264 996q-7 -25 -25 -37t-39 -12q-15 0 -29 6.5t-25 17.5t-16.5 26t-2.5 32q7 31 21 56t33.5 41.5t42.5 25t49 7.5q22 -1 39.5 -7.5t32 -15.5t26 -19.5t21.5 -20.5q6 -7 12.5 -14t8.5 -7q-3 5 0 24q5 29 23.5 43.5t43.5 14.5q15 0 30 -5.5t26 -17
t16 -28t1 -37.5q-6 -26 -15.5 -48t-25 -39.5t-38 -28t-52.5 -11.5h1q-26 -1 -45.5 4.5t-34.5 14.5t-26.5 21t-21.5 23q-8 8 -14 14.5t-11 4.5q2 0 -5 -27z" />
    <glyph glyph-name="itilde" unicode="&#x129;" horiz-adv-x="221" 
d="M41 643q0 36 23 53.5t51 17.5q27 0 50 -18t25 -53v-574q0 -36 -23 -52t-50 -16q-15 0 -30 5t-25.5 14t-16.5 22.5t-3 31.5l-1 -5v574zM24 837q-7 -25 -25 -37t-39 -12q-15 0 -29 6.5t-25 17.5t-16.5 26t-2.5 32q7 31 21 56t33.5 41.5t42.5 25t49 7.5q22 -1 39.5 -7.5
t32 -15.5t26 -19.5t21.5 -20.5q6 -7 12.5 -14t8.5 -7q-3 5 0 24q5 29 23.5 43.5t43.5 14.5q15 0 30 -5.5t26 -17t16 -28t1 -37.5q-6 -26 -15.5 -48t-25 -39.5t-38 -28t-52.5 -11.5h1q-26 -1 -45.5 4.5t-34.5 14.5t-26.5 21t-21.5 23q-8 8 -14 14.5t-11 4.5q2 0 -5 -27z" />
    <glyph glyph-name="Imacron" unicode="&#x12a;" horiz-adv-x="692" 
d="M268 154v608h-162q-38 0 -56.5 23.5t-18.5 52.5t19 52.5t55 25.5h489q38 0 54.5 -23t16.5 -53q0 -15 -5 -29.5t-14.5 -25.5t-23.5 -18t-32 -5h4h-169v-608h164q38 0 56.5 -23.5t18.5 -52.5t-19 -52.5t-55 -25.5h-482q-38 0 -54.5 23t-16.5 53q0 15 5 29.5t14 25.5
t22 17.5t30 5.5h160zM199 957q-37 0 -54 22.5t-17 50.5q0 27 17.5 50.5t52.5 25.5h294q35 0 51.5 -23t16.5 -51q0 -15 -5 -29.5t-14 -25t-23 -16.5t-32 -3l6 -1h-293z" />
    <glyph glyph-name="imacron" unicode="&#x12b;" horiz-adv-x="223" 
d="M41 643q0 36 23 53.5t51 17.5q27 0 50 -18t25 -53v-574q0 -36 -23 -52t-50 -16q-15 0 -30 5t-25.5 14t-16.5 22.5t-3 31.5l-1 -5v574zM-18 808q-37 0 -54 22.5t-17 50.5q0 27 17.5 50.5t52.5 25.5h294q35 0 51.5 -23t16.5 -51q0 -15 -5 -29.5t-14 -25t-23 -16.5t-32 -3
l6 -1h-293z" />
    <glyph glyph-name="Ibreve" unicode="&#x12c;" horiz-adv-x="692" 
d="M264 154v608h-162q-38 0 -56.5 23.5t-18.5 52.5t19 52.5t55 25.5h489q38 0 54.5 -23t16.5 -53q0 -15 -5 -29.5t-14.5 -25.5t-23.5 -18t-32 -5h4h-169v-608h164q38 0 56.5 -23.5t18.5 -52.5t-19 -52.5t-55 -25.5h-482q-38 0 -54.5 23t-16.5 53q0 15 5 29.5t14 25.5
t22 17.5t30 5.5h160zM324 1114q12 -19 31 -19q11 0 20.5 7t18.5 17q28 29 55.5 27.5t45.5 -20.5t22.5 -48t-13.5 -54q-32 -36 -70.5 -52.5t-76.5 -16.5q-47 0 -86.5 21.5t-63.5 57.5q-14 22 -13 42t11.5 35.5t27.5 25t35 9.5q16 0 31 -7.5t26 -24.5h-1zM510 1031
q-1 -4 -6 -7q5 5 6 7z" />
    <glyph glyph-name="ibreve" unicode="&#x12d;" horiz-adv-x="223" 
d="M41 643q0 36 23 53.5t51 17.5q27 0 50 -18t25 -53v-574q0 -36 -23 -52t-50 -16q-15 0 -30 5t-25.5 14t-16.5 22.5t-3 31.5l-1 -5v574zM92 958q12 -19 31 -19q11 0 20.5 7t18.5 17q28 29 55.5 27.5t45.5 -20.5t22.5 -48t-13.5 -54q-32 -36 -70.5 -52.5t-76.5 -16.5
q-47 0 -86.5 21.5t-63.5 57.5q-14 22 -13 42t11.5 35.5t27.5 25t35 9.5q16 0 31 -7.5t26 -24.5h-1zM278 875q-1 -4 -6 -7q5 5 6 7z" />
    <glyph glyph-name="Iogonek" unicode="&#x12e;" horiz-adv-x="700" 
d="M472 -165q-20 24 -28.5 50.5t-8.5 54.5q0 33 10 60h-342q-38 0 -54.5 23t-16.5 53q0 15 5 29.5t14 25.5t22 17.5t30 5.5h160v608h-162q-38 0 -56.5 23.5t-18.5 52.5t19 52.5t55 25.5h489q38 0 54.5 -23t16.5 -53q0 -15 -5 -29.5t-14.5 -25.5t-23.5 -18t-32 -5h-165v-608
h164q38 0 56.5 -23.5t18.5 -52.5q0 -28 -17.5 -51t-49.5 -27q-1 0 -1 -2q-6 -14 -12 -28.5t-6 -26.5q0 -8 7 -14q25 -20 28.5 -41t-7.5 -38.5t-31.5 -28.5t-43.5 -11q-15 0 -28.5 5.5t-24.5 18.5z" />
    <glyph glyph-name="iogonek" unicode="&#x12f;" horiz-adv-x="207" 
d="M34 -155q-20 24 -28.5 50.5t-8.5 54.5q0 33 11.5 63.5t29.5 53.5q0 4 1 7l-1 -5v574q0 36 23 53.5t51 17.5q27 0 50 -18t25 -53v-574q0 -23 -9.5 -37t-23.5 -22q-1 -1 -1 -2q-6 -14 -12 -28.5t-6 -26.5q0 -8 7 -14q25 -20 28.5 -41t-7.5 -38.5t-31.5 -28.5t-43.5 -11
q-15 0 -28.5 5.5t-24.5 18.5zM32 833q0 33 23.5 57t56.5 24t56 -24t23 -57t-23 -56t-56 -23t-56.5 23t-23.5 56z" />
    <glyph glyph-name="Idotaccent" unicode="&#x130;" horiz-adv-x="688" 
d="M253 154v608h-162q-38 0 -56.5 23.5t-18.5 52.5t19 52.5t55 25.5h489q38 0 54.5 -23t16.5 -53q0 -15 -5 -29.5t-14.5 -25.5t-23.5 -18t-32 -5h4h-169v-608h164q38 0 56.5 -23.5t18.5 -52.5t-19 -52.5t-55 -25.5h-482q-38 0 -54.5 23t-16.5 53q0 15 5 29.5t14 25.5
t22 17.5t30 5.5h160zM447 1035q0 -16 -6.5 -30.5t-17.5 -25.5t-26 -17.5t-31 -6.5q-33 0 -56 24t-23 56q0 34 23 57t56 23t57 -23t24 -57z" />
    <glyph glyph-name="dotlessi" unicode="&#x131;" horiz-adv-x="229" 
d="M41 643q0 36 23 53.5t51 17.5q27 0 50 -18t25 -53v-574q0 -36 -23 -52t-50 -16q-15 0 -30 5t-25.5 14t-16.5 22.5t-3 31.5l-1 -5v574z" />
    <glyph glyph-name="Jcircumflex" unicode="&#x134;" horiz-adv-x="650" 
d="M434 840q0 20 6.5 34.5t17.5 24t25 14t28 4.5q29 0 53 -18.5t26 -55.5q3 -102 5.5 -197.5t2.5 -190.5q0 -53 -4.5 -106.5t-16.5 -103t-33.5 -93t-55 -76.5t-81.5 -53t-112 -23q-50 -2 -89.5 10.5t-71 38t-55 62.5t-41.5 83q-9 26 -4.5 45.5t16.5 32.5t29.5 19t35 5
t32 -9.5t21.5 -24.5q8 -25 21.5 -45t29.5 -34t33.5 -21t35.5 -7q33 0 57.5 15.5t41 39.5t26.5 55.5t15.5 65t8 67t3.5 60.5q4 97 1.5 192t-7.5 190zM414 979q-13 -16 -28.5 -18t-30 4.5t-26.5 19.5t-19 27t-6.5 28t10.5 22l103 94q37 33 74 33q21 0 39 -8.5t36 -24.5l88 -81
q22 -23 16 -48t-23.5 -43t-39.5 -24.5t-32 7.5q-19 17 -43.5 40t-43.5 40z" />
    <glyph glyph-name="jcircumflex" unicode="&#x135;" horiz-adv-x="235" 
d="M45 641q0 37 23 54.5t51 17.5q27 0 50 -17.5t25 -52.5v-49v-55t1 -52q1 -29 1.5 -58t0.5 -58v-88q0 -53 -3 -118.5t-13.5 -130t-31.5 -121t-57 -92.5q-35 -35 -88.5 -52.5t-120.5 -16.5q-19 1 -34 8t-25 17.5t-15 23.5t-5 26q0 28 20.5 51t60.5 22q28 -1 56 6t46 25
q64 67 64 376q0 14 -0.5 29t-0.5 31zM42 798q-13 -16 -28.5 -18t-30 4.5t-26.5 19.5t-19 27t-6.5 28t10.5 22l103 94q37 33 74 33q21 0 39 -8.5t36 -24.5l88 -81q22 -23 16 -48t-23.5 -43t-39.5 -24.5t-32 7.5q-19 17 -43.5 40t-43.5 40z" />
    <glyph glyph-name="Kcommaaccent" unicode="&#x136;" horiz-adv-x="724" 
d="M44 847q0 19 6.5 33t17.5 23t25 13.5t29 4.5q14 0 27.5 -4.5t24.5 -14t18.5 -23t8.5 -31.5v-267q44 36 89.5 77t91.5 83t91 83t89 77q30 22 59 16t46.5 -27.5t18 -52.5t-24.5 -58l-332 -297q88 -88 175.5 -174t168.5 -171q16 -16 18.5 -35.5t-3.5 -37.5t-19.5 -32.5
t-31 -21.5t-36 -4.5t-35.5 19.5q-90 90 -152 151.5t-102.5 101t-62.5 60.5t-32.5 30.5t-13 11l-2.5 1.5v-311q0 -38 -24.5 -54.5t-53.5 -16.5q-16 0 -31 5t-26.5 14.5t-17.5 22.5t-4 29v777zM333 -212q-11 -15 -26 -20.5t-29 -5.5q-21 0 -40.5 10.5t-30 27t-8.5 37.5t23 42
q15 15 15 22q0 3 -4 10.5t-10 18.5q-12 22 -11 42t11 35t26.5 23.5t34.5 8.5t35.5 -9.5t29.5 -29.5q29 -50 29 -98q0 -60 -45 -115v1z" />
    <glyph glyph-name="kcommaaccent" unicode="&#x137;" horiz-adv-x="639" 
d="M201 261v-192q0 -36 -23 -52t-50 -16q-15 0 -30 5t-25.5 14t-16.5 22.5t-3 31.5l-1 -5v781q0 36 23 53.5t51 17.5q27 0 50 -17.5t25 -52.5v-306q69 39 137.5 80.5t135.5 80.5q21 8 39.5 4t32 -15.5t21 -28.5t7.5 -34q0 -21 -9.5 -38t-32.5 -27q-40 -23 -72.5 -42
t-63.5 -37t-63.5 -37.5t-72.5 -42.5q80 -69 153.5 -133.5t154.5 -133.5q33 -20 33 -60q0 -18 -9 -35t-24.5 -28.5t-35.5 -14t-42 8.5zM363 -204q-11 -15 -26 -20.5t-29 -5.5q-21 0 -40.5 10.5t-30 27t-8.5 37.5t23 42q15 15 15 22q0 3 -4 10.5t-10 18.5q-12 22 -11 42t11 35
t26.5 23.5t34.5 8.5t35.5 -9.5t29.5 -29.5q29 -50 29 -98q0 -60 -45 -115v1z" />
    <glyph glyph-name="Lacute" unicode="&#x139;" 
d="M134 -1q-45 0 -70.5 17.5t-25.5 69.5v762q1 34 23.5 51.5t50.5 18.5t52.5 -15.5t29.5 -50.5v-697h383q25 -1 41 -13t23.5 -30t6 -38.5t-10.5 -37.5t-25.5 -27.5t-40.5 -8.5l6 -1h-443zM415 982q-11 -19 -26 -26.5t-31 -7.5q-17 0 -34 10.5t-28 26.5t-13.5 35.5t9.5 36.5
q11 18 23 37t23 37q12 17 27 25t31 8q17 0 33 -9t26.5 -23.5t14 -33t-5.5 -38.5z" />
    <glyph glyph-name="lacute" unicode="&#x13a;" horiz-adv-x="234" 
d="M42 850q0 36 23 53.5t51 17.5q27 0 50 -17.5t25 -52.5v-782q0 -36 -23 -52t-50 -16q-15 0 -30 5t-25.5 14t-16.5 22.5t-3 31.5l-1 -5v781zM197 991q-11 -19 -26 -26.5t-31 -7.5q-17 0 -34 10.5t-28 26.5t-13.5 35.5t9.5 36.5q11 18 23 37t23 37q12 17 27 25t31 8
q17 0 33 -9t26.5 -23.5t14 -33t-5.5 -38.5z" />
    <glyph glyph-name="Lcommaaccent" unicode="&#x13b;" 
d="M134 -1q-45 0 -70.5 17.5t-25.5 69.5v762q1 34 23.5 51.5t50.5 18.5t52.5 -15.5t29.5 -50.5v-697h383q25 -1 41 -13t23.5 -30t6 -38.5t-10.5 -37.5t-25.5 -27.5t-40.5 -8.5l6 -1h-443zM359 -310q-11 -15 -26 -20.5t-29 -5.5q-21 0 -40.5 10.5t-30 27t-8.5 37.5t23 42
q15 15 15 22q0 3 -4 10.5t-10 18.5q-12 22 -11 42t11 35t26.5 23.5t34.5 8.5t35.5 -9.5t29.5 -29.5q29 -50 29 -98q0 -60 -45 -115v1z" />
    <glyph glyph-name="lcommaaccent" unicode="&#x13c;" horiz-adv-x="245" 
d="M52 850q0 36 23 53.5t51 17.5q27 0 50 -17.5t25 -52.5v-782q0 -36 -23 -52t-50 -16q-15 0 -30 5t-25.5 14t-16.5 22.5t-3 31.5l-1 -5v781zM172 -289q-11 -15 -26 -20.5t-29 -5.5q-21 0 -40.5 10.5t-30 27t-8.5 37.5t23 42q15 15 15 22q0 3 -4 10.5t-10 18.5
q-12 22 -11 42t11 35t26.5 23.5t34.5 8.5t35.5 -9.5t29.5 -29.5q29 -50 29 -98q0 -60 -45 -115v1z" />
    <glyph glyph-name="Lcaron" unicode="&#x13d;" 
d="M134 -1q-45 0 -70.5 17.5t-25.5 69.5v762q1 34 23.5 51.5t50.5 18.5t52.5 -15.5t29.5 -50.5v-697h383q25 -1 41 -13t23.5 -30t6 -38.5t-10.5 -37.5t-25.5 -27.5t-40.5 -8.5l6 -1h-443zM449 552q-11 -15 -26 -20.5t-29 -5.5q-21 0 -40.5 10.5t-30 27t-8.5 37.5t23 42
q16 16 16 22q0 2 -4.5 10t-10.5 19q-12 22 -11 42t11 35t26.5 23.5t34.5 8.5t35.5 -9.5t29.5 -29.5q29 -50 29 -98q0 -60 -45 -115v1z" />
    <glyph glyph-name="lcaron" unicode="&#x13e;" horiz-adv-x="421" 
d="M43 866q0 36 23 53.5t51 17.5q27 0 50 -17.5t25 -52.5v-782q0 -36 -23 -52t-50 -16q-15 0 -30 5t-25.5 14t-16.5 22.5t-3 31.5l-1 -5v781zM339 572q-11 -15 -26 -20.5t-29 -5.5q-21 0 -40.5 10.5t-30 27t-8.5 37.5t23 42q16 16 16 22q0 2 -4.5 10t-10.5 19q-12 22 -11 42
t11 35t26.5 23.5t34.5 8.5t35.5 -9.5t29.5 -29.5q29 -50 29 -98q0 -60 -45 -115v1z" />
    <glyph glyph-name="Ldot" unicode="&#x13f;" 
d="M134 -1q-45 0 -70.5 17.5t-25.5 69.5v762q1 34 23.5 51.5t50.5 18.5t52.5 -15.5t29.5 -50.5v-697h383q25 -1 41 -13t23.5 -30t6 -38.5t-10.5 -37.5t-25.5 -27.5t-40.5 -8.5l6 -1h-443zM466 530q0 -17 -6.5 -31.5t-17.5 -25t-25.5 -17t-30.5 -6.5q-34 0 -57 23.5t-23 56.5
t23 56t57 23q32 0 56 -23t24 -56z" />
    <glyph glyph-name="ldot" unicode="&#x140;" horiz-adv-x="403" 
d="M43 850q0 36 23 53.5t51 17.5q27 0 50 -17.5t25 -52.5v-782q0 -36 -23 -52t-50 -16q-15 0 -30 5t-25.5 14t-16.5 22.5t-3 31.5l-1 -5v781zM368 505q0 -16 -6.5 -30.5t-17.5 -25.5t-26 -17.5t-31 -6.5q-33 0 -56 24t-23 56q0 34 23 57t56 23t57 -23t24 -57z" />
    <glyph glyph-name="Lslash" unicode="&#x141;" horiz-adv-x="771" 
d="M198 -1q-45 0 -70.5 17.5t-25.5 69.5v247q-18 -2 -33 4.5t-26.5 18.5t-17.5 27.5t-6 31.5q0 20 11 39t35 29q7 3 11 4.5t7 3t7 3l12 4.5v350q0 37 23.5 54t53.5 17q27 0 51.5 -16.5t27.5 -50.5v-289q35 14 69 28.5t68 28.5q22 9 41 4.5t33 -17t21.5 -30.5t7.5 -36
q0 -22 -12.5 -41t-37.5 -26q-27 -11 -49.5 -20.5t-45 -18.5t-45.5 -19t-50 -21v-240h403q38 0 54.5 -24t16.5 -53q0 -16 -5 -31t-15 -26.5t-24 -17.5t-33 -3l6 -1h-463z" />
    <glyph glyph-name="lslash" unicode="&#x142;" horiz-adv-x="354" 
d="M95 343q-26 4 -45.5 26.5t-19.5 49.5q0 14 5.5 27.5t18.5 24.5l-1 -1q14 13 21 20t21 20v338q0 18 6.5 31.5t17 22t24 13t26.5 4.5q27 0 51 -18t24 -53v-231q13 -2 26 -9.5t23.5 -18.5t16.5 -25t6 -27q0 -14 -5 -26.5t-19 -22.5q-14 -13 -23.5 -21.5t-24.5 -22.5v-377
q0 -36 -22.5 -52t-50.5 -16q-29 0 -52.5 16.5t-23.5 51.5v276z" />
    <glyph glyph-name="Nacute" unicode="&#x143;" horiz-adv-x="720" 
d="M21 843q0 38 22 55.5t51 17.5q21 0 41 -10t33 -29l357 -551v517q0 19 6.5 33t17.5 23t25 13.5t29 4.5q28 0 52 -18.5t26 -54.5v-772q0 -36 -22.5 -53.5t-52.5 -17.5q-20 0 -39.5 9.5t-32.5 27.5l-356 550q0 -57 0.5 -123.5t1 -134.5t1 -134.5t0.5 -123.5q0 -38 -24 -54.5
t-53 -16.5q-16 0 -31 5t-26.5 14t-17.5 22t-4 30zM434 982q-11 -19 -26 -26.5t-31 -7.5q-17 0 -34 10.5t-28 26.5t-13.5 35.5t9.5 36.5q11 18 23 37t23 37q12 17 27 25t31 8q17 0 33 -9t26.5 -23.5t14 -33t-5.5 -38.5z" />
    <glyph glyph-name="nacute" unicode="&#x144;" horiz-adv-x="641" 
d="M188 63q0 -36 -22.5 -52t-50.5 -16q-15 0 -29.5 5t-25.5 14t-16.5 23t-3.5 32v-6v586q0 37 22.5 54t50.5 17q20 0 39 -10.5t29 -30.5q35 17 74 25.5t78 4.5q50 -6 89.5 -25.5t68.5 -50.5t49.5 -70t32.5 -84q20 -73 25 -151.5t5 -150.5v-113q1 -35 -23 -54.5t-54 -19.5
q-15 0 -29 5t-25 14.5t-17.5 24t-4.5 34.5q0 10 0.5 21.5t0.5 25.5q1 17 1 36v41q0 58 -4.5 122.5t-18.5 118.5q-14 51 -38.5 86t-66.5 39q-39 4 -76 -12t-60 -53v-430zM400 830q-11 -19 -26 -26.5t-31 -7.5q-17 0 -34 10.5t-28 26.5t-13.5 35.5t9.5 36.5q11 18 23 37t23 37
q12 17 27 25t31 8q17 0 33 -9t26.5 -23.5t14 -33t-5.5 -38.5z" />
    <glyph glyph-name="Ncommaaccent" unicode="&#x145;" horiz-adv-x="720" 
d="M21 843q0 38 22 55.5t51 17.5q21 0 41 -10t33 -29l357 -551v517q0 19 6.5 33t17.5 23t25 13.5t29 4.5q28 0 52 -18.5t26 -54.5v-772q0 -36 -22.5 -53.5t-52.5 -17.5q-20 0 -39.5 9.5t-32.5 27.5l-356 550q0 -57 0.5 -123.5t1 -134.5t1 -134.5t0.5 -123.5q0 -38 -24 -54.5
t-53 -16.5q-16 0 -31 5t-26.5 14t-17.5 22t-4 30zM383 -218q-11 -15 -26 -20.5t-29 -5.5q-21 0 -40.5 10.5t-30 27t-8.5 37.5t23 42q15 15 15 22q0 3 -4 10.5t-10 18.5q-12 22 -11 42t11 35t26.5 23.5t34.5 8.5t35.5 -9.5t29.5 -29.5q29 -50 29 -98q0 -60 -45 -115v1z" />
    <glyph glyph-name="ncommaaccent" unicode="&#x146;" horiz-adv-x="641" 
d="M188 63q0 -36 -22.5 -52t-50.5 -16q-15 0 -29.5 5t-25.5 14t-16.5 23t-3.5 32v-6v586q0 37 22.5 54t50.5 17q20 0 39 -10.5t29 -30.5q35 17 74 25.5t78 4.5q50 -6 89.5 -25.5t68.5 -50.5t49.5 -70t32.5 -84q20 -73 25 -151.5t5 -150.5v-113q1 -35 -23 -54.5t-54 -19.5
q-15 0 -29 5t-25 14.5t-17.5 24t-4.5 34.5q0 10 0.5 21.5t0.5 25.5q1 17 1 36v41q0 58 -4.5 122.5t-18.5 118.5q-14 51 -38.5 86t-66.5 39q-39 4 -76 -12t-60 -53v-430zM382 -239q-11 -15 -26 -20.5t-29 -5.5q-21 0 -40.5 10.5t-30 27t-8.5 37.5t23 42q15 15 15 22
q0 3 -4 10.5t-10 18.5q-12 22 -11 42t11 35t26.5 23.5t34.5 8.5t35.5 -9.5t29.5 -29.5q29 -50 29 -98q0 -60 -45 -115v1z" />
    <glyph glyph-name="Ncaron" unicode="&#x147;" horiz-adv-x="720" 
d="M21 843q0 38 22 55.5t51 17.5q21 0 41 -10t33 -29l357 -551v517q0 19 6.5 33t17.5 23t25 13.5t29 4.5q28 0 52 -18.5t26 -54.5v-772q0 -36 -22.5 -53.5t-52.5 -17.5q-20 0 -39.5 9.5t-32.5 27.5l-356 550q0 -57 0.5 -123.5t1 -134.5t1 -134.5t0.5 -123.5q0 -38 -24 -54.5
t-53 -16.5q-16 0 -31 5t-26.5 14t-17.5 22t-4 30zM461 1168q13 15 28.5 17.5t30 -4t26.5 -19.5t19 -27t6.5 -28t-10.5 -22l-114 -106q-37 -33 -74 -33q-21 0 -39 8.5t-36 24.5l-88 81q-22 23 -16 48t23.5 43t39.5 24.5t32 -7.5q19 -17 43.5 -40t43.5 -40z" />
    <glyph glyph-name="ncaron" unicode="&#x148;" horiz-adv-x="641" 
d="M188 63q0 -36 -22.5 -52t-50.5 -16q-15 0 -29.5 5t-25.5 14t-16.5 23t-3.5 32v-6v586q0 37 22.5 54t50.5 17q20 0 39 -10.5t29 -30.5q35 17 74 25.5t78 4.5q50 -6 89.5 -25.5t68.5 -50.5t49.5 -70t32.5 -84q20 -73 25 -151.5t5 -150.5v-113q1 -35 -23 -54.5t-54 -19.5
q-15 0 -29 5t-25 14.5t-17.5 24t-4.5 34.5q0 10 0.5 21.5t0.5 25.5q1 17 1 36v41q0 58 -4.5 122.5t-18.5 118.5q-14 51 -38.5 86t-66.5 39q-39 4 -76 -12t-60 -53v-430zM422 1002q13 15 28.5 17.5t30 -4t26.5 -19.5t19 -27t6.5 -28t-10.5 -22l-114 -106q-37 -33 -74 -33
q-21 0 -39 8.5t-36 24.5l-88 81q-22 23 -16 48t23.5 43t39.5 24.5t32 -7.5q19 -17 43.5 -40t43.5 -40z" />
    <glyph glyph-name="napostrophe" unicode="&#x149;" horiz-adv-x="641" 
d="M188 63q0 -36 -22.5 -52t-50.5 -16q-15 0 -29.5 5t-25.5 14t-16.5 23t-3.5 32v-6v586q0 37 22.5 54t50.5 17q20 0 39 -10.5t29 -30.5q35 17 74 25.5t78 4.5q50 -6 89.5 -25.5t68.5 -50.5t49.5 -70t32.5 -84q20 -73 25 -151.5t5 -150.5v-113q1 -35 -23 -54.5t-54 -19.5
q-15 0 -29 5t-25 14.5t-17.5 24t-4.5 34.5q0 10 0.5 21.5t0.5 25.5q1 17 1 36v41q0 58 -4.5 122.5t-18.5 118.5q-14 51 -38.5 86t-66.5 39q-39 4 -76 -12t-60 -53v-430zM203 808q-11 -15 -26 -20.5t-29 -5.5q-21 0 -40.5 10.5t-30 27t-8.5 37.5t23 42q15 15 15 22
q0 3 -4 10.5t-10 18.5q-12 22 -11 42t11 35t26.5 23.5t34.5 8.5t35.5 -9.5t29.5 -29.5q29 -50 29 -98q0 -60 -45 -115v1z" />
    <glyph glyph-name="Omacron" unicode="&#x14c;" horiz-adv-x="777" 
d="M390 0q-86 0 -153 40.5t-113 105t-70 145t-24 160.5q0 83 22.5 166t67.5 149.5t112.5 108t157.5 41.5q59 0 108.5 -20t89 -54t69 -80.5t49 -100t29 -111t8.5 -113.5q-1 -83 -23.5 -161.5t-66.5 -139.5t-110 -98.5t-153 -37.5zM391 154q49 0 86 23.5t61.5 62t37 88.5
t13.5 103q0 56 -12 114.5t-37.5 106t-63 77.5t-88.5 30q-50 0 -87.5 -28t-62.5 -73t-37.5 -100.5t-12.5 -109.5q0 -42 10.5 -93.5t34.5 -96t63 -74.5t95 -30zM242 944q-37 0 -54 22.5t-17 50.5q0 27 17.5 50.5t52.5 25.5h294q35 0 51.5 -23t16.5 -51q0 -15 -5 -29.5t-14 -25
t-23 -16.5t-32 -3l6 -1h-293z" />
    <glyph glyph-name="omacron" unicode="&#x14d;" horiz-adv-x="738" 
d="M374 0q-73 0 -133 29t-102.5 78.5t-65.5 116t-23 140.5q0 67 20 131t59.5 114t98.5 80.5t138 30.5q84 0 146 -34t102.5 -88.5t59 -124t15.5 -139.5q-3 -65 -24.5 -125t-60.5 -106.5t-96.5 -74.5t-133.5 -28zM375 147q40 0 69.5 16t49.5 43t30.5 61.5t11.5 71.5
q1 42 -9 83.5t-31.5 74.5t-54.5 53.5t-76 20.5q-40 0 -70.5 -20.5t-51 -52.5t-30.5 -72.5t-8 -79.5q1 -37 13 -72.5t33.5 -63.5t52.5 -45.5t71 -17.5zM227 798q-37 0 -54 22.5t-17 50.5q0 27 17.5 50.5t52.5 25.5h294q35 0 51.5 -23t16.5 -51q0 -15 -5 -29.5t-14 -25
t-23 -16.5t-32 -3l6 -1h-293z" />
    <glyph glyph-name="Obreve" unicode="&#x14e;" horiz-adv-x="777" 
d="M390 0q-86 0 -153 40.5t-113 105t-70 145t-24 160.5q0 83 22.5 166t67.5 149.5t112.5 108t157.5 41.5q59 0 108.5 -20t89 -54t69 -80.5t49 -100t29 -111t8.5 -113.5q-1 -83 -23.5 -161.5t-66.5 -139.5t-110 -98.5t-153 -37.5zM391 154q49 0 86 23.5t61.5 62t37 88.5
t13.5 103q0 56 -12 114.5t-37.5 106t-63 77.5t-88.5 30q-50 0 -87.5 -28t-62.5 -73t-37.5 -100.5t-12.5 -109.5q0 -42 10.5 -93.5t34.5 -96t63 -74.5t95 -30zM378 1101q12 -19 31 -19q11 0 20.5 7t18.5 17q28 29 55.5 27.5t45.5 -20.5t22.5 -48t-13.5 -54
q-32 -36 -70.5 -52.5t-76.5 -16.5q-47 0 -86.5 21.5t-63.5 57.5q-14 22 -13 42t11.5 35.5t27.5 25t35 9.5q16 0 31 -7.5t26 -24.5h-1zM564 1018q-1 -4 -6 -7q5 5 6 7z" />
    <glyph glyph-name="obreve" unicode="&#x14f;" horiz-adv-x="738" 
d="M374 0q-73 0 -133 29t-102.5 78.5t-65.5 116t-23 140.5q0 67 20 131t59.5 114t98.5 80.5t138 30.5q84 0 146 -34t102.5 -88.5t59 -124t15.5 -139.5q-3 -65 -24.5 -125t-60.5 -106.5t-96.5 -74.5t-133.5 -28zM375 147q40 0 69.5 16t49.5 43t30.5 61.5t11.5 71.5
q1 42 -9 83.5t-31.5 74.5t-54.5 53.5t-76 20.5q-40 0 -70.5 -20.5t-51 -52.5t-30.5 -72.5t-8 -79.5q1 -37 13 -72.5t33.5 -63.5t52.5 -45.5t71 -17.5zM336 934q12 -19 31 -19q11 0 20.5 7t18.5 17q28 29 55.5 27.5t45.5 -20.5t22.5 -48t-13.5 -54q-32 -36 -70.5 -52.5
t-76.5 -16.5q-47 0 -86.5 21.5t-63.5 57.5q-14 22 -13 42t11.5 35.5t27.5 25t35 9.5q16 0 31 -7.5t26 -24.5h-1zM522 851q-1 -4 -6 -7q5 5 6 7z" />
    <glyph glyph-name="Ohungarumlaut" unicode="&#x150;" horiz-adv-x="777" 
d="M390 0q-86 0 -153 40.5t-113 105t-70 145t-24 160.5q0 83 22.5 166t67.5 149.5t112.5 108t157.5 41.5q59 0 108.5 -20t89 -54t69 -80.5t49 -100t29 -111t8.5 -113.5q-1 -83 -23.5 -161.5t-66.5 -139.5t-110 -98.5t-153 -37.5zM391 154q49 0 86 23.5t61.5 62t37 88.5
t13.5 103q0 56 -12 114.5t-37.5 106t-63 77.5t-88.5 30q-50 0 -87.5 -28t-62.5 -73t-37.5 -100.5t-12.5 -109.5q0 -42 10.5 -93.5t34.5 -96t63 -74.5t95 -30zM336 997l2 2q-11 -19 -26 -26.5t-31 -7.5q-17 0 -34 10.5t-28 26.5t-13.5 35.5t9.5 36.5q11 18 23 37t23 37
q12 17 27 25t31 8q17 0 33 -9t26.5 -23.5t14 -33t-5.5 -38.5zM540 990l2 2q-11 -19 -25.5 -26.5t-31.5 -7.5t-34 10.5t-27.5 27t-13 35.5t8.5 37v-1q11 18 23 37t23 37q12 18 27 26t31 8q17 0 33.5 -9t27 -23.5t13.5 -33.5t-6 -39z" />
    <glyph glyph-name="ohungarumlaut" unicode="&#x151;" horiz-adv-x="738" 
d="M374 0q-73 0 -133 29t-102.5 78.5t-65.5 116t-23 140.5q0 67 20 131t59.5 114t98.5 80.5t138 30.5q84 0 146 -34t102.5 -88.5t59 -124t15.5 -139.5q-3 -65 -24.5 -125t-60.5 -106.5t-96.5 -74.5t-133.5 -28zM375 147q40 0 69.5 16t49.5 43t30.5 61.5t11.5 71.5
q1 42 -9 83.5t-31.5 74.5t-54.5 53.5t-76 20.5q-40 0 -70.5 -20.5t-51 -52.5t-30.5 -72.5t-8 -79.5q1 -37 13 -72.5t33.5 -63.5t52.5 -45.5t71 -17.5zM330 807l2 2q-11 -19 -26 -26.5t-31 -7.5q-17 0 -34 10.5t-28 26.5t-13.5 35.5t9.5 36.5q11 18 23 37t23 37q12 17 27 25
t31 8q17 0 33 -9t26.5 -23.5t14 -33t-5.5 -38.5zM534 800l2 2q-11 -19 -25.5 -26.5t-31.5 -7.5t-34 10.5t-27.5 27t-13 35.5t8.5 37v-1q11 18 23 37t23 37q12 18 27 26t31 8q17 0 33.5 -9t27 -23.5t13.5 -33.5t-6 -39z" />
    <glyph glyph-name="OE" unicode="&#x152;" horiz-adv-x="1024" 
d="M906 -1h-197t-135.5 0.5t-86.5 0.5t-48.5 0.5t-22.5 1t-8 1.5q-76 3 -135.5 37t-103 87t-69.5 121.5t-35 140.5q-1 12 -1.5 27t-0.5 31q0 81 21.5 163t64.5 148.5t107.5 110t151.5 46.5l-4 -1q10 1 36 2t82.5 2t149 1h236.5q38 0 54.5 -24t16.5 -53q0 -16 -5 -31
t-15 -26.5t-24 -17.5t-33 -3l6 -1h-404v-228h332q38 0 54.5 -24t16.5 -53q0 -16 -5 -31t-15 -26.5t-24 -17.5t-33 -3l6 -1h-332v-224h402q38 0 54.5 -24t16.5 -53q0 -16 -5 -31t-15 -26.5t-24 -17.5t-33 -3zM221 444v-19t1 -18q3 -39 12.5 -75t25 -67t37.5 -54.5t50 -37.5
v568q-31 -16 -54.5 -48.5t-39.5 -73.5t-24 -86.5t-8 -88.5z" />
    <glyph glyph-name="oe" unicode="&#x153;" horiz-adv-x="1040" 
d="M545 337q1 -37 11.5 -71.5t31 -61t50.5 -42.5t71 -16q21 0 42.5 7t40 22t33.5 39t24 57q5 33 26.5 49.5t47.5 16.5q29 0 51.5 -20.5t22.5 -62.5q-14 -65 -42.5 -113t-67 -79.5t-84 -47t-93.5 -15.5q-48 -2 -91 9t-76 31q-35 -23 -76.5 -35.5t-92.5 -12.5
q-77 0 -135.5 28.5t-99 75.5t-62.5 107.5t-26 125.5v-2q-1 7 -1 14v15q0 67 20 131t59.5 114t99 80.5t138.5 30.5q51 0 92.5 -13t76.5 -36q35 25 79.5 39.5t97.5 14.5q65 0 113.5 -25.5t81.5 -66t52.5 -91t25.5 -99.5q2 -21 -1.5 -39t-16 -31t-35.5 -20t-60 -7h-328z
M375 138q17 0 34 3t30 9q-23 43 -34.5 90t-12.5 98q-29 6 -42 27t-13 46q0 27 17.5 50t52.5 25h5q5 15 11 29.5t14 28.5q-31 17 -72 17q-39 0 -69 -20t-50 -52.5t-30.5 -72.5t-10.5 -79q3 -37 15 -73t33 -64t51.5 -45t70.5 -17zM715 567q-48 0 -81.5 -21.5t-54.5 -59.5h243
q-14 35 -41 58t-66 23z" />
    <glyph glyph-name="Racute" unicode="&#x154;" horiz-adv-x="696" 
d="M114 921q30 0 52.5 -17.5t21.5 -51.5q41 28 83.5 43.5t86.5 20.5l-3 -1q13 2 23 2h19q62 0 113 -20.5t87 -55t56 -80t20 -94.5q0 -56 -29.5 -113t-90.5 -104q-38 -27 -90.5 -51t-103.5 -36l268 -223q26 -24 25 -53.5t-17.5 -51.5t-43.5 -31t-54 9q-53 39 -94.5 73.5
t-80.5 68.5t-80.5 68.5t-93.5 73.5v-223q0 -38 -23.5 -56.5t-53.5 -18.5q-29 0 -52.5 19t-25.5 55v781q0 16 7 29t18.5 21t26 12.5t29.5 4.5zM188 495q82 0 156 21t121 59h-1q27 23 40 47t13 48q0 19 -8 36.5t-23 30.5t-36.5 21t-48.5 8h-10.5t-13.5 -1q-27 -4 -54.5 -14.5
t-52.5 -28t-46 -41t-36 -53.5v-133zM422 982q-11 -19 -26 -26.5t-31 -7.5q-17 0 -34 10.5t-28 26.5t-13.5 35.5t9.5 36.5q11 18 23 37t23 37q12 17 27 25t31 8q17 0 33 -9t26.5 -23.5t14 -33t-5.5 -38.5z" />
    <glyph glyph-name="racute" unicode="&#x155;" horiz-adv-x="597" 
d="M561 598q13 -21 1.5 -44.5t-34 -39.5t-49.5 -18.5t-45 18.5q-40 48 -88 52q-20 2 -43 -2t-45 -13t-40.5 -23.5t-30.5 -33.5v-431q0 -36 -22.5 -52t-50.5 -16q-15 0 -29.5 4.5t-25.5 13.5t-16.5 21.5t-3.5 28.5v586q0 37 22.5 54t50.5 17q21 0 39.5 -10.5t28.5 -31.5
q49 26 89 32.5t84 4.5q33 -1 64.5 -12t59 -27.5t49 -36.5t35.5 -41zM378 830q-11 -19 -26 -26.5t-31 -7.5q-17 0 -34 10.5t-28 26.5t-13.5 35.5t9.5 36.5q11 18 23 37t23 37q12 17 27 25t31 8q17 0 33 -9t26.5 -23.5t14 -33t-5.5 -38.5z" />
    <glyph glyph-name="Rcommaaccent" unicode="&#x156;" horiz-adv-x="696" 
d="M114 921q30 0 52.5 -17.5t21.5 -51.5q41 28 83.5 43.5t86.5 20.5l-3 -1q13 2 23 2h19q62 0 113 -20.5t87 -55t56 -80t20 -94.5q0 -56 -29.5 -113t-90.5 -104q-38 -27 -90.5 -51t-103.5 -36l268 -223q26 -24 25 -53.5t-17.5 -51.5t-43.5 -31t-54 9q-53 39 -94.5 73.5
t-80.5 68.5t-80.5 68.5t-93.5 73.5v-223q0 -38 -23.5 -56.5t-53.5 -18.5q-29 0 -52.5 19t-25.5 55v781q0 16 7 29t18.5 21t26 12.5t29.5 4.5zM188 495q82 0 156 21t121 59h-1q27 23 40 47t13 48q0 19 -8 36.5t-23 30.5t-36.5 21t-48.5 8h-10.5t-13.5 -1q-27 -4 -54.5 -14.5
t-52.5 -28t-46 -41t-36 -53.5v-133zM385 -220q-11 -15 -26 -20.5t-29 -5.5q-21 0 -40.5 10.5t-30 27t-8.5 37.5t23 42q15 15 15 22q0 3 -4 10.5t-10 18.5q-12 22 -11 42t11 35t26.5 23.5t34.5 8.5t35.5 -9.5t29.5 -29.5q29 -50 29 -98q0 -60 -45 -115v1z" />
    <glyph glyph-name="rcommaaccent" unicode="&#x157;" horiz-adv-x="597" 
d="M561 598q13 -21 1.5 -44.5t-34 -39.5t-49.5 -18.5t-45 18.5q-40 48 -88 52q-20 2 -43 -2t-45 -13t-40.5 -23.5t-30.5 -33.5v-431q0 -36 -22.5 -52t-50.5 -16q-15 0 -29.5 4.5t-25.5 13.5t-16.5 21.5t-3.5 28.5v586q0 37 22.5 54t50.5 17q21 0 39.5 -10.5t28.5 -31.5
q49 26 89 32.5t84 4.5q33 -1 64.5 -12t59 -27.5t49 -36.5t35.5 -41zM323 -218q-11 -15 -26 -20.5t-29 -5.5q-21 0 -40.5 10.5t-30 27t-8.5 37.5t23 42q15 15 15 22q0 3 -4 10.5t-10 18.5q-12 22 -11 42t11 35t26.5 23.5t34.5 8.5t35.5 -9.5t29.5 -29.5q29 -50 29 -98
q0 -60 -45 -115v1z" />
    <glyph glyph-name="Rcaron" unicode="&#x158;" horiz-adv-x="696" 
d="M114 921q30 0 52.5 -17.5t21.5 -51.5q41 28 83.5 43.5t86.5 20.5l-3 -1q13 2 23 2h19q62 0 113 -20.5t87 -55t56 -80t20 -94.5q0 -56 -29.5 -113t-90.5 -104q-38 -27 -90.5 -51t-103.5 -36l268 -223q26 -24 25 -53.5t-17.5 -51.5t-43.5 -31t-54 9q-53 39 -94.5 73.5
t-80.5 68.5t-80.5 68.5t-93.5 73.5v-223q0 -38 -23.5 -56.5t-53.5 -18.5q-29 0 -52.5 19t-25.5 55v781q0 16 7 29t18.5 21t26 12.5t29.5 4.5zM188 495q82 0 156 21t121 59h-1q27 23 40 47t13 48q0 19 -8 36.5t-23 30.5t-36.5 21t-48.5 8h-10.5t-13.5 -1q-27 -4 -54.5 -14.5
t-52.5 -28t-46 -41t-36 -53.5v-133zM449 1168q13 15 28.5 17.5t30 -4t26.5 -19.5t19 -27t6.5 -28t-10.5 -22l-114 -106q-37 -33 -74 -33q-21 0 -39 8.5t-36 24.5l-88 81q-22 23 -16 48t23.5 43t39.5 24.5t32 -7.5q19 -17 43.5 -40t43.5 -40z" />
    <glyph glyph-name="rcaron" unicode="&#x159;" horiz-adv-x="597" 
d="M561 598q13 -21 1.5 -44.5t-34 -39.5t-49.5 -18.5t-45 18.5q-40 48 -88 52q-20 2 -43 -2t-45 -13t-40.5 -23.5t-30.5 -33.5v-431q0 -36 -22.5 -52t-50.5 -16q-15 0 -29.5 4.5t-25.5 13.5t-16.5 21.5t-3.5 28.5v586q0 37 22.5 54t50.5 17q21 0 39.5 -10.5t28.5 -31.5
q49 26 89 32.5t84 4.5q33 -1 64.5 -12t59 -27.5t49 -36.5t35.5 -41zM395 1033q13 15 28.5 17.5t30 -4t26.5 -19.5t19 -27t6.5 -28t-10.5 -22l-114 -106q-37 -33 -74 -33q-21 0 -39 8.5t-36 24.5l-88 81q-22 23 -16 48t23.5 43t39.5 24.5t32 -7.5q19 -17 43.5 -40t43.5 -40z
" />
    <glyph glyph-name="Sacute" unicode="&#x15a;" horiz-adv-x="707" 
d="M185 283q9 -35 26 -60.5t37.5 -42t44 -25t46.5 -8.5q37 0 68.5 10t55 27t38 40t17.5 49v-1q3 34 -7 62t-30 48.5t-49.5 31t-63.5 9.5q-54 -2 -111.5 4.5t-105 30t-77.5 67.5t-30 118q0 50 23.5 99.5t68 88.5t108.5 63t144 24q58 -4 106 -24.5t83.5 -53.5t57.5 -76.5
t28 -94.5q4 -22 -5 -38.5t-25 -27t-36.5 -14t-39 1t-33 18t-17.5 36.5q-5 29 -18.5 51.5t-32 38.5t-41.5 24.5t-45 9.5q-79 2 -123.5 -31t-47.5 -90q-2 -32 20 -46.5t52.5 -20.5t63.5 -6t54 -2q64 -5 118 -26t93 -59t59 -93t16 -127q-3 -55 -29 -104t-71 -86.5t-107 -59
t-137 -20.5q-50 0 -98 16t-88.5 49t-71 83.5t-44.5 119.5q0 43 24 65t54 22q27 0 50 -17.5t28 -52.5zM439 997q-11 -19 -26 -26.5t-31 -7.5q-17 0 -34 10.5t-28 26.5t-13.5 35.5t9.5 36.5q11 18 23 37t23 37q12 17 27 25t31 8q17 0 33 -9t26.5 -23.5t14 -33t-5.5 -38.5z" />
    <glyph glyph-name="sacute" unicode="&#x15b;" horiz-adv-x="691" 
d="M186 219q5 -26 20.5 -41.5t36 -23.5t44.5 -10.5t46 -2.5q24 0 52.5 5t52.5 17.5t39 33t13 51.5q-2 25 -25 36t-53.5 14t-60.5 1t-46 -2q-59 0 -103.5 12.5t-75 34.5t-47 53t-20.5 68q-5 48 17.5 95.5t64 84t99 58.5t124.5 19q45 -2 86 -16.5t73.5 -37t54 -52t27.5 -60.5
q5 -29 -10.5 -47.5t-38 -25.5t-45 -1.5t-31.5 25.5q-5 12 -13.5 24t-23 22.5t-38 18t-58.5 8.5q-20 0 -45.5 -6.5t-47 -19.5t-36 -31.5t-12.5 -40.5q8 -42 104 -42q63 0 122.5 -4.5t105.5 -23t73.5 -56t27.5 -102.5q0 -60 -27 -107.5t-71 -80t-100.5 -50t-115.5 -17.5
q-47 0 -94 9.5t-87 33.5t-68.5 64t-38.5 100q0 40 23 60t52 20q26 0 47.5 -16.5t26.5 -51.5v1v0zM428 850q-11 -19 -26 -26.5t-31 -7.5q-17 0 -34 10.5t-28 26.5t-13.5 35.5t9.5 36.5q11 18 23 37t23 37q12 17 27 25t31 8q17 0 33 -9t26.5 -23.5t14 -33t-5.5 -38.5z" />
    <glyph glyph-name="Scircumflex" unicode="&#x15c;" horiz-adv-x="707" 
d="M185 283q9 -35 26 -60.5t37.5 -42t44 -25t46.5 -8.5q37 0 68.5 10t55 27t38 40t17.5 49v-1q3 34 -7 62t-30 48.5t-49.5 31t-63.5 9.5q-54 -2 -111.5 4.5t-105 30t-77.5 67.5t-30 118q0 50 23.5 99.5t68 88.5t108.5 63t144 24q58 -4 106 -24.5t83.5 -53.5t57.5 -76.5
t28 -94.5q4 -22 -5 -38.5t-25 -27t-36.5 -14t-39 1t-33 18t-17.5 36.5q-5 29 -18.5 51.5t-32 38.5t-41.5 24.5t-45 9.5q-79 2 -123.5 -31t-47.5 -90q-2 -32 20 -46.5t52.5 -20.5t63.5 -6t54 -2q64 -5 118 -26t93 -59t59 -93t16 -127q-3 -55 -29 -104t-71 -86.5t-107 -59
t-137 -20.5q-50 0 -98 16t-88.5 49t-71 83.5t-44.5 119.5q0 43 24 65t54 22q27 0 50 -17.5t28 -52.5zM279 960q-13 -16 -28.5 -18t-30 4.5t-26.5 19.5t-19 27t-6.5 28t10.5 22l103 94q37 33 74 33q21 0 39 -8.5t36 -24.5l88 -81q22 -23 16 -48t-23.5 -43t-39.5 -24.5
t-32 7.5q-19 17 -43.5 40t-43.5 40z" />
    <glyph glyph-name="scircumflex" unicode="&#x15d;" horiz-adv-x="675" 
d="M186 219q5 -26 20.5 -41.5t36 -23.5t44.5 -10.5t46 -2.5q24 0 52.5 5t52.5 17.5t39 33t13 51.5q-2 25 -25 36t-53.5 14t-60.5 1t-46 -2q-59 0 -103.5 12.5t-75 34.5t-47 53t-20.5 68q-5 48 17.5 95.5t64 84t99 58.5t124.5 19q45 -2 86 -16.5t73.5 -37t54 -52t27.5 -60.5
q5 -29 -10.5 -47.5t-38 -25.5t-45 -1.5t-31.5 25.5q-5 12 -13.5 24t-23 22.5t-38 18t-58.5 8.5q-20 0 -45.5 -6.5t-47 -19.5t-36 -31.5t-12.5 -40.5q8 -42 104 -42q63 0 122.5 -4.5t105.5 -23t73.5 -56t27.5 -102.5q0 -60 -27 -107.5t-71 -80t-100.5 -50t-115.5 -17.5
q-47 0 -94 9.5t-87 33.5t-68.5 64t-38.5 100q0 40 23 60t52 20q26 0 47.5 -16.5t26.5 -51.5v1v0zM273 798q-13 -16 -28.5 -18t-30 4.5t-26.5 19.5t-19 27t-6.5 28t10.5 22l103 94q37 33 74 33q21 0 39 -8.5t36 -24.5l88 -81q22 -23 16 -48t-23.5 -43t-39.5 -24.5t-32 7.5
q-19 17 -43.5 40t-43.5 40z" />
    <glyph glyph-name="Scedilla" unicode="&#x15e;" horiz-adv-x="707" 
d="M296 -265q-25 4 -39 25t-14 44q0 27 15 46t50 16q-19 4 -32 15t-20.5 26t-11 32t-3.5 34q0 10 0.5 18.5t1.5 13.5v6q-37 11 -71 32.5t-62 53t-49 73.5t-32 96q0 43 24 65t54 22q27 0 50 -17.5t28 -52.5q9 -35 26 -60.5t37.5 -42t44 -25t46.5 -8.5q37 0 68.5 10t55 27
t38 40t17.5 49v-1q3 34 -7 62t-30 48.5t-49.5 31t-63.5 9.5q-54 -2 -111.5 4.5t-105 30t-77.5 67.5t-30 118q0 50 23.5 99.5t68 88.5t108.5 63t144 24q58 -4 106 -24.5t83.5 -53.5t57.5 -76.5t28 -94.5q4 -22 -5 -38.5t-25 -27t-36.5 -14t-39 1t-33 18t-17.5 36.5
q-5 29 -18.5 51.5t-32 38.5t-41.5 24.5t-45 9.5q-79 2 -123.5 -31t-47.5 -90q-2 -32 20 -46.5t52.5 -20.5t63.5 -6t54 -2q64 -5 118 -26t93 -59t59 -93t16 -127q-3 -50 -25.5 -96t-60.5 -82t-91.5 -60t-118.5 -30v-16q37 -16 56 -50t19 -72q0 -24 -8 -47.5t-23.5 -42
t-39.5 -29.5t-56 -11q-8 0 -16.5 0.5t-16.5 2.5h2z" />
    <glyph glyph-name="scedilla" unicode="&#x15f;" horiz-adv-x="691" 
d="M293 -273q-25 4 -39 25t-14 44q0 27 15 46t50 16q-19 4 -32 15t-20.5 26t-11 32t-3.5 34q0 10 0.5 18.5t1.5 13.5q0 6 1 9q-36 7 -69.5 21.5t-61 38.5t-46.5 58.5t-27 81.5q0 40 23 60t52 20q26 0 47.5 -16.5t26.5 -51.5v1q5 -26 20.5 -41.5t36 -23.5t44.5 -10.5t46 -2.5
q24 0 52.5 5t52.5 17.5t39 33t13 51.5q-2 25 -25 36t-53.5 14t-60.5 1t-46 -2q-59 0 -103.5 12.5t-75 34.5t-47 53t-20.5 68q-5 48 17.5 95.5t64 84t99 58.5t124.5 19q45 -2 86 -16.5t73.5 -37t54 -52t27.5 -60.5q5 -29 -10.5 -47.5t-38 -25.5t-45 -1.5t-31.5 25.5
q-5 12 -13.5 24t-23 22.5t-38 18t-58.5 8.5q-20 0 -45.5 -6.5t-47 -19.5t-36 -31.5t-12.5 -40.5q8 -42 104 -42q63 0 122.5 -4.5t105.5 -23t73.5 -56t27.5 -102.5q0 -54 -21.5 -97.5t-58 -75.5t-84 -52t-99.5 -27v-10v-16q37 -16 56 -50t19 -72q0 -24 -8 -47.5t-23.5 -42
t-39.5 -29.5t-56 -11q-8 0 -16.5 0.5t-16.5 2.5h2z" />
    <glyph glyph-name="Scaron" unicode="&#x160;" horiz-adv-x="707" 
d="M185 283q9 -35 26 -60.5t37.5 -42t44 -25t46.5 -8.5q37 0 68.5 10t55 27t38 40t17.5 49v-1q3 34 -7 62t-30 48.5t-49.5 31t-63.5 9.5q-54 -2 -111.5 4.5t-105 30t-77.5 67.5t-30 118q0 50 23.5 99.5t68 88.5t108.5 63t144 24q58 -4 106 -24.5t83.5 -53.5t57.5 -76.5
t28 -94.5q4 -22 -5 -38.5t-25 -27t-36.5 -14t-39 1t-33 18t-17.5 36.5q-5 29 -18.5 51.5t-32 38.5t-41.5 24.5t-45 9.5q-79 2 -123.5 -31t-47.5 -90q-2 -32 20 -46.5t52.5 -20.5t63.5 -6t54 -2q64 -5 118 -26t93 -59t59 -93t16 -127q-3 -55 -29 -104t-71 -86.5t-107 -59
t-137 -20.5q-50 0 -98 16t-88.5 49t-71 83.5t-44.5 119.5q0 43 24 65t54 22q27 0 50 -17.5t28 -52.5zM464 1182q13 15 28.5 17.5t30 -4t26.5 -19.5t19 -27t6.5 -28t-10.5 -22l-114 -106q-37 -33 -74 -33q-21 0 -39 8.5t-36 24.5l-88 81q-22 23 -16 48t23.5 43t39.5 24.5
t32 -7.5q19 -17 43.5 -40t43.5 -40z" />
    <glyph glyph-name="scaron" unicode="&#x161;" horiz-adv-x="691" 
d="M186 219q5 -26 20.5 -41.5t36 -23.5t44.5 -10.5t46 -2.5q24 0 52.5 5t52.5 17.5t39 33t13 51.5q-2 25 -25 36t-53.5 14t-60.5 1t-46 -2q-59 0 -103.5 12.5t-75 34.5t-47 53t-20.5 68q-5 48 17.5 95.5t64 84t99 58.5t124.5 19q45 -2 86 -16.5t73.5 -37t54 -52t27.5 -60.5
q5 -29 -10.5 -47.5t-38 -25.5t-45 -1.5t-31.5 25.5q-5 12 -13.5 24t-23 22.5t-38 18t-58.5 8.5q-20 0 -45.5 -6.5t-47 -19.5t-36 -31.5t-12.5 -40.5q8 -42 104 -42q63 0 122.5 -4.5t105.5 -23t73.5 -56t27.5 -102.5q0 -60 -27 -107.5t-71 -80t-100.5 -50t-115.5 -17.5
q-47 0 -94 9.5t-87 33.5t-68.5 64t-38.5 100q0 40 23 60t52 20q26 0 47.5 -16.5t26.5 -51.5v1v0zM427 1006q13 15 28.5 17.5t30 -4t26.5 -19.5t19 -27t6.5 -28t-10.5 -22l-114 -106q-37 -33 -74 -33q-21 0 -39 8.5t-36 24.5l-88 81q-22 23 -16 48t23.5 43t39.5 24.5t32 -7.5
q19 -17 43.5 -40t43.5 -40z" />
    <glyph glyph-name="Tcommaaccent" unicode="&#x162;" horiz-adv-x="677" 
d="M407 738v-665q-1 -37 -26 -54.5t-54.5 -16.5t-53 19t-22.5 52v665h-162q-38 0 -56.5 23.5t-18.5 52.5t19 52.5t55 25.5h489q38 0 54.5 -23t16.5 -53q0 -15 -5 -30t-15 -26t-24.5 -17.5t-33.5 -3.5l7 -1h-170zM368 -300q-11 -15 -26 -20.5t-29 -5.5q-21 0 -40.5 10.5
t-30 27t-8.5 37.5t23 42q15 15 15 22q0 3 -4 10.5t-10 18.5q-12 22 -11 42t11 35t26.5 23.5t34.5 8.5t35.5 -9.5t29.5 -29.5q29 -50 29 -98q0 -60 -45 -115v1z" />
    <glyph glyph-name="tcommaaccent" unicode="&#x163;" horiz-adv-x="648" 
d="M398 578v-509q0 -36 -23 -52t-51 -16q-15 0 -29.5 4.5t-25.5 13.5t-16.5 21.5t-3.5 28.5v509h-134q-36 0 -53.5 22t-17.5 51q0 28 17.5 50t52.5 24h135v123q0 36 23 53.5t51 17.5q27 0 50 -17.5t25 -52.5v-124h146q35 0 51 -22t16 -50q0 -15 -5 -29t-14 -25t-22.5 -17
t-31.5 -3l6 -1h-146zM364 -303q-11 -15 -26 -20.5t-29 -5.5q-21 0 -40.5 10.5t-30 27t-8.5 37.5t23 42q15 15 15 22q0 3 -4 10.5t-10 18.5q-12 22 -11 42t11 35t26.5 23.5t34.5 8.5t35.5 -9.5t29.5 -29.5q29 -50 29 -98q0 -60 -45 -115v1z" />
    <glyph glyph-name="Tcaron" unicode="&#x164;" horiz-adv-x="677" 
d="M407 738v-665q-1 -37 -26 -54.5t-54.5 -16.5t-53 19t-22.5 52v665h-162q-38 0 -56.5 23.5t-18.5 52.5t19 52.5t55 25.5h489q38 0 54.5 -23t16.5 -53q0 -15 -5 -30t-15 -26t-24.5 -17.5t-33.5 -3.5l7 -1h-170zM440 1168q13 15 28.5 17.5t30 -4t26.5 -19.5t19 -27t6.5 -28
t-10.5 -22l-114 -106q-37 -33 -74 -33q-21 0 -39 8.5t-36 24.5l-88 81q-22 23 -16 48t23.5 43t39.5 24.5t32 -7.5q19 -17 43.5 -40t43.5 -40z" />
    <glyph glyph-name="tcaron" unicode="&#x165;" horiz-adv-x="882" 
d="M398 578v-509q0 -36 -23 -52t-51 -16q-15 0 -29.5 4.5t-25.5 13.5t-16.5 21.5t-3.5 28.5v509h-134q-36 0 -53.5 22t-17.5 51q0 28 17.5 50t52.5 24h135v123q0 36 23 53.5t51 17.5q27 0 50 -17.5t25 -52.5v-124h146q35 0 51 -22t16 -50q0 -15 -5 -29t-14 -25t-22.5 -17
t-31.5 -3l6 -1h-146zM777 644q-11 -15 -26 -20.5t-29 -5.5q-21 0 -40.5 10.5t-30 27t-8.5 37.5t23 42q16 16 16 22q0 2 -4.5 10t-10.5 19q-12 22 -11 42t11 35t26.5 23.5t34.5 8.5t35.5 -9.5t29.5 -29.5q29 -50 29 -98q0 -60 -45 -115v1z" />
    <glyph glyph-name="Tbar" unicode="&#x166;" horiz-adv-x="677" 
d="M406 422v-349q-1 -37 -26 -54.5t-54.5 -16.5t-53 19t-22.5 52v349h-69q-37 0 -54 22.5t-17 50.5q0 27 17.5 50.5t52.5 25.5h70v167h-162q-38 0 -56.5 23.5t-18.5 52.5t19 52.5t55 25.5h489q38 0 54.5 -23t16.5 -53q0 -15 -5 -29.5t-14.5 -25.5t-23.5 -18t-32 -5h4h-170
v-167h68q35 0 51.5 -23t16.5 -51q0 -15 -5 -29.5t-14 -25t-23 -16.5t-32 -3l6 -1h-68z" />
    <glyph glyph-name="tbar" unicode="&#x167;" horiz-adv-x="648" 
d="M398 395v-326q0 -36 -23 -52t-51 -16q-15 0 -29.5 4.5t-25.5 13.5t-16.5 21.5t-3.5 28.5v326h-72q-37 0 -54 22.5t-17 50.5q0 27 17.5 50.5t52.5 25.5h73v34h-134q-36 0 -53.5 22t-17.5 51q0 28 17.5 50t52.5 24h135v123q0 36 23 53.5t51 17.5q27 0 50 -17.5t25 -52.5
v-124h146q35 0 51 -22t16 -50q0 -15 -5 -29t-14 -25t-22.5 -17t-31.5 -3l6 -1h-146v-34h72q35 0 51.5 -23t16.5 -51q0 -15 -5 -29.5t-14 -25t-23 -16.5t-32 -3l6 -1h-72z" />
    <glyph glyph-name="Utilde" unicode="&#x168;" horiz-adv-x="719" 
d="M660 237q-16 -58 -45.5 -101.5t-68 -73t-83.5 -45.5t-92 -17q-49 -2 -97.5 12.5t-90 44.5t-74 75t-49.5 105q-10 38 -16.5 89t-10 108t-4.5 115t-1 110v177q-1 19 5 34.5t17.5 25.5t26.5 15.5t31 5.5q15 0 30 -5t26.5 -15t17.5 -25.5t5 -35.5q0 -32 -1 -82.5t-1 -119.5
q0 -47 1 -96.5t3.5 -96t7 -87.5t12.5 -69q18 -65 61 -97t91 -31q24 0 47.5 8.5t43.5 24t35.5 39.5t23.5 56q7 28 12 67t7 83.5t3 92.5t1 93v106t-1 109q-2 20 4.5 35.5t17.5 25.5t26 15t31 5t31 -5.5t26 -15.5t17 -25.5t5 -34.5v-177q0 -53 -1 -111.5t-4 -115t-9.5 -107.5
t-16.5 -88zM296 1003q-7 -25 -25 -37t-39 -12q-15 0 -29 6.5t-25 17.5t-16.5 26t-2.5 32q7 31 21 56t33.5 41.5t42.5 25t49 7.5q22 -1 39.5 -7.5t32 -15.5t26 -19.5t21.5 -20.5q6 -7 12.5 -14t8.5 -7q-3 5 0 24q5 29 23.5 43.5t43.5 14.5q15 0 30 -5.5t26 -17t16 -28
t1 -37.5q-6 -26 -15.5 -48t-25 -39.5t-38 -28t-52.5 -11.5h1q-26 -1 -45.5 4.5t-34.5 14.5t-26.5 21t-21.5 23q-8 8 -14 14.5t-11 4.5q2 0 -5 -27z" />
    <glyph glyph-name="utilde" unicode="&#x169;" horiz-adv-x="659" 
d="M459 647q0 35 23 51t50 16q15 0 29.5 -4.5t25.5 -14t16.5 -23t3.5 -31.5l1 6v-587q0 -36 -23 -53.5t-51 -17.5q-21 0 -39.5 10.5t-28.5 30.5q-35 -17 -74.5 -25t-77.5 -5q-50 6 -89.5 26t-69 50.5t-49.5 70t-32 84.5q-20 72 -25 150.5t-5 150.5v113q-1 36 23 55t54 19
q15 0 29 -4.5t25 -14.5t17 -24.5t5 -33.5q0 -11 -0.5 -22.5t-0.5 -24.5q-1 -18 -1 -37v-40q0 -58 4.5 -122.5t18.5 -119.5v1q14 -51 38.5 -86.5t66.5 -39.5q38 -4 75.5 13t60.5 52v431zM266 837q-7 -25 -25 -37t-39 -12q-15 0 -29 6.5t-25 17.5t-16.5 26t-2.5 32q7 31 21 56
t33.5 41.5t42.5 25t49 7.5q22 -1 39.5 -7.5t32 -15.5t26 -19.5t21.5 -20.5q6 -7 12.5 -14t8.5 -7q-3 5 0 24q5 29 23.5 43.5t43.5 14.5q15 0 30 -5.5t26 -17t16 -28t1 -37.5q-6 -26 -15.5 -48t-25 -39.5t-38 -28t-52.5 -11.5h1q-26 -1 -45.5 4.5t-34.5 14.5t-26.5 21
t-21.5 23q-8 8 -14 14.5t-11 4.5q2 0 -5 -27z" />
    <glyph glyph-name="Umacron" unicode="&#x16a;" horiz-adv-x="719" 
d="M660 237q-16 -58 -45.5 -101.5t-68 -73t-83.5 -45.5t-92 -17q-49 -2 -97.5 12.5t-90 44.5t-74 75t-49.5 105q-10 38 -16.5 89t-10 108t-4.5 115t-1 110v177q-1 19 5 34.5t17.5 25.5t26.5 15.5t31 5.5q15 0 30 -5t26.5 -15t17.5 -25.5t5 -35.5q0 -32 -1 -82.5t-1 -119.5
q0 -47 1 -96.5t3.5 -96t7 -87.5t12.5 -69q18 -65 61 -97t91 -31q24 0 47.5 8.5t43.5 24t35.5 39.5t23.5 56q7 28 12 67t7 83.5t3 92.5t1 93v106t-1 109q-2 20 4.5 35.5t17.5 25.5t26 15t31 5t31 -5.5t26 -15.5t17 -25.5t5 -34.5v-177q0 -53 -1 -111.5t-4 -115t-9.5 -107.5
t-16.5 -88zM213 944q-37 0 -54 22.5t-17 50.5q0 27 17.5 50.5t52.5 25.5h294q35 0 51.5 -23t16.5 -51q0 -15 -5 -29.5t-14 -25t-23 -16.5t-32 -3l6 -1h-293z" />
    <glyph glyph-name="umacron" unicode="&#x16b;" horiz-adv-x="659" 
d="M459 647q0 35 23 51t50 16q15 0 29.5 -4.5t25.5 -14t16.5 -23t3.5 -31.5l1 6v-587q0 -36 -23 -53.5t-51 -17.5q-21 0 -39.5 10.5t-28.5 30.5q-35 -17 -74.5 -25t-77.5 -5q-50 6 -89.5 26t-69 50.5t-49.5 70t-32 84.5q-20 72 -25 150.5t-5 150.5v113q-1 36 23 55t54 19
q15 0 29 -4.5t25 -14.5t17 -24.5t5 -33.5q0 -11 -0.5 -22.5t-0.5 -24.5q-1 -18 -1 -37v-40q0 -58 4.5 -122.5t18.5 -119.5v1q14 -51 38.5 -86.5t66.5 -39.5q38 -4 75.5 13t60.5 52v431zM183 778q-37 0 -54 22.5t-17 50.5q0 27 17.5 50.5t52.5 25.5h294q35 0 51.5 -23
t16.5 -51q0 -15 -5 -29.5t-14 -25t-23 -16.5t-32 -3l6 -1h-293z" />
    <glyph glyph-name="Ubreve" unicode="&#x16c;" horiz-adv-x="719" 
d="M660 237q-16 -58 -45.5 -101.5t-68 -73t-83.5 -45.5t-92 -17q-49 -2 -97.5 12.5t-90 44.5t-74 75t-49.5 105q-10 38 -16.5 89t-10 108t-4.5 115t-1 110v177q-1 19 5 34.5t17.5 25.5t26.5 15.5t31 5.5q15 0 30 -5t26.5 -15t17.5 -25.5t5 -35.5q0 -32 -1 -82.5t-1 -119.5
q0 -47 1 -96.5t3.5 -96t7 -87.5t12.5 -69q18 -65 61 -97t91 -31q24 0 47.5 8.5t43.5 24t35.5 39.5t23.5 56q7 28 12 67t7 83.5t3 92.5t1 93v106t-1 109q-2 20 4.5 35.5t17.5 25.5t26 15t31 5t31 -5.5t26 -15.5t17 -25.5t5 -34.5v-177q0 -53 -1 -111.5t-4 -115t-9.5 -107.5
t-16.5 -88zM349 1101q12 -19 31 -19q11 0 20.5 7t18.5 17q28 29 55.5 27.5t45.5 -20.5t22.5 -48t-13.5 -54q-32 -36 -70.5 -52.5t-76.5 -16.5q-47 0 -86.5 21.5t-63.5 57.5q-14 22 -13 42t11.5 35.5t27.5 25t35 9.5q16 0 31 -7.5t26 -24.5h-1zM535 1018q-1 -4 -6 -7q5 5 6 7
z" />
    <glyph glyph-name="ubreve" unicode="&#x16d;" horiz-adv-x="659" 
d="M459 647q0 35 23 51t50 16q15 0 29.5 -4.5t25.5 -14t16.5 -23t3.5 -31.5l1 6v-587q0 -36 -23 -53.5t-51 -17.5q-21 0 -39.5 10.5t-28.5 30.5q-35 -17 -74.5 -25t-77.5 -5q-50 6 -89.5 26t-69 50.5t-49.5 70t-32 84.5q-20 72 -25 150.5t-5 150.5v113q-1 36 23 55t54 19
q15 0 29 -4.5t25 -14.5t17 -24.5t5 -33.5q0 -11 -0.5 -22.5t-0.5 -24.5q-1 -18 -1 -37v-40q0 -58 4.5 -122.5t18.5 -119.5v1q14 -51 38.5 -86.5t66.5 -39.5q38 -4 75.5 13t60.5 52v431zM319 935q12 -19 31 -19q11 0 20.5 7t18.5 17q28 29 55.5 27.5t45.5 -20.5t22.5 -48
t-13.5 -54q-32 -36 -70.5 -52.5t-76.5 -16.5q-47 0 -86.5 21.5t-63.5 57.5q-14 22 -13 42t11.5 35.5t27.5 25t35 9.5q16 0 31 -7.5t26 -24.5h-1zM505 852q-1 -4 -6 -7q5 5 6 7z" />
    <glyph glyph-name="Uring" unicode="&#x16e;" horiz-adv-x="719" 
d="M660 237q-16 -58 -45.5 -101.5t-68 -73t-83.5 -45.5t-92 -17q-49 -2 -97.5 12.5t-90 44.5t-74 75t-49.5 105q-10 38 -16.5 89t-10 108t-4.5 115t-1 110v177q-1 19 5 34.5t17.5 25.5t26.5 15.5t31 5.5q15 0 30 -5t26.5 -15t17.5 -25.5t5 -35.5q0 -32 -1 -82.5t-1 -119.5
q0 -47 1 -96.5t3.5 -96t7 -87.5t12.5 -69q18 -65 61 -97t91 -31q24 0 47.5 8.5t43.5 24t35.5 39.5t23.5 56q7 28 12 67t7 83.5t3 92.5t1 93v106t-1 109q-2 20 4.5 35.5t17.5 25.5t26 15t31 5t31 -5.5t26 -15.5t17 -25.5t5 -34.5v-177q0 -53 -1 -111.5t-4 -115t-9.5 -107.5
t-16.5 -88zM363 1063q0 -6 4.5 -10.5t11.5 -4.5q6 0 10.5 4.5t4.5 10.5q0 7 -4.5 11.5t-10.5 4.5q-16 0 -16 -16zM496 1062q0 -24 -9.5 -46t-25.5 -38t-37.5 -25.5t-45.5 -9.5q-25 0 -46.5 9.5t-37 25.5t-24.5 38t-9 46t9 45.5t24.5 37.5t37 25t46.5 9q24 0 45.5 -9
t37.5 -25t25.5 -37.5t9.5 -45.5z" />
    <glyph glyph-name="uring" unicode="&#x16f;" horiz-adv-x="659" 
d="M459 647q0 35 23 51t50 16q15 0 29.5 -4.5t25.5 -14t16.5 -23t3.5 -31.5l1 6v-587q0 -36 -23 -53.5t-51 -17.5q-21 0 -39.5 10.5t-28.5 30.5q-35 -17 -74.5 -25t-77.5 -5q-50 6 -89.5 26t-69 50.5t-49.5 70t-32 84.5q-20 72 -25 150.5t-5 150.5v113q-1 36 23 55t54 19
q15 0 29 -4.5t25 -14.5t17 -24.5t5 -33.5q0 -11 -0.5 -22.5t-0.5 -24.5q-1 -18 -1 -37v-40q0 -58 4.5 -122.5t18.5 -119.5v1q14 -51 38.5 -86.5t66.5 -39.5q38 -4 75.5 13t60.5 52v431zM333 897q0 -6 4.5 -10.5t11.5 -4.5q6 0 10.5 4.5t4.5 10.5q0 7 -4.5 11.5t-10.5 4.5
q-16 0 -16 -16zM466 896q0 -24 -9.5 -46t-25.5 -38t-37.5 -25.5t-45.5 -9.5q-25 0 -46.5 9.5t-37 25.5t-24.5 38t-9 46t9 45.5t24.5 37.5t37 25t46.5 9q24 0 45.5 -9t37.5 -25t25.5 -37.5t9.5 -45.5z" />
    <glyph glyph-name="Uhungarumlaut" unicode="&#x170;" horiz-adv-x="719" 
d="M660 237q-16 -58 -45.5 -101.5t-68 -73t-83.5 -45.5t-92 -17q-49 -2 -97.5 12.5t-90 44.5t-74 75t-49.5 105q-10 38 -16.5 89t-10 108t-4.5 115t-1 110v177q-1 19 5 34.5t17.5 25.5t26.5 15.5t31 5.5q15 0 30 -5t26.5 -15t17.5 -25.5t5 -35.5q0 -32 -1 -82.5t-1 -119.5
q0 -47 1 -96.5t3.5 -96t7 -87.5t12.5 -69q18 -65 61 -97t91 -31q24 0 47.5 8.5t43.5 24t35.5 39.5t23.5 56q7 28 12 67t7 83.5t3 92.5t1 93v106t-1 109q-2 20 4.5 35.5t17.5 25.5t26 15t31 5t31 -5.5t26 -15.5t17 -25.5t5 -34.5v-177q0 -53 -1 -111.5t-4 -115t-9.5 -107.5
t-16.5 -88zM296 973l2 2q-11 -19 -26 -26.5t-31 -7.5q-17 0 -34 10.5t-28 26.5t-13.5 35.5t9.5 36.5q11 18 23 37t23 37q12 17 27 25t31 8q17 0 33 -9t26.5 -23.5t14 -33t-5.5 -38.5zM500 966l2 2q-11 -19 -25.5 -26.5t-31.5 -7.5t-34 10.5t-27.5 27t-13 35.5t8.5 37v-1
q11 18 23 37t23 37q12 18 27 26t31 8q17 0 33.5 -9t27 -23.5t13.5 -33.5t-6 -39z" />
    <glyph glyph-name="uhungarumlaut" unicode="&#x171;" horiz-adv-x="659" 
d="M459 647q0 35 23 51t50 16q15 0 29.5 -4.5t25.5 -14t16.5 -23t3.5 -31.5l1 6v-587q0 -36 -23 -53.5t-51 -17.5q-21 0 -39.5 10.5t-28.5 30.5q-35 -17 -74.5 -25t-77.5 -5q-50 6 -89.5 26t-69 50.5t-49.5 70t-32 84.5q-20 72 -25 150.5t-5 150.5v113q-1 36 23 55t54 19
q15 0 29 -4.5t25 -14.5t17 -24.5t5 -33.5q0 -11 -0.5 -22.5t-0.5 -24.5q-1 -18 -1 -37v-40q0 -58 4.5 -122.5t18.5 -119.5v1q14 -51 38.5 -86.5t66.5 -39.5q38 -4 75.5 13t60.5 52v431zM287 797l2 2q-11 -19 -26 -26.5t-31 -7.5q-17 0 -34 10.5t-28 26.5t-13.5 35.5
t9.5 36.5q11 18 23 37t23 37q12 17 27 25t31 8q17 0 33 -9t26.5 -23.5t14 -33t-5.5 -38.5zM491 790l2 2q-11 -19 -25.5 -26.5t-31.5 -7.5t-34 10.5t-27.5 27t-13 35.5t8.5 37v-1q11 18 23 37t23 37q12 18 27 26t31 8q17 0 33.5 -9t27 -23.5t13.5 -33.5t-6 -39z" />
    <glyph glyph-name="Uogonek" unicode="&#x172;" horiz-adv-x="719" 
d="M382 -143q-20 24 -28.5 50.5t-8.5 54.5q0 22 4 38q-47 1 -91.5 17.5t-83 46.5t-68.5 73.5t-46 99.5q-10 38 -16.5 89t-10 108t-4.5 115t-1 110v177q-1 19 5 34.5t17.5 25.5t26.5 15.5t31 5.5q15 0 30 -5t26.5 -15t17.5 -25.5t5 -35.5q0 -32 -1 -82.5t-1 -119.5
q0 -47 1 -96.5t3.5 -96t7 -87.5t12.5 -69q18 -65 61 -97t91 -31q24 0 47.5 8.5t43.5 24t35.5 39.5t23.5 56q7 28 12 67t7 83.5t3 92.5t1 93v106t-1 109q-2 20 4.5 35.5t17.5 25.5t26 15t31 5t31 -5.5t26 -15.5t17 -25.5t5 -34.5v-177q0 -53 -1 -111.5t-4 -115t-9.5 -107.5
t-16.5 -88q-20 -73 -61 -123t-93 -78q-1 -7 -5 -16q-6 -14 -12 -28.5t-6 -26.5q0 -8 7 -14q25 -20 28.5 -41t-7.5 -38.5t-31.5 -28.5t-43.5 -11q-15 0 -28.5 5.5t-24.5 18.5z" />
    <glyph glyph-name="uogonek" unicode="&#x173;" horiz-adv-x="659" 
d="M472 -178q-20 24 -28.5 50.5t-8.5 54.5t8.5 54.5t22.5 48.5q-35 -17 -74.5 -25t-77.5 -5q-50 6 -89.5 26t-69 50.5t-49.5 70t-32 84.5q-20 72 -25 150.5t-5 150.5v113q-1 36 23 55t54 19q15 0 29 -4.5t25 -14.5t17 -24.5t5 -33.5q0 -11 -0.5 -22.5t-0.5 -24.5
q-1 -18 -1 -37v-40q0 -58 4.5 -122.5t18.5 -119.5v1q14 -51 38.5 -86.5t66.5 -39.5q38 -4 75.5 13t60.5 52v431q0 35 23 51t50 16q15 0 29.5 -4.5t25.5 -14t16.5 -23t3.5 -31.5l1 6v-587q0 -34 -5.5 -52t-12 -29.5t-12 -21t-5.5 -27.5q0 -8 7 -14q25 -20 28.5 -41
t-7.5 -38.5t-31.5 -28.5t-43.5 -11q-15 0 -28.5 5.5t-24.5 18.5z" />
    <glyph glyph-name="Wcircumflex" unicode="&#x174;" horiz-adv-x="1158" 
d="M584 400q-24 -83 -48.5 -165t-48.5 -165q-15 -36 -40 -53t-52 -17t-51 15t-37 45l-246 754q-10 22 -6.5 41.5t15.5 34t30 22.5t36 8q21 0 40.5 -12t30.5 -38l184 -587l117 402q8 29 30 44t45 15q25 0 45.5 -15t29.5 -44l119 -405q23 70 46 145t46 150.5t46 150.5t46 146
q11 26 30.5 38t40.5 12q18 0 36 -8t30 -22t15 -33.5t-7 -42.5l1 4q-30 -91 -61 -187t-62 -193.5t-62 -194t-61 -186.5q-13 -30 -37 -45t-51 -15t-52 17t-40 53zM582 964q-13 -16 -28.5 -18t-30 4.5t-26.5 19.5t-19 27t-6.5 28t10.5 22l103 94q37 33 74 33q21 0 39 -8.5
t36 -24.5l88 -81q22 -23 16 -48t-23.5 -43t-39.5 -24.5t-32 7.5q-19 17 -43.5 40t-43.5 40z" />
    <glyph glyph-name="wcircumflex" unicode="&#x175;" horiz-adv-x="1058" 
d="M534 277q-25 -60 -50 -117.5t-51 -117.5q-8 -23 -28 -34t-42 -11q-20 0 -39 9t-28 31v-1q-61 144 -122 287t-123 287q-8 21 -4.5 39t14.5 32t27.5 22t33.5 8q20 0 38 -9.5t28 -32.5l175 -409l52 118t51 118q10 20 29 31.5t40 11.5q20 0 39 -10.5t29 -32.5l103 -237
q44 104 87.5 205.5t87.5 204.5q10 23 28 32.5t38 9.5q17 0 33.5 -8t27.5 -22t14.5 -32t-4.5 -39q-61 -142 -123 -287t-122 -287v1q-9 -22 -28 -31t-39 -9q-22 0 -41.5 10.5t-27.5 33.5zM457 798q-13 -16 -28.5 -18t-30 4.5t-26.5 19.5t-19 27t-6.5 28t10.5 22l103 94
q37 33 74 33q21 0 39 -8.5t36 -24.5l88 -81q22 -23 16 -48t-23.5 -43t-39.5 -24.5t-32 7.5q-19 17 -43.5 40t-43.5 40z" />
    <glyph glyph-name="Ycircumflex" unicode="&#x176;" horiz-adv-x="778" 
d="M304 365q-34 62 -68 116t-68 106.5t-68 106.5t-68 116q-10 23 -6.5 42.5t15 34t29.5 23t36 8.5q20 0 38 -9.5t29 -30.5l214 -330l209 328q11 23 30 33t40 10q19 0 37 -8.5t29.5 -23.5t14 -35.5t-7.5 -44.5l-279 -442v-302q0 -38 -24 -54.5t-53 -16.5q-16 0 -31 5
t-26.5 14t-17.5 22t-4 30v302zM324 989q-13 -16 -28.5 -18t-30 4.5t-26.5 19.5t-19 27t-6.5 28t10.5 22l103 94q37 33 74 33q21 0 39 -8.5t36 -24.5l88 -81q22 -23 16 -48t-23.5 -43t-39.5 -24.5t-32 7.5q-19 17 -43.5 40t-43.5 40z" />
    <glyph glyph-name="ycircumflex" unicode="&#x177;" horiz-adv-x="802" 
d="M377 -215q-15 -40 -61 -40q-17 0 -35 8t-30 22t-16.5 32.5t5.5 38.5q11 24 23.5 51.5t25 56t24.5 56.5t23 52l-278 537q-12 20 -9.5 40.5t13 36.5t28 26t35.5 10q15 0 30 -6.5t26 -23.5l228 -455q49 112 99 223t99 223q11 23 28.5 31.5t36.5 8.5q17 0 33.5 -8t27.5 -22
t14.5 -32.5t-4.5 -39.5zM369 798q-13 -16 -28.5 -18t-30 4.5t-26.5 19.5t-19 27t-6.5 28t10.5 22l103 94q37 33 74 33q21 0 39 -8.5t36 -24.5l88 -81q22 -23 16 -48t-23.5 -43t-39.5 -24.5t-32 7.5q-19 17 -43.5 40t-43.5 40z" />
    <glyph glyph-name="Ydieresis" unicode="&#x178;" horiz-adv-x="778" 
d="M304 365q-34 62 -68 116t-68 106.5t-68 106.5t-68 116q-10 23 -6.5 42.5t15 34t29.5 23t36 8.5q20 0 38 -9.5t29 -30.5l214 -330l209 328q11 23 30 33t40 10q19 0 37 -8.5t29.5 -23.5t14 -35.5t-7.5 -44.5l-279 -442v-302q0 -38 -24 -54.5t-53 -16.5q-16 0 -31 5
t-26.5 14t-17.5 22t-4 30v302zM377 1034q0 -16 -6.5 -30.5t-17.5 -25.5t-25.5 -17.5t-30.5 -6.5q-17 0 -31.5 6.5t-25.5 17.5t-17 25.5t-6 30.5q0 34 23 57t57 23q16 0 30.5 -6t25.5 -17t17.5 -25.5t6.5 -31.5zM563 1034q0 -16 -6.5 -30.5t-17.5 -25.5t-25.5 -17.5
t-30.5 -6.5q-17 0 -31.5 6.5t-25.5 17.5t-17 25.5t-6 30.5q0 34 23 57t57 23q16 0 30.5 -6t25.5 -17t17.5 -25.5t6.5 -31.5z" />
    <glyph glyph-name="Zacute" unicode="&#x179;" horiz-adv-x="722" 
d="M141 4q-59 0 -87.5 24.5t-28.5 68.5q0 35 31 86l415 581h-376q-38 2 -56 25.5t-18 52.5t18 52.5t56 23.5h524q36 0 55 -21t19 -54q0 -37 -27 -74l-433 -609q97 0 192.5 -0.5t192.5 -0.5q38 0 55 -23.5t17 -53.5q0 -15 -5 -30t-15 -26t-24.5 -17.5t-33.5 -3.5l6 -1h-477z
M435 982q-11 -19 -26 -26.5t-31 -7.5q-17 0 -34 10.5t-28 26.5t-13.5 35.5t9.5 36.5q11 18 23 37t23 37q12 17 27 25t31 8q17 0 33 -9t26.5 -23.5t14 -33t-5.5 -38.5z" />
    <glyph glyph-name="zacute" unicode="&#x17a;" horiz-adv-x="669" 
d="M119 7q-45 1 -63.5 27t-18.5 58q0 20 6.5 37.5t16.5 28.5l339 406h-288q-37 0 -54 23t-17 50t17.5 50.5t52.5 25.5h445q35 0 52 -21.5t17 -52.5q0 -17 -6.5 -36t-19.5 -35v1q-51 -61 -93 -111t-82 -97.5t-82 -97.5t-93 -111q79 0 156.5 -0.5t156.5 -0.5q36 0 52 -22
t16 -50q0 -15 -5 -29t-14 -25t-23 -17t-32 -3l6 -1zM414 835q-11 -19 -26 -26.5t-31 -7.5q-17 0 -34 10.5t-28 26.5t-13.5 35.5t9.5 36.5q11 18 23 37t23 37q12 17 27 25t31 8q17 0 33 -9t26.5 -23.5t14 -33t-5.5 -38.5z" />
    <glyph glyph-name="Zdotaccent" unicode="&#x17b;" horiz-adv-x="722" 
d="M141 4q-59 0 -87.5 24.5t-28.5 68.5q0 35 31 86l415 581h-376q-38 2 -56 25.5t-18 52.5t18 52.5t56 23.5h524q36 0 55 -21t19 -54q0 -37 -27 -74l-433 -609q97 0 192.5 -0.5t192.5 -0.5q38 0 55 -23.5t17 -53.5q0 -15 -5 -30t-15 -26t-24.5 -17.5t-33.5 -3.5l6 -1h-477z
M476 1033q0 -16 -6.5 -30.5t-17.5 -25.5t-26 -17.5t-31 -6.5q-33 0 -56 24t-23 56q0 34 23 57t56 23t57 -23t24 -57z" />
    <glyph glyph-name="zdotaccent" unicode="&#x17c;" horiz-adv-x="669" 
d="M119 7q-45 1 -63.5 27t-18.5 58q0 20 6.5 37.5t16.5 28.5l339 406h-288q-37 0 -54 23t-17 50t17.5 50.5t52.5 25.5h445q35 0 52 -21.5t17 -52.5q0 -17 -6.5 -36t-19.5 -35v1q-51 -61 -93 -111t-82 -97.5t-82 -97.5t-93 -111q79 0 156.5 -0.5t156.5 -0.5q36 0 52 -22
t16 -50q0 -15 -5 -29t-14 -25t-23 -17t-32 -3l6 -1zM455 867q0 -16 -6.5 -30.5t-17.5 -25.5t-26 -17.5t-31 -6.5q-33 0 -56 24t-23 56q0 34 23 57t56 23t57 -23t24 -57z" />
    <glyph glyph-name="Zcaron" unicode="&#x17d;" horiz-adv-x="722" 
d="M141 4q-59 0 -87.5 24.5t-28.5 68.5q0 35 31 86l415 581h-376q-38 2 -56 25.5t-18 52.5t18 52.5t56 23.5h524q36 0 55 -21t19 -54q0 -37 -27 -74l-433 -609q97 0 192.5 -0.5t192.5 -0.5q38 0 55 -23.5t17 -53.5q0 -15 -5 -30t-15 -26t-24.5 -17.5t-33.5 -3.5l6 -1h-477z
M462 1168q13 15 28.5 17.5t30 -4t26.5 -19.5t19 -27t6.5 -28t-10.5 -22l-114 -106q-37 -33 -74 -33q-21 0 -39 8.5t-36 24.5l-88 81q-22 23 -16 48t23.5 43t39.5 24.5t32 -7.5q19 -17 43.5 -40t43.5 -40z" />
    <glyph glyph-name="zcaron" unicode="&#x17e;" horiz-adv-x="669" 
d="M119 7q-45 1 -63.5 27t-18.5 58q0 20 6.5 37.5t16.5 28.5l339 406h-288q-37 0 -54 23t-17 50t17.5 50.5t52.5 25.5h445q35 0 52 -21.5t17 -52.5q0 -17 -6.5 -36t-19.5 -35v1q-51 -61 -93 -111t-82 -97.5t-82 -97.5t-93 -111q79 0 156.5 -0.5t156.5 -0.5q36 0 52 -22
t16 -50q0 -15 -5 -29t-14 -25t-23 -17t-32 -3l6 -1zM450 1016q13 15 28.5 17.5t30 -4t26.5 -19.5t19 -27t6.5 -28t-10.5 -22l-114 -106q-37 -33 -74 -33q-21 0 -39 8.5t-36 24.5l-88 81q-22 23 -16 48t23.5 43t39.5 24.5t32 -7.5q19 -17 43.5 -40t43.5 -40z" />
    <glyph glyph-name="AEacute" unicode="&#x1fc;" horiz-adv-x="1180" 
d="M591 -1q-45 0 -70.5 17.5t-25.5 69.5v164q-45 1 -84.5 0.5t-89.5 0.5q-30 -55 -60 -108.5t-61 -107.5q-14 -21 -32 -29.5t-36 -8.5q-20 0 -37 8.5t-27.5 23.5t-11.5 35.5t12 43.5q49 87 101.5 183t105 193.5t105 194t102.5 183.5l-2 -3q14 26 38 44t60 18h478
q38 0 54.5 -24t16.5 -53q0 -16 -5 -31t-15 -26.5t-24 -17.5t-33 -3l6 -1h-404v-230h332q38 0 54.5 -24t16.5 -53q0 -16 -5 -31t-15 -26.5t-24 -17.5t-33 -3l6 -1h-332v-224h402q38 0 54.5 -24t16.5 -53q0 -16 -5 -31t-15 -26.5t-24 -17.5t-33 -3l6 -1h-463zM495 405v180
l-85 -178zM769 1002q-11 -19 -26 -26.5t-31 -7.5q-17 0 -34 10.5t-28 26.5t-13.5 35.5t9.5 36.5q11 18 23 37t23 37q12 17 27 25t31 8q17 0 33 -9t26.5 -23.5t14 -33t-5.5 -38.5z" />
    <glyph glyph-name="aeacute" unicode="&#x1fd;" horiz-adv-x="1159" 
d="M601 337q1 -37 12 -71.5t31 -61t50 -42.5t71 -16q21 0 42.5 7t40 22t33.5 39t24 57q5 33 26.5 49.5t47.5 16.5q29 0 52 -20.5t23 -62.5q-14 -65 -43 -113t-67.5 -79.5t-84 -47t-92.5 -15.5q-61 -2 -115 16.5t-92 51.5q-43 -38 -92 -58t-96 -21q-80 -2 -140 28.5t-99.5 82
t-58.5 118t-17 135.5q3 68 24.5 133t62.5 115.5t101 80.5t139 28q47 -2 95.5 -17t88.5 -49q39 34 89.5 53.5t111.5 19.5q65 0 113.5 -25.5t82 -66t52.5 -91t25 -99.5q3 -21 -0.5 -39t-16.5 -31t-36 -20t-60 -7h-328zM370 136q24 0 52.5 14t54.5 38q-14 35 -21 72.5t-8 77.5
q-29 6 -42 27t-13 46q0 27 17.5 50t52.5 25h6q2 9 5.5 17t6.5 16q-23 20 -48 29t-50 11q-42 2 -74 -16t-54 -49t-33.5 -71t-11.5 -82q0 -39 9.5 -76t29.5 -65.5t50 -46t71 -17.5zM771 567q-48 0 -81.5 -21.5t-54.5 -59.5h243q-14 35 -41 58t-66 23zM653 816
q-11 -19 -26 -26.5t-31 -7.5q-17 0 -34 10.5t-28 26.5t-13.5 35.5t9.5 36.5q11 18 23 37t23 37q12 17 27 25t31 8q17 0 33 -9t26.5 -23.5t14 -33t-5.5 -38.5z" />
    <glyph glyph-name="Oslashacute" unicode="&#x1fe;" horiz-adv-x="777" 
d="M626 803q60 -72 89 -169.5t28 -196.5q-1 -83 -23.5 -161.5t-66.5 -139.5t-110 -98.5t-153 -37.5q-45 0 -84.5 11.5t-73.5 31.5l-4 -7q-8 -21 -24 -30.5t-36 -9.5q-18 0 -35.5 8.5t-30 22.5t-16.5 33t7 40l27 51q-45 65 -67.5 143.5t-22.5 156.5q0 83 22.5 166t67.5 149.5
t112.5 108t157.5 41.5q62 0 116 -23q11 14 25.5 20.5t30.5 6.5q18 0 35 -8.5t28.5 -23t14 -34t-7.5 -40.5zM391 154q49 0 86 23.5t61.5 62t37 88.5t13.5 103q0 54 -11.5 109.5t-34.5 102.5l-241 -464q39 -25 89 -25zM188 448q0 -29 4.5 -62t14.5 -65l224 431q-18 7 -43 7
q-50 0 -87.5 -28t-62.5 -73t-37.5 -100.5t-12.5 -109.5zM462 982q-11 -19 -26 -26.5t-31 -7.5q-17 0 -34 10.5t-28 26.5t-13.5 35.5t9.5 36.5q11 18 23 37t23 37q12 17 27 25t31 8q17 0 33 -9t26.5 -23.5t14 -33t-5.5 -38.5z" />
    <glyph glyph-name="oslashacute" unicode="&#x1ff;" horiz-adv-x="738" 
d="M373 0q-72 0 -130 26q-9 -11 -22 -17t-27 -6q-18 0 -35.5 8.5t-29.5 23.5t-16 34.5t7 40.5l6 10q-35 46 -53.5 101.5t-22.5 115.5v-2q-1 7 -1 14v15q0 67 20 131t59.5 114t98.5 80.5t138 30.5q35 0 65.5 -6t57.5 -17q11 17 28 26t34 9q18 0 35 -8.5t27.5 -23.5t13 -34.5
t-7.5 -41.5l-12 -17q44 -56 65 -129t17 -145v1q-3 -65 -24.5 -125t-60.5 -106.5t-96.5 -74.5t-133.5 -28zM266 61q1 2 0.5 1.5l-2.5 -2.5zM374 147q40 0 69.5 16t50 43t30.5 61.5t11 71.5q1 30 -4.5 61t-16.5 58q-25 -39 -47.5 -75.5t-45.5 -72.5t-46.5 -74t-50.5 -81
q11 -3 23.5 -5.5t26.5 -2.5zM204 346q2 -41 14 -80q24 39 47 75t45.5 71.5t46 73t49.5 79.5q-10 2 -20.5 4t-21.5 2q-42 0 -72.5 -19.5t-51 -51.5t-29.5 -72.5t-7 -81.5zM416 886q-11 -19 -26 -26.5t-31 -7.5q-17 0 -34 10.5t-28 26.5t-13.5 35.5t9.5 36.5q11 18 23 37
t23 37q12 17 27 25t31 8q17 0 33 -9t26.5 -23.5t14 -33t-5.5 -38.5z" />
    <glyph glyph-name="Scommaaccent" unicode="&#x218;" horiz-adv-x="707" 
d="M185 283q9 -35 26 -60.5t37.5 -42t44 -25t46.5 -8.5q37 0 68.5 10t55 27t38 40t17.5 49v-1q3 34 -7 62t-30 48.5t-49.5 31t-63.5 9.5q-54 -2 -111.5 4.5t-105 30t-77.5 67.5t-30 118q0 50 23.5 99.5t68 88.5t108.5 63t144 24q58 -4 106 -24.5t83.5 -53.5t57.5 -76.5
t28 -94.5q4 -22 -5 -38.5t-25 -27t-36.5 -14t-39 1t-33 18t-17.5 36.5q-5 29 -18.5 51.5t-32 38.5t-41.5 24.5t-45 9.5q-79 2 -123.5 -31t-47.5 -90q-2 -32 20 -46.5t52.5 -20.5t63.5 -6t54 -2q64 -5 118 -26t93 -59t59 -93t16 -127q-3 -55 -29 -104t-71 -86.5t-107 -59
t-137 -20.5q-50 0 -98 16t-88.5 49t-71 83.5t-44.5 119.5q0 43 24 65t54 22q27 0 50 -17.5t28 -52.5zM385 -294q-11 -15 -26 -20.5t-29 -5.5q-21 0 -40.5 10.5t-30 27t-8.5 37.5t23 42q15 15 15 22q0 3 -4 10.5t-10 18.5q-12 22 -11 42t11 35t26.5 23.5t34.5 8.5t35.5 -9.5
t29.5 -29.5q29 -50 29 -98q0 -60 -45 -115v1z" />
    <glyph glyph-name="scommaaccent" unicode="&#x219;" horiz-adv-x="691" 
d="M186 219q5 -26 20.5 -41.5t36 -23.5t44.5 -10.5t46 -2.5q24 0 52.5 5t52.5 17.5t39 33t13 51.5q-2 25 -25 36t-53.5 14t-60.5 1t-46 -2q-59 0 -103.5 12.5t-75 34.5t-47 53t-20.5 68q-5 48 17.5 95.5t64 84t99 58.5t124.5 19q45 -2 86 -16.5t73.5 -37t54 -52t27.5 -60.5
q5 -29 -10.5 -47.5t-38 -25.5t-45 -1.5t-31.5 25.5q-5 12 -13.5 24t-23 22.5t-38 18t-58.5 8.5q-20 0 -45.5 -6.5t-47 -19.5t-36 -31.5t-12.5 -40.5q8 -42 104 -42q63 0 122.5 -4.5t105.5 -23t73.5 -56t27.5 -102.5q0 -60 -27 -107.5t-71 -80t-100.5 -50t-115.5 -17.5
q-47 0 -94 9.5t-87 33.5t-68.5 64t-38.5 100q0 40 23 60t52 20q26 0 47.5 -16.5t26.5 -51.5v1v0zM369 -276q-11 -15 -26 -20.5t-29 -5.5q-21 0 -40.5 10.5t-30 27t-8.5 37.5t23 42q15 15 15 22q0 3 -4 10.5t-10 18.5q-12 22 -11 42t11 35t26.5 23.5t34.5 8.5t35.5 -9.5
t29.5 -29.5q29 -50 29 -98q0 -60 -45 -115v1z" />
    <glyph glyph-name="dotlessj" unicode="&#x237;" horiz-adv-x="239" 
d="M45 641q0 37 23 54.5t51 17.5q27 0 50 -17.5t25 -52.5v-49v-55t1 -52q1 -29 1.5 -58t0.5 -58v-88q0 -53 -3 -118.5t-13.5 -130t-31.5 -121t-57 -92.5q-35 -35 -88.5 -52.5t-120.5 -16.5q-19 1 -34 8t-25 17.5t-15 23.5t-5 26q0 28 20.5 51t60.5 22q28 -1 56 6t46 25
q64 67 64 376q0 14 -0.5 29t-0.5 31z" />
    <glyph glyph-name="circumflex" unicode="&#x2c6;" horiz-adv-x="439" 
d="M151 798q-13 -16 -28.5 -18t-30 4.5t-26.5 19.5t-19 27t-6.5 28t10.5 22l103 94q37 33 74 33q21 0 39 -8.5t36 -24.5l88 -81q22 -23 16 -48t-23.5 -43t-39.5 -24.5t-32 7.5q-19 17 -43.5 40t-43.5 40z" />
    <glyph glyph-name="caron" unicode="&#x2c7;" horiz-adv-x="296" 
d="M254 1002q13 15 28.5 17.5t30 -4t26.5 -19.5t19 -27t6.5 -28t-10.5 -22l-114 -106q-37 -33 -74 -33q-21 0 -39 8.5t-36 24.5l-88 81q-22 23 -16 48t23.5 43t39.5 24.5t32 -7.5q19 -17 43.5 -40t43.5 -40z" />
    <glyph glyph-name="breve" unicode="&#x2d8;" horiz-adv-x="395" 
d="M166 935q12 -19 31 -19q11 0 20.5 7t18.5 17q28 29 55.5 27.5t45.5 -20.5t22.5 -48t-13.5 -54q-32 -36 -70.5 -52.5t-76.5 -16.5q-47 0 -86.5 21.5t-63.5 57.5q-14 22 -13 42t11.5 35.5t27.5 25t35 9.5q16 0 31 -7.5t26 -24.5h-1zM352 852q-1 -4 -6 -7q5 5 6 7z" />
    <glyph glyph-name="dotaccent" unicode="&#x2d9;" horiz-adv-x="231" 
d="M196 867q0 -16 -6.5 -30.5t-17.5 -25.5t-26 -17.5t-31 -6.5q-33 0 -56 24t-23 56q0 34 23 57t56 23t57 -23t24 -57z" />
    <glyph glyph-name="ring" unicode="&#x2da;" horiz-adv-x="295" 
d="M131 897q0 -6 4.5 -10.5t11.5 -4.5q6 0 10.5 4.5t4.5 10.5q0 7 -4.5 11.5t-10.5 4.5q-16 0 -16 -16zM264 896q0 -24 -9.5 -46t-25.5 -38t-37.5 -25.5t-45.5 -9.5q-25 0 -46.5 9.5t-37 25.5t-24.5 38t-9 46t9 45.5t24.5 37.5t37 25t46.5 9q24 0 45.5 -9t37.5 -25
t25.5 -37.5t9.5 -45.5z" />
    <glyph glyph-name="ogonek" unicode="&#x2db;" horiz-adv-x="279" 
d="M92 -182q-20 24 -28.5 50.5t-8.5 54.5q0 34 12 65.5t32 54.5h-1q18 20 42 23t43.5 -6.5t29.5 -30.5t-2 -48q-6 -14 -12 -28.5t-6 -26.5q0 -8 7 -14q25 -20 28.5 -41t-7.5 -38.5t-31.5 -28.5t-43.5 -11q-15 0 -28.5 5.5t-24.5 18.5z" />
    <glyph glyph-name="tilde" unicode="&#x2dc;" horiz-adv-x="474" 
d="M176 837q-7 -25 -25 -37t-39 -12q-15 0 -29 6.5t-25 17.5t-16.5 26t-2.5 32q7 31 21 56t33.5 41.5t42.5 25t49 7.5q22 -1 39.5 -7.5t32 -15.5t26 -19.5t21.5 -20.5q6 -7 12.5 -14t8.5 -7q-3 5 0 24q5 29 23.5 43.5t43.5 14.5q15 0 30 -5.5t26 -17t16 -28t1 -37.5
q-6 -26 -15.5 -48t-25 -39.5t-38 -28t-52.5 -11.5h1q-26 -1 -45.5 4.5t-34.5 14.5t-26.5 21t-21.5 23q-8 8 -14 14.5t-11 4.5q2 0 -5 -27z" />
    <glyph glyph-name="hungarumlaut" unicode="&#x2dd;" horiz-adv-x="459" 
d="M172 807l2 2q-11 -19 -26 -26.5t-31 -7.5q-17 0 -34 10.5t-28 26.5t-13.5 35.5t9.5 36.5q11 18 23 37t23 37q12 17 27 25t31 8q17 0 33 -9t26.5 -23.5t14 -33t-5.5 -38.5zM376 800l2 2q-11 -19 -25.5 -26.5t-31.5 -7.5t-34 10.5t-27.5 27t-13 35.5t8.5 37v-1q11 18 23 37
t23 37q12 18 27 26t31 8q17 0 33.5 -9t27 -23.5t13.5 -33.5t-6 -39z" />
    <glyph glyph-name="pi" unicode="&#x3c0;" horiz-adv-x="752" 
d="M554 110q-32 39 -50.5 88.5t-27.5 103.5t-12 110t-3 107h-52v-373q0 -35 -23 -51t-51 -16q-15 0 -29.5 5t-25 14t-16.5 22.5t-3 31.5l-1 -6v358q-19 -8 -23 -24q-7 -28 -27.5 -40t-43.5 -12q-16 0 -31.5 5.5t-26.5 15.5t-16 25t0 33v-1q11 47 37 78.5t70.5 50.5t109 27
t151.5 8q38 0 82.5 -1.5t92.5 -3.5q34 -2 50 -25.5t16 -51.5q0 -15 -5.5 -30t-15.5 -26t-24 -17.5t-30 -4.5h-5h-7h-1q-1 0 -2 0.5t-2 0.5v-8v-53q0 -70 13.5 -133t48.5 -117q20 -30 10.5 -55t-32 -39.5t-50.5 -14.5t-45 19z" />
    <glyph glyph-name="uni1E02" unicode="&#x1e02;" horiz-adv-x="733" 
d="M113 915q22 0 41 -10t27 -30q43 22 86.5 32.5t93.5 8.5q60 -2 111 -21t88.5 -49.5t59 -71t21.5 -86.5q0 -61 -29 -111t-70 -84q38 -16 68.5 -42t51.5 -58.5t32.5 -68.5t11.5 -72q1 -65 -25 -110.5t-69 -75t-99.5 -44t-116.5 -18t-119.5 2t-109.5 16.5q-11 -12 -26 -18
t-31 -6q-27 0 -51 19t-26 55v775q0 16 7 29t18.5 21t25.5 12.5t29 4.5zM186 174q18 -7 51.5 -14t73.5 -11t82.5 -3t77.5 10t58 28t25 52q4 59 -28 95.5t-85 53t-120.5 15t-134.5 -17.5v-208zM186 539q19 1 48.5 4t62 9.5t66 17t60 25.5t44 36t18.5 49q0 17 -10 32.5
t-27.5 27.5t-41.5 19t-51 7q-48 -1 -89.5 -19t-79.5 -47v-161zM457 1048q0 -16 -6.5 -30.5t-17.5 -25.5t-26 -17.5t-31 -6.5q-33 0 -56 24t-23 56q0 34 23 57t56 23t57 -23t24 -57z" />
    <glyph glyph-name="uni1E03" unicode="&#x1e03;" horiz-adv-x="707" 
d="M357 -7q-39 1 -79.5 14.5t-77.5 39.5q-2 -29 -23.5 -44t-47.5 -15q-14 0 -28 4t-25 12t-18 20t-7 28v796q2 35 25.5 53t50.5 18t50 -17.5t23 -53.5v-173q34 20 71 29t74 10q81 2 142.5 -30.5t102.5 -86t61.5 -122t20.5 -138.5q0 -67 -20.5 -130t-60.5 -111t-98.5 -76.5
t-135.5 -26.5zM200 268q12 -29 31 -52.5t41 -40t44 -25.5t42 -9q40 0 70 16.5t50 44t30 63.5t10 74q0 42 -11 83.5t-32.5 73.5t-54 51t-74.5 17t-81 -27t-65 -79v-190zM460 1023q0 -16 -6.5 -30.5t-17.5 -25.5t-26 -17.5t-31 -6.5q-33 0 -56 24t-23 56q0 34 23 57t56 23
t57 -23t24 -57z" />
    <glyph glyph-name="uni1E0A" unicode="&#x1e0a;" horiz-adv-x="704" 
d="M36 841q0 37 24 55.5t53 18.5q17 0 33 -6.5t28 -19.5q72 28 138 27q82 -2 149.5 -46t115.5 -115t74.5 -161t26.5 -182q0 -80 -23 -151t-68.5 -126.5t-112 -92t-153.5 -46.5q-31 0 -69.5 5.5t-76.5 15.5q-11 -12 -27 -17.5t-33 -5.5q-16 0 -31 5t-26.5 14.5t-17.5 24
t-3 33.5zM317 147q52 3 91 28t65 63t39.5 85.5t13.5 96.5q0 61 -15.5 121.5t-44 109.5t-69 80t-89.5 33q-54 3 -116 -31v-562q32 -14 64 -20t61 -4zM402 1042q0 -16 -6.5 -30.5t-17.5 -25.5t-26 -17.5t-31 -6.5q-33 0 -56 24t-23 56q0 34 23 57t56 23t57 -23t24 -57z" />
    <glyph glyph-name="uni1E0B" unicode="&#x1e0b;" horiz-adv-x="707" 
d="M580 -12q-27 0 -48 15t-23 44q-38 -26 -78.5 -39.5t-78.5 -14.5q-76 -2 -134.5 26t-98 75.5t-60.5 109.5t-22 128q-1 71 19 140t61 123.5t103 87.5t144 31q36 -1 73.5 -10t71.5 -29v178q0 36 23 53.5t50 17.5t50.5 -18t25.5 -53v-801q0 -16 -7 -28t-18 -20t-25 -12
t-28 -4zM351 141q19 0 41.5 9t44 25.5t41 40t31.5 52.5v190q-26 54 -65 79t-81 27q-44 2 -76.5 -18t-54.5 -53t-32.5 -75t-8.5 -85q1 -38 11 -72.5t30 -61.5t49.5 -42.5t69.5 -15.5zM483 1008q0 -16 -6.5 -30.5t-17.5 -25.5t-26 -17.5t-31 -6.5q-33 0 -56 24t-23 56
q0 34 23 57t56 23t57 -23t24 -57z" />
    <glyph glyph-name="uni1E1E" unicode="&#x1e1e;" 
d="M195 65q-2 -35 -26.5 -52t-52.5 -17q-29 0 -53 17.5t-24 50.5v755q0 51 20 74t63 23h453q37 -1 54.5 -26t16.5 -54.5t-19 -53t-52 -22.5h-380v-201h301q37 -1 54.5 -26t16.5 -54.5t-19 -53t-52 -22.5h-301v-338v0zM457 1033q0 -16 -6.5 -30.5t-17.5 -25.5t-26 -17.5
t-31 -6.5q-33 0 -56 24t-23 56q0 34 23 57t56 23t57 -23t24 -57z" />
    <glyph glyph-name="uni1E1F" unicode="&#x1e1f;" horiz-adv-x="779" 
d="M301 376v-307q0 -36 -23 -53.5t-50 -17.5t-50.5 18t-25.5 53q0 51 0.5 95t0.5 83q0 35 -0.5 66t-0.5 63h-42q-37 0 -54 22.5t-17 50.5q0 27 17.5 50.5t52.5 25.5h48q6 65 23.5 133t51.5 124.5t87 93.5t130 40q47 0 93.5 -14t84.5 -39.5t64 -61t34 -80.5q0 -20 -7 -35
t-18 -25t-25 -15t-27 -5q-26 0 -46.5 14.5t-25.5 40.5q-11 40 -46 56.5t-76 15.5q-40 -1 -67 -27t-44 -63t-25.5 -79t-12.5 -74h288q36 0 52 -23t16 -51q0 -15 -5 -29.5t-14 -25.5t-23 -16.5t-32 -3.5h6h-292zM562 1054q0 -16 -6.5 -30.5t-17.5 -25.5t-26 -17.5t-31 -6.5
q-33 0 -56 24t-23 56q0 34 23 57t56 23t57 -23t24 -57z" />
    <glyph glyph-name="uni1E40" unicode="&#x1e40;" horiz-adv-x="864" 
d="M509 178v1q-10 -23 -33 -35.5t-46 -12.5q-24 0 -45 11.5t-32 35.5l-152 362v-472q0 -38 -24.5 -55t-53.5 -15.5t-53.5 21t-24.5 55.5v771q1 33 22.5 52t50.5 23t58.5 -7t44.5 -38l210 -460q52 115 104.5 229.5t103.5 229.5q14 25 43 36.5t58 8.5t52 -22t25 -53v-775
q0 -22 -11.5 -37.5t-29 -23.5t-37.5 -9t-37.5 6.5t-29 23t-11.5 40.5v471zM547 1033q0 -16 -6.5 -30.5t-17.5 -25.5t-26 -17.5t-31 -6.5q-33 0 -56 24t-23 56q0 34 23 57t56 23t57 -23t24 -57z" />
    <glyph glyph-name="uni1E41" unicode="&#x1e41;" horiz-adv-x="1058" 
d="M701 558q-27 0 -54.5 -14.5t-53.5 -45.5q2 -5 3.5 -9.5t2.5 -9.5q20 -72 25 -151t5 -151v-109q1 -19 -5 -33.5t-17 -24.5t-25.5 -15t-29.5 -5t-29 5t-25 14.5t-17.5 24t-4.5 34.5v-4q0 11 0.5 24t0.5 27q1 17 1 36v41q0 58 -4.5 122.5t-18.5 118.5q-14 51 -38.5 86
t-66.5 39q-39 4 -76 -12t-60 -53v-430q0 -36 -22.5 -52t-50.5 -16q-15 0 -29.5 5t-25.5 14t-16.5 23t-3.5 32v-6v586q0 37 22.5 54t50.5 17q20 0 39 -10.5t29 -30.5q35 17 74 25.5t78 4.5q49 -5 90 -25.5t69 -50.5q45 40 93 58.5t95 18.5q46 0 88 -16.5t77.5 -47t62 -73
t40.5 -94.5q20 -73 25 -151.5t5 -150.5v-113q1 -35 -23 -54.5t-54 -19.5q-15 0 -29 5t-25 14.5t-17.5 24t-4.5 34.5q0 10 0.5 21.5t0.5 25.5q1 17 1 36v41q0 58 -4.5 122.5t-18.5 118.5q-17 60 -52 92.5t-77 32.5zM665 867q0 -16 -6.5 -30.5t-17.5 -25.5t-26 -17.5t-31 -6.5
q-33 0 -56 24t-23 56q0 34 23 57t56 23t57 -23t24 -57z" />
    <glyph glyph-name="uni1E56" unicode="&#x1e56;" horiz-adv-x="713" 
d="M115 924q28 0 50 -15.5t24 -46.5q39 27 81 41.5t83 15.5q82 2 144.5 -26.5t104.5 -79t62.5 -119t19.5 -146.5q-2 -93 -44.5 -160.5t-112 -103t-157.5 -36.5t-181 40v-227q0 -20 -11 -34t-27.5 -22t-36.5 -9t-37 5.5t-29.5 21t-14.5 37.5v797q0 33 26 50t56 17zM355 764
q-21 -1 -44.5 -10.5t-46 -27t-42.5 -41.5t-33 -54v-115q15 -40 45 -64.5t65.5 -35t73.5 -6.5t70 20.5t54 45t26 68.5q4 46 -5 86t-30.5 70t-55 47t-77.5 17zM472 1033q0 -16 -6.5 -30.5t-17.5 -25.5t-26 -17.5t-31 -6.5q-33 0 -56 24t-23 56q0 34 23 57t56 23t57 -23t24 -57
z" />
    <glyph glyph-name="uni1E57" unicode="&#x1e57;" horiz-adv-x="710" 
d="M125 727q26 0 47 -15t24 -44q37 26 77 39.5t79 14.5q80 3 140 -28t100 -82.5t59 -118.5t16 -136q-3 -68 -24.5 -132.5t-62.5 -114.5t-100.5 -80t-138.5 -28q-37 1 -74 9.5t-71 28.5v-221q0 -37 -23 -54t-51 -17q-27 0 -50 17.5t-25 52.5v845q0 16 7 28t18 20t25 12t28 4z
M355 575q-20 0 -43 -9.5t-44.5 -26t-40.5 -39.5t-31 -52v-191q26 -54 65 -79t80 -27q39 -2 69.5 15.5t52 46.5t34.5 66t16 75q1 40 -7.5 79.5t-28 71t-50 51t-72.5 19.5zM479 895q0 -16 -6.5 -30.5t-17.5 -25.5t-26 -17.5t-31 -6.5q-33 0 -56 24t-23 56q0 34 23 57t56 23
t57 -23t24 -57z" />
    <glyph glyph-name="uni1E60" unicode="&#x1e60;" horiz-adv-x="707" 
d="M185 283q9 -35 26 -60.5t37.5 -42t44 -25t46.5 -8.5q37 0 68.5 10t55 27t38 40t17.5 49v-1q3 34 -7 62t-30 48.5t-49.5 31t-63.5 9.5q-54 -2 -111.5 4.5t-105 30t-77.5 67.5t-30 118q0 50 23.5 99.5t68 88.5t108.5 63t144 24q58 -4 106 -24.5t83.5 -53.5t57.5 -76.5
t28 -94.5q4 -22 -5 -38.5t-25 -27t-36.5 -14t-39 1t-33 18t-17.5 36.5q-5 29 -18.5 51.5t-32 38.5t-41.5 24.5t-45 9.5q-79 2 -123.5 -31t-47.5 -90q-2 -32 20 -46.5t52.5 -20.5t63.5 -6t54 -2q64 -5 118 -26t93 -59t59 -93t16 -127q-3 -55 -29 -104t-71 -86.5t-107 -59
t-137 -20.5q-50 0 -98 16t-88.5 49t-71 83.5t-44.5 119.5q0 43 24 65t54 22q27 0 50 -17.5t28 -52.5zM475 1044q0 -16 -6.5 -30.5t-17.5 -25.5t-26 -17.5t-31 -6.5q-33 0 -56 24t-23 56q0 34 23 57t56 23t57 -23t24 -57z" />
    <glyph glyph-name="uni1E61" unicode="&#x1e61;" horiz-adv-x="691" 
d="M186 219q5 -26 20.5 -41.5t36 -23.5t44.5 -10.5t46 -2.5q24 0 52.5 5t52.5 17.5t39 33t13 51.5q-2 25 -25 36t-53.5 14t-60.5 1t-46 -2q-59 0 -103.5 12.5t-75 34.5t-47 53t-20.5 68q-5 48 17.5 95.5t64 84t99 58.5t124.5 19q45 -2 86 -16.5t73.5 -37t54 -52t27.5 -60.5
q5 -29 -10.5 -47.5t-38 -25.5t-45 -1.5t-31.5 25.5q-5 12 -13.5 24t-23 22.5t-38 18t-58.5 8.5q-20 0 -45.5 -6.5t-47 -19.5t-36 -31.5t-12.5 -40.5q8 -42 104 -42q63 0 122.5 -4.5t105.5 -23t73.5 -56t27.5 -102.5q0 -60 -27 -107.5t-71 -80t-100.5 -50t-115.5 -17.5
q-47 0 -94 9.5t-87 33.5t-68.5 64t-38.5 100q0 40 23 60t52 20q26 0 47.5 -16.5t26.5 -51.5v1v0zM449 892q0 -16 -6.5 -30.5t-17.5 -25.5t-26 -17.5t-31 -6.5q-33 0 -56 24t-23 56q0 34 23 57t56 23t57 -23t24 -57z" />
    <glyph glyph-name="uni1E6A" unicode="&#x1e6a;" horiz-adv-x="677" 
d="M407 738v-665q-1 -37 -26 -54.5t-54.5 -16.5t-53 19t-22.5 52v665h-162q-38 0 -56.5 23.5t-18.5 52.5t19 52.5t55 25.5h489q38 0 54.5 -23t16.5 -53q0 -15 -5 -30t-15 -26t-24.5 -17.5t-33.5 -3.5l7 -1h-170zM416 1038q0 -16 -6.5 -30.5t-17.5 -25.5t-26 -17.5t-31 -6.5
q-33 0 -56 24t-23 56q0 34 23 57t56 23t57 -23t24 -57z" />
    <glyph glyph-name="uni1E6B" unicode="&#x1e6b;" horiz-adv-x="648" 
d="M398 578v-509q0 -36 -23 -52t-51 -16q-15 0 -29.5 4.5t-25.5 13.5t-16.5 21.5t-3.5 28.5v509h-134q-36 0 -53.5 22t-17.5 51q0 28 17.5 50t52.5 24h135v123q0 36 23 53.5t51 17.5q27 0 50 -17.5t25 -52.5v-124h146q35 0 51 -22t16 -50q0 -15 -5 -29t-14 -25t-22.5 -17
t-31.5 -3l6 -1h-146zM433 1048q0 -16 -6.5 -30.5t-17.5 -25.5t-26 -17.5t-31 -6.5q-33 0 -56 24t-23 56q0 34 23 57t56 23t57 -23t24 -57z" />
    <glyph glyph-name="Wgrave" unicode="&#x1e80;" horiz-adv-x="1158" 
d="M584 400q-24 -83 -48.5 -165t-48.5 -165q-15 -36 -40 -53t-52 -17t-51 15t-37 45l-246 754q-10 22 -6.5 41.5t15.5 34t30 22.5t36 8q21 0 40.5 -12t30.5 -38l184 -587l117 402q8 29 30 44t45 15q25 0 45.5 -15t29.5 -44l119 -405q23 70 46 145t46 150.5t46 150.5t46 146
q11 26 30.5 38t40.5 12q18 0 36 -8t30 -22t15 -33.5t-7 -42.5l1 4q-30 -91 -61 -187t-62 -193.5t-62 -194t-61 -186.5q-13 -30 -37 -45t-51 -15t-52 17t-40 53zM493 1065q-9 19 -6 37.5t13.5 32.5t27 23t33.5 9q16 0 31.5 -8t27.5 -25l46 -74q11 -17 8.5 -36.5t-13 -35.5
t-27.5 -26.5t-34 -10.5t-32 7.5t-25 26.5l2 -2q-12 19 -24.5 38t-24.5 38z" />
    <glyph glyph-name="wgrave" unicode="&#x1e81;" horiz-adv-x="1064" 
d="M534 277q-25 -60 -50 -117.5t-51 -117.5q-8 -23 -28 -34t-42 -11q-20 0 -39 9t-28 31v-1q-61 144 -122 287t-123 287q-8 21 -4.5 39t14.5 32t27.5 22t33.5 8q20 0 38 -9.5t28 -32.5l175 -409l52 118t51 118q10 20 29 31.5t40 11.5q20 0 39 -10.5t29 -32.5l103 -237
q44 104 87.5 205.5t87.5 204.5q10 23 28 32.5t38 9.5q17 0 33.5 -8t27.5 -22t14.5 -32t-4.5 -39q-61 -142 -123 -287t-122 -287v1q-9 -22 -28 -31t-39 -9q-22 0 -41.5 10.5t-27.5 33.5zM473 899q-9 19 -6 37.5t13.5 32.5t27 23t33.5 9q16 0 31.5 -8t27.5 -25l46 -74
q11 -17 8.5 -36.5t-13 -35.5t-27.5 -26.5t-34 -10.5t-32 7.5t-25 26.5l2 -2q-12 19 -24.5 38t-24.5 38z" />
    <glyph glyph-name="Wacute" unicode="&#x1e82;" horiz-adv-x="1158" 
d="M584 400q-24 -83 -48.5 -165t-48.5 -165q-15 -36 -40 -53t-52 -17t-51 15t-37 45l-246 754q-10 22 -6.5 41.5t15.5 34t30 22.5t36 8q21 0 40.5 -12t30.5 -38l184 -587l117 402q8 29 30 44t45 15q25 0 45.5 -15t29.5 -44l119 -405q23 70 46 145t46 150.5t46 150.5t46 146
q11 26 30.5 38t40.5 12q18 0 36 -8t30 -22t15 -33.5t-7 -42.5l1 4q-30 -91 -61 -187t-62 -193.5t-62 -194t-61 -186.5q-13 -30 -37 -45t-51 -15t-52 17t-40 53zM653 982q-11 -19 -26 -26.5t-31 -7.5q-17 0 -34 10.5t-28 26.5t-13.5 35.5t9.5 36.5q11 18 23 37t23 37
q12 17 27 25t31 8q17 0 33 -9t26.5 -23.5t14 -33t-5.5 -38.5z" />
    <glyph glyph-name="wacute" unicode="&#x1e83;" horiz-adv-x="1057" 
d="M534 277q-25 -60 -50 -117.5t-51 -117.5q-8 -23 -28 -34t-42 -11q-20 0 -39 9t-28 31v-1q-61 144 -122 287t-123 287q-8 21 -4.5 39t14.5 32t27.5 22t33.5 8q20 0 38 -9.5t28 -32.5l175 -409l52 118t51 118q10 20 29 31.5t40 11.5q20 0 39 -10.5t29 -32.5l103 -237
q44 104 87.5 205.5t87.5 204.5q10 23 28 32.5t38 9.5q17 0 33.5 -8t27.5 -22t14.5 -32t-4.5 -39q-61 -142 -123 -287t-122 -287v1q-9 -22 -28 -31t-39 -9q-22 0 -41.5 10.5t-27.5 33.5zM633 816q-11 -19 -26 -26.5t-31 -7.5q-17 0 -34 10.5t-28 26.5t-13.5 35.5t9.5 36.5
q11 18 23 37t23 37q12 17 27 25t31 8q17 0 33 -9t26.5 -23.5t14 -33t-5.5 -38.5z" />
    <glyph glyph-name="Wdieresis" unicode="&#x1e84;" horiz-adv-x="1158" 
d="M584 400q-24 -83 -48.5 -165t-48.5 -165q-15 -36 -40 -53t-52 -17t-51 15t-37 45l-246 754q-10 22 -6.5 41.5t15.5 34t30 22.5t36 8q21 0 40.5 -12t30.5 -38l184 -587l117 402q8 29 30 44t45 15q25 0 45.5 -15t29.5 -44l119 -405q23 70 46 145t46 150.5t46 150.5t46 146
q11 26 30.5 38t40.5 12q18 0 36 -8t30 -22t15 -33.5t-7 -42.5l1 4q-30 -91 -61 -187t-62 -193.5t-62 -194t-61 -186.5q-13 -30 -37 -45t-51 -15t-52 17t-40 53zM567 1034q0 -16 -6.5 -30.5t-17.5 -25.5t-25.5 -17.5t-30.5 -6.5q-17 0 -31.5 6.5t-25.5 17.5t-17 25.5t-6 30.5
q0 34 23 57t57 23q16 0 30.5 -6t25.5 -17t17.5 -25.5t6.5 -31.5zM753 1034q0 -16 -6.5 -30.5t-17.5 -25.5t-25.5 -17.5t-30.5 -6.5q-17 0 -31.5 6.5t-25.5 17.5t-17 25.5t-6 30.5q0 34 23 57t57 23q16 0 30.5 -6t25.5 -17t17.5 -25.5t6.5 -31.5z" />
    <glyph glyph-name="wdieresis" unicode="&#x1e85;" horiz-adv-x="1068" 
d="M534 277q-25 -60 -50 -117.5t-51 -117.5q-8 -23 -28 -34t-42 -11q-20 0 -39 9t-28 31v-1q-61 144 -122 287t-123 287q-8 21 -4.5 39t14.5 32t27.5 22t33.5 8q20 0 38 -9.5t28 -32.5l175 -409l52 118t51 118q10 20 29 31.5t40 11.5q20 0 39 -10.5t29 -32.5l103 -237
q44 104 87.5 205.5t87.5 204.5q10 23 28 32.5t38 9.5q17 0 33.5 -8t27.5 -22t14.5 -32t-4.5 -39q-61 -142 -123 -287t-122 -287v1q-9 -22 -28 -31t-39 -9q-22 0 -41.5 10.5t-27.5 33.5zM495 857q0 -16 -6.5 -30.5t-17.5 -25.5t-25.5 -17.5t-30.5 -6.5q-17 0 -31.5 6.5
t-25.5 17.5t-17 25.5t-6 30.5q0 34 23 57t57 23q16 0 30.5 -6t25.5 -17t17.5 -25.5t6.5 -31.5zM681 857q0 -16 -6.5 -30.5t-17.5 -25.5t-25.5 -17.5t-30.5 -6.5q-17 0 -31.5 6.5t-25.5 17.5t-17 25.5t-6 30.5q0 34 23 57t57 23q16 0 30.5 -6t25.5 -17t17.5 -25.5t6.5 -31.5z
" />
    <glyph glyph-name="Ygrave" unicode="&#x1ef2;" horiz-adv-x="778" 
d="M304 365q-34 62 -68 116t-68 106.5t-68 106.5t-68 116q-10 23 -6.5 42.5t15 34t29.5 23t36 8.5q20 0 38 -9.5t29 -30.5l214 -330l209 328q11 23 30 33t40 10q19 0 37 -8.5t29.5 -23.5t14 -35.5t-7.5 -44.5l-279 -442v-302q0 -38 -24 -54.5t-53 -16.5q-16 0 -31 5
t-26.5 14t-17.5 22t-4 30v302zM303 1065q-9 19 -6 37.5t13.5 32.5t27 23t33.5 9q16 0 31.5 -8t27.5 -25l46 -74q11 -17 8.5 -36.5t-13 -35.5t-27.5 -26.5t-34 -10.5t-32 7.5t-25 26.5l2 -2q-12 19 -24.5 38t-24.5 38z" />
    <glyph glyph-name="ygrave" unicode="&#x1ef3;" horiz-adv-x="804" 
d="M379 -215q-15 -40 -61 -40q-17 0 -35 8t-30 22t-16.5 32.5t5.5 38.5q11 24 23.5 51.5t25 56t24.5 56.5t23 52l-278 537q-12 20 -9.5 40.5t13 36.5t28 26t35.5 10q15 0 30 -6.5t26 -23.5l228 -455q49 112 99 223t99 223q11 23 28.5 31.5t36.5 8.5q17 0 33.5 -8t27.5 -22
t14.5 -32.5t-4.5 -39.5zM281 899q-9 19 -6 37.5t13.5 32.5t27 23t33.5 9q16 0 31.5 -8t27.5 -25l46 -74q11 -17 8.5 -36.5t-13 -35.5t-27.5 -26.5t-34 -10.5t-32 7.5t-25 26.5l2 -2q-12 19 -24.5 38t-24.5 38z" />
    <glyph glyph-name="endash" unicode="&#x2013;" horiz-adv-x="591" 
d="M162 351q-37 0 -54.5 23t-17.5 51q0 27 18 50t53 25h293q36 0 52 -23t16 -50q0 -15 -5 -29.5t-14 -25.5t-23 -16.5t-32 -3.5l6 -1h-292z" />
    <glyph glyph-name="emdash" unicode="&#x2014;" horiz-adv-x="688" 
d="M142 351q-37 0 -54.5 23t-17.5 51q0 27 18 50t53 25h388q36 0 52 -23t16 -50q0 -15 -5 -29.5t-14 -25.5t-23 -16.5t-32 -3.5l6 -1h-387z" />
    <glyph glyph-name="quoteleft" unicode="&#x2018;" horiz-adv-x="249" 
d="M80 781q11 15 26 20.5t29 5.5q21 0 40 -10.5t29.5 -27t9 -37t-22.5 -41.5q-16 -16 -16 -23q0 -4 4.5 -11.5t9.5 -17.5q12 -23 10.5 -42.5t-11 -34.5t-26 -23.5t-34.5 -8.5q-17 0 -34.5 9.5t-29.5 29.5q-29 50 -29 99q0 31 11 58.5t34 55.5v-1z" />
    <glyph glyph-name="quoteright" unicode="&#x2019;" horiz-adv-x="256" 
d="M167 557q-11 -15 -26 -20.5t-29 -5.5q-21 0 -40.5 10.5t-30 27t-8.5 37.5t23 42q16 16 16 22q0 2 -4.5 10t-10.5 19q-12 22 -11 42t11 35t26.5 23.5t34.5 8.5t35.5 -9.5t29.5 -29.5q29 -50 29 -98q0 -60 -45 -115v1z" />
    <glyph glyph-name="quotesinglbase" unicode="&#x201a;" horiz-adv-x="251" 
d="M168 -31q-11 -15 -26 -20.5t-29 -5.5q-21 0 -40.5 10t-30 26.5t-8.5 37.5t23 42q9 9 12.5 14.5t3.5 8.5q0 2 -4.5 10t-9.5 18q-13 23 -12 43t11 35t27 23.5t35 8.5q17 0 34.5 -9.5t29.5 -29.5q29 -50 29 -98q0 -60 -45 -115v1z" />
    <glyph glyph-name="quotedblleft" unicode="&#x201c;" horiz-adv-x="463" 
d="M293 786q11 15 26 20.5t29 5.5q21 0 40 -10.5t29.5 -27t9 -37t-22.5 -41.5q-16 -16 -16 -23q0 -4 4 -11.5t9 -17.5q12 -23 11 -42.5t-10.5 -34.5t-26 -23.5t-34.5 -8.5q-17 0 -34.5 9.5t-29.5 29.5q-30 49 -30 99q0 31 11.5 58.5t34.5 55.5v-1zM94 781q11 15 26 20.5
t29 5.5q21 0 40 -10.5t29.5 -27t9 -37t-22.5 -41.5q-16 -16 -16 -23q0 -4 4.5 -11.5t9.5 -17.5q12 -23 10.5 -42.5t-11 -34.5t-26 -23.5t-34.5 -8.5q-17 0 -34.5 9.5t-29.5 29.5q-29 50 -29 99q0 31 11 58.5t34 55.5v-1z" />
    <glyph glyph-name="quotedblright" unicode="&#x201d;" horiz-adv-x="474" 
d="M185 787q23 -28 34.5 -55.5t11.5 -58.5q0 -50 -30 -99q-12 -20 -29.5 -29.5t-34.5 -9.5q-18 0 -34.5 8.5t-26 23.5t-10.5 34.5t11 42.5q5 10 9 17.5t4 11.5q0 7 -16 23q-21 21 -23 41.5t8.5 37t30 27t40.5 10.5q14 0 29 -5.5t26 -20.5v1zM384 782q23 -28 34 -55.5
t11 -58.5q0 -49 -29 -99q-12 -20 -29.5 -29.5t-34.5 -9.5q-18 0 -34.5 8.5t-26 23.5t-11 34.5t10.5 42.5q5 10 9.5 17.5t4.5 11.5q0 7 -16 23q-21 21 -23 41.5t8.5 37t30 27t40.5 10.5q14 0 29 -5.5t26 -20.5v1z" />
    <glyph glyph-name="quotedblbase" unicode="&#x201e;" horiz-adv-x="488" 
d="M203 -28q-11 -15 -26 -20.5t-29 -5.5q-21 0 -40.5 10.5t-30 27t-8.5 37.5t23 42q16 15 16 22q0 3 -4.5 10.5t-10.5 18.5q-12 22 -11 42t11 35t27 23.5t35 8.5q17 0 34.5 -9.5t29.5 -29.5q29 -50 29 -98q0 -60 -45 -114zM401 -31q-11 -15 -26 -20.5t-29 -5.5
q-21 0 -40.5 10.5t-30 27t-8.5 37.5t23 42q15 15 15 22q0 3 -4 10.5t-10 18.5q-12 22 -11 42t11 35t26.5 23.5t34.5 8.5t35.5 -9.5t29.5 -29.5q29 -50 29 -98q0 -60 -45 -114z" />
    <glyph glyph-name="bullet" unicode="&#x2022;" horiz-adv-x="259" 
d="M222 448q0 -38 -27 -65t-65 -27t-64 27t-26 65t26 64t64 26t65 -26t27 -64z" />
    <glyph glyph-name="ellipsis" unicode="&#x2026;" horiz-adv-x="654" 
d="M198 82q0 -33 -23.5 -56.5t-56.5 -23.5t-56 23.5t-23 56.5t23 56t56 23t56.5 -23t23.5 -56zM405 82q0 -33 -24 -56.5t-57 -23.5t-56 23.5t-23 56.5t23 56t56 23t57 -23t24 -56zM608 82q0 -17 -6.5 -31.5t-17.5 -25t-25.5 -17t-30.5 -6.5q-34 0 -57 23.5t-23 56.5t23 56
t57 23q32 0 56 -23t24 -56z" />
    <glyph glyph-name="fraction" unicode="&#x2044;" horiz-adv-x="635" 
d="M189 44q-8 -21 -24 -30.5t-36 -9.5q-18 0 -35.5 8.5t-30 22.5t-16.5 33t7 40l402 759q11 20 28 28.5t35 8.5t35 -8.5t28.5 -23t14 -34t-7.5 -40.5z" />
    <glyph glyph-name="Euro" unicode="&#x20ac;" horiz-adv-x="822" 
d="M281 265q21 -55 59 -88.5t95 -34.5q28 0 55.5 8.5t51.5 26.5t43.5 45t31.5 63q6 32 27.5 48t46.5 16q29 0 51.5 -21.5t22.5 -64.5q-27 -87 -66.5 -139.5t-85 -80.5t-92.5 -36t-89 -8q-64 0 -115.5 20.5t-90.5 56.5t-66 84.5t-41 104.5h-3q-37 0 -54 23t-17 51
q0 25 15.5 46.5t44.5 26.5v36q-31 4 -45.5 25.5t-14.5 47.5q0 27 17.5 50t52.5 25h13q18 61 48.5 121t73 106.5t97 74.5t119.5 26q45 -2 90 -13t83.5 -35t69 -61.5t47.5 -91.5q3 -18 -3 -34.5t-17.5 -29t-27 -20.5t-30.5 -8q-21 0 -39 11t-26 37q-11 34 -29.5 54t-39.5 30.5
t-41 13t-35 2.5q-33 -1 -60.5 -18t-50 -43.5t-40.5 -59t-30 -62.5h268q36 0 52 -22.5t16 -50.5q0 -15 -5 -29.5t-14 -25.5t-23 -16.5t-32 -3.5h6h-298v-34h298q36 0 52 -23t16 -51q0 -15 -5 -29.5t-14 -25t-23 -16.5t-32 -3l6 -1h-274z" />
    <glyph glyph-name="minus" unicode="&#x2212;" horiz-adv-x="512" 
d="M114 351q-37 0 -54.5 23t-17.5 51q0 27 18 50t53 25h293q36 0 52 -23t16 -50q0 -15 -5 -29.5t-14 -25.5t-23 -16.5t-32 -3.5l6 -1h-292z" />
    <glyph glyph-name="commaaccent" horiz-adv-x="340" 
d="M195 70q-11 -15 -26 -20.5t-29 -5.5q-21 0 -40.5 10.5t-30 27t-8.5 37.5t23 42q15 15 15 22q0 3 -4 10.5t-10 18.5q-12 22 -11 42t11 35t26.5 23.5t34.5 8.5t35.5 -9.5t29.5 -29.5q29 -50 29 -98q0 -60 -45 -115v1z" />
    </font>
</defs>
</svg>
